M48
; DRILL file {KiCad 9.0.5} date 2025-11-11T16:31:34-0500
; FORMAT={-:-/ absolute / inch / decimal}
; #@! TF.CreationDate,2025-11-11T16:31:34-05:00
; #@! TF.GenerationSoftware,Kicad,Pcbnew,9.0.5
; #@! TF.FileFunction,Plated,1,2,PTH
FMAT,2
INCH
; #@! TA.AperFunction,Plated,PTH,ViaDrill
T1C0.0118
; #@! TA.AperFunction,Plated,PTH,ComponentDrill
T2C0.0236
; #@! TA.AperFunction,Plated,PTH,ComponentDrill
T3C0.0354
; #@! TA.AperFunction,Plated,PTH,ComponentDrill
T4C0.0394
%
G90
G05
T1
X3.6571Y-2.8843
X3.6713Y-4.2441
X3.7181Y-4.0563
X3.7689Y-3.4866
X3.913Y-2.8087
X3.9201Y-3.4902
X4.0142Y-4.5071
X4.0311Y-4.3752
X4.0482Y-3.9003
X4.0482Y-4.0165
X4.3952Y-4.2712
X4.4071Y-3.115
X4.4106Y-3.4598
X4.4807Y-3.8819
X4.4937Y-4.5217
X4.5476Y-2.8016
X4.6283Y-4.1705
X4.6957Y-3.126
X4.7138Y-3.5622
X4.7213Y-3.8835
X4.8831Y-4.5071
X4.9256Y-4.1169
X4.9949Y-3.8929
X5.0028Y-4.1398
X5.0087Y-2.8772
X5.0094Y-3.6476
X5.0217Y-3.3606
X5.0768Y-4.1386
X5.2024Y-4.2552
X5.2039Y-3.1378
X5.2051Y-3.9003
X5.3594Y-2.8665
X5.3795Y-3.3807
X5.5697Y-3.698
X5.572Y-3.1161
X5.648Y-4.0811
T2
X5.2898Y-4.4098
X5.3685Y-4.4098
T3
X3.8433Y-4.2476
X3.9433Y-4.2476
T4
X3.7043Y-3.2335
X3.8043Y-3.2335
X3.9043Y-3.2335
X4.0043Y-3.2335
X4.2394Y-2.7335
X4.2394Y-2.8335
X4.2394Y-2.9335
X4.2394Y-3.0335
X4.2394Y-3.1335
X4.2394Y-3.2335
X4.2394Y-3.3335
X4.2394Y-3.4335
X4.2394Y-3.5335
X4.2394Y-3.6335
X4.2394Y-3.7335
X4.2394Y-3.8335
X4.2394Y-3.9335
X4.2394Y-4.0335
X4.2394Y-4.1335
X4.8394Y-2.7335
X4.8394Y-2.8335
X4.8394Y-2.9335
X4.8394Y-3.0335
X4.8394Y-3.1335
X4.8394Y-3.2335
X4.8394Y-3.3335
X4.8394Y-3.4335
X4.8394Y-3.5335
X4.8394Y-3.6335
X4.8394Y-3.7335
X4.8394Y-3.8335
X4.8394Y-3.9335
X4.8394Y-4.0335
X4.8394Y-4.1335
X5.1909Y-4.0449
X5.1909Y-4.1449
X5.2909Y-4.0449
X5.2909Y-4.1449
X5.3909Y-4.0449
X5.3909Y-4.1449
X5.4909Y-4.0449
X5.4909Y-4.1449
M30
