%TF.GenerationSoftware,KiCad,Pcbnew,9.0.5*%
%TF.CreationDate,2025-11-11T16:31:38-05:00*%
%TF.ProjectId,Base_station_PCB_V0.3.1,42617365-5f73-4746-9174-696f6e5f5043,rev?*%
%TF.SameCoordinates,Original*%
%TF.FileFunction,Soldermask,Bot*%
%TF.FilePolarity,Negative*%
%FSLAX46Y46*%
G04 Gerber Fmt 4.6, Leading zero omitted, Abs format (unit mm)*
G04 Created by KiCad (PCBNEW 9.0.5) date 2025-11-11 16:31:38*
%MOMM*%
%LPD*%
G01*
G04 APERTURE LIST*
G04 Aperture macros list*
%AMRoundRect*
0 Rectangle with rounded corners*
0 $1 Rounding radius*
0 $2 $3 $4 $5 $6 $7 $8 $9 X,Y pos of 4 corners*
0 Add a 4 corners polygon primitive as box body*
4,1,4,$2,$3,$4,$5,$6,$7,$8,$9,$2,$3,0*
0 Add four circle primitives for the rounded corners*
1,1,$1+$1,$2,$3*
1,1,$1+$1,$4,$5*
1,1,$1+$1,$6,$7*
1,1,$1+$1,$8,$9*
0 Add four rect primitives between the rounded corners*
20,1,$1+$1,$2,$3,$4,$5,0*
20,1,$1+$1,$4,$5,$6,$7,0*
20,1,$1+$1,$6,$7,$8,$9,0*
20,1,$1+$1,$8,$9,$2,$3,0*%
G04 Aperture macros list end*
%ADD10R,1.800000X1.800000*%
%ADD11C,1.800000*%
%ADD12R,1.700000X1.700000*%
%ADD13C,1.700000*%
%ADD14RoundRect,0.250000X-0.350000X-0.350000X0.350000X-0.350000X0.350000X0.350000X-0.350000X0.350000X0*%
%ADD15C,1.200000*%
%ADD16R,1.600000X1.600000*%
%ADD17O,1.600000X1.600000*%
G04 APERTURE END LIST*
D10*
%TO.C,D1*%
X97620000Y-107890000D03*
D11*
X100160000Y-107890000D03*
%TD*%
D12*
%TO.C,U1*%
X131850000Y-105280000D03*
D13*
X131850000Y-102740000D03*
X134390000Y-105280000D03*
X134390000Y-102740000D03*
X136930000Y-105280000D03*
X136930000Y-102740000D03*
X139470000Y-105280000D03*
X139470000Y-102740000D03*
%TD*%
D12*
%TO.C,J1*%
X94090000Y-82130000D03*
D13*
X96630000Y-82130000D03*
X99170000Y-82130000D03*
X101710000Y-82130000D03*
%TD*%
D14*
%TO.C,C5*%
X134360000Y-112010000D03*
D15*
X136360000Y-112010000D03*
%TD*%
D16*
%TO.C,Ardunio Nano*%
X107680000Y-69430000D03*
D17*
X107680000Y-71970000D03*
X107680000Y-74510000D03*
X107680000Y-77050000D03*
X107680000Y-79590000D03*
X107680000Y-82130000D03*
X107680000Y-84670000D03*
X107680000Y-87210000D03*
X107680000Y-89750000D03*
X107680000Y-92290000D03*
X107680000Y-94830000D03*
X107680000Y-97370000D03*
X107680000Y-99910000D03*
X107680000Y-102450000D03*
X107680000Y-104990000D03*
X122920000Y-104990000D03*
X122920000Y-102450000D03*
X122920000Y-99910000D03*
X122920000Y-97370000D03*
X122920000Y-94830000D03*
X122920000Y-92290000D03*
X122920000Y-89750000D03*
X122920000Y-87210000D03*
X122920000Y-84670000D03*
X122920000Y-82130000D03*
X122920000Y-79590000D03*
X122920000Y-77050000D03*
X122920000Y-74510000D03*
X122920000Y-71970000D03*
X122920000Y-69430000D03*
%TD*%
M02*
