%TF.GenerationSoftware,KiCad,Pcbnew,9.0.5*%
%TF.CreationDate,2025-11-11T16:31:37-05:00*%
%TF.ProjectId,Base_station_PCB_V0.3.1,42617365-5f73-4746-9174-696f6e5f5043,rev?*%
%TF.SameCoordinates,Original*%
%TF.FileFunction,Copper,L1,Top*%
%TF.FilePolarity,Positive*%
%FSLAX46Y46*%
G04 Gerber Fmt 4.6, Leading zero omitted, Abs format (unit mm)*
G04 Created by KiCad (PCBNEW 9.0.5) date 2025-11-11 16:31:37*
%MOMM*%
%LPD*%
G01*
G04 APERTURE LIST*
G04 Aperture macros list*
%AMRoundRect*
0 Rectangle with rounded corners*
0 $1 Rounding radius*
0 $2 $3 $4 $5 $6 $7 $8 $9 X,Y pos of 4 corners*
0 Add a 4 corners polygon primitive as box body*
4,1,4,$2,$3,$4,$5,$6,$7,$8,$9,$2,$3,0*
0 Add four circle primitives for the rounded corners*
1,1,$1+$1,$2,$3*
1,1,$1+$1,$4,$5*
1,1,$1+$1,$6,$7*
1,1,$1+$1,$8,$9*
0 Add four rect primitives between the rounded corners*
20,1,$1+$1,$2,$3,$4,$5,0*
20,1,$1+$1,$4,$5,$6,$7,0*
20,1,$1+$1,$6,$7,$8,$9,0*
20,1,$1+$1,$8,$9,$2,$3,0*%
G04 Aperture macros list end*
%TA.AperFunction,SMDPad,CuDef*%
%ADD10RoundRect,0.250000X0.625000X-0.312500X0.625000X0.312500X-0.625000X0.312500X-0.625000X-0.312500X0*%
%TD*%
%TA.AperFunction,ComponentPad*%
%ADD11R,1.800000X1.800000*%
%TD*%
%TA.AperFunction,ComponentPad*%
%ADD12C,1.800000*%
%TD*%
%TA.AperFunction,ComponentPad*%
%ADD13R,1.700000X1.700000*%
%TD*%
%TA.AperFunction,ComponentPad*%
%ADD14C,1.700000*%
%TD*%
%TA.AperFunction,ComponentPad*%
%ADD15RoundRect,0.250000X-0.350000X-0.350000X0.350000X-0.350000X0.350000X0.350000X-0.350000X0.350000X0*%
%TD*%
%TA.AperFunction,ComponentPad*%
%ADD16C,1.200000*%
%TD*%
%TA.AperFunction,SMDPad,CuDef*%
%ADD17RoundRect,0.250000X-0.325000X-0.650000X0.325000X-0.650000X0.325000X0.650000X-0.325000X0.650000X0*%
%TD*%
%TA.AperFunction,SMDPad,CuDef*%
%ADD18RoundRect,0.250000X0.325000X0.650000X-0.325000X0.650000X-0.325000X-0.650000X0.325000X-0.650000X0*%
%TD*%
%TA.AperFunction,ComponentPad*%
%ADD19R,1.600000X1.600000*%
%TD*%
%TA.AperFunction,ComponentPad*%
%ADD20O,1.600000X1.600000*%
%TD*%
%TA.AperFunction,ViaPad*%
%ADD21C,0.600000*%
%TD*%
%TA.AperFunction,Conductor*%
%ADD22C,0.500000*%
%TD*%
G04 APERTURE END LIST*
D10*
%TO.P,R1,1*%
%TO.N,Net-(D1-A)*%
X100160000Y-101072500D03*
%TO.P,R1,2*%
%TO.N,Net-(A1-D3)*%
X100160000Y-98147500D03*
%TD*%
D11*
%TO.P,D1,1,K*%
%TO.N,GND*%
X97620000Y-107890000D03*
D12*
%TO.P,D1,2,A*%
%TO.N,Net-(D1-A)*%
X100160000Y-107890000D03*
%TD*%
D13*
%TO.P,U1,1,GND*%
%TO.N,GND*%
X131850000Y-105280000D03*
D14*
%TO.P,U1,2,VCC*%
%TO.N,Net-(J1-Pin_4)*%
X131850000Y-102740000D03*
%TO.P,U1,3,CE*%
%TO.N,Net-(A1-D6)*%
X134390000Y-105280000D03*
%TO.P,U1,4,~{CSN}*%
%TO.N,Net-(A1-D7)*%
X134390000Y-102740000D03*
%TO.P,U1,5,SCK*%
%TO.N,Net-(A1-D13)*%
X136930000Y-105280000D03*
%TO.P,U1,6,MOSI*%
%TO.N,Net-(A1-D11)*%
X136930000Y-102740000D03*
%TO.P,U1,7,MISO*%
%TO.N,Net-(A1-D12)*%
X139470000Y-105280000D03*
%TO.P,U1,8,IRQ*%
%TO.N,unconnected-(U1-IRQ-Pad8)*%
X139470000Y-102740000D03*
%TD*%
D13*
%TO.P,J1,1,Pin_1*%
%TO.N,Net-(A1-+5V)*%
X94090000Y-82130000D03*
D14*
%TO.P,J1,2,Pin_2*%
X96630000Y-82130000D03*
%TO.P,J1,3,Pin_3*%
%TO.N,GND*%
X99170000Y-82130000D03*
%TO.P,J1,4,Pin_4*%
%TO.N,Net-(J1-Pin_4)*%
X101710000Y-82130000D03*
%TD*%
D15*
%TO.P,C5,1*%
%TO.N,Net-(J1-Pin_4)*%
X134360000Y-112010000D03*
D16*
%TO.P,C5,2*%
%TO.N,GND*%
X136360000Y-112010000D03*
%TD*%
D17*
%TO.P,C3,1*%
%TO.N,Net-(J1-Pin_4)*%
X127490000Y-112190000D03*
%TO.P,C3,2*%
%TO.N,GND*%
X130440000Y-112190000D03*
%TD*%
D18*
%TO.P,C2,1*%
%TO.N,Net-(J1-Pin_4)*%
X102115000Y-77160000D03*
%TO.P,C2,2*%
%TO.N,GND*%
X99165000Y-77160000D03*
%TD*%
D17*
%TO.P,C1,1*%
%TO.N,Net-(A1-+5V)*%
X94075000Y-77190000D03*
%TO.P,C1,2*%
%TO.N,GND*%
X97025000Y-77190000D03*
%TD*%
D19*
%TO.P,Ardunio Nano,1,D1/TX*%
%TO.N,unconnected-(A1-D1{slash}TX-Pad1)*%
X107680000Y-69430000D03*
D20*
%TO.P,Ardunio Nano,2,D0/RX*%
%TO.N,unconnected-(A1-D0{slash}RX-Pad2)*%
X107680000Y-71970000D03*
%TO.P,Ardunio Nano,3,~{RESET}*%
%TO.N,unconnected-(A1-~{RESET}-Pad3)*%
X107680000Y-74510000D03*
%TO.P,Ardunio Nano,4,GND*%
%TO.N,GND*%
X107680000Y-77050000D03*
%TO.P,Ardunio Nano,5,D2*%
%TO.N,unconnected-(A1-D2-Pad5)*%
X107680000Y-79590000D03*
%TO.P,Ardunio Nano,6,D3*%
%TO.N,Net-(A1-D3)*%
X107680000Y-82130000D03*
%TO.P,Ardunio Nano,7,D4*%
%TO.N,unconnected-(A1-D4-Pad7)*%
X107680000Y-84670000D03*
%TO.P,Ardunio Nano,8,D5*%
%TO.N,unconnected-(A1-D5-Pad8)*%
X107680000Y-87210000D03*
%TO.P,Ardunio Nano,9,D6*%
%TO.N,Net-(A1-D6)*%
X107680000Y-89750000D03*
%TO.P,Ardunio Nano,10,D7*%
%TO.N,Net-(A1-D7)*%
X107680000Y-92290000D03*
%TO.P,Ardunio Nano,11,D8*%
%TO.N,unconnected-(A1-D8-Pad11)*%
X107680000Y-94830000D03*
%TO.P,Ardunio Nano,12,D9*%
%TO.N,unconnected-(A1-D9-Pad12)*%
X107680000Y-97370000D03*
%TO.P,Ardunio Nano,13,D10*%
%TO.N,unconnected-(A1-D10-Pad13)*%
X107680000Y-99910000D03*
%TO.P,Ardunio Nano,14,D11*%
%TO.N,Net-(A1-D11)*%
X107680000Y-102450000D03*
%TO.P,Ardunio Nano,15,D12*%
%TO.N,Net-(A1-D12)*%
X107680000Y-104990000D03*
%TO.P,Ardunio Nano,16,D13*%
%TO.N,Net-(A1-D13)*%
X122920000Y-104990000D03*
%TO.P,Ardunio Nano,17,3V3*%
%TO.N,unconnected-(A1-3V3-Pad17)*%
X122920000Y-102450000D03*
%TO.P,Ardunio Nano,18,AREF*%
%TO.N,unconnected-(A1-AREF-Pad18)*%
X122920000Y-99910000D03*
%TO.P,Ardunio Nano,19,A0*%
%TO.N,unconnected-(A1-A0-Pad19)*%
X122920000Y-97370000D03*
%TO.P,Ardunio Nano,20,A1*%
%TO.N,unconnected-(A1-A1-Pad20)*%
X122920000Y-94830000D03*
%TO.P,Ardunio Nano,21,A2*%
%TO.N,unconnected-(A1-A2-Pad21)*%
X122920000Y-92290000D03*
%TO.P,Ardunio Nano,22,A3*%
%TO.N,unconnected-(A1-A3-Pad22)*%
X122920000Y-89750000D03*
%TO.P,Ardunio Nano,23,A4*%
%TO.N,unconnected-(A1-A4-Pad23)*%
X122920000Y-87210000D03*
%TO.P,Ardunio Nano,24,A5*%
%TO.N,unconnected-(A1-A5-Pad24)*%
X122920000Y-84670000D03*
%TO.P,Ardunio Nano,25,A6*%
%TO.N,unconnected-(A1-A6-Pad25)*%
X122920000Y-82130000D03*
%TO.P,Ardunio Nano,26,A7*%
%TO.N,unconnected-(A1-A7-Pad26)*%
X122920000Y-79590000D03*
%TO.P,Ardunio Nano,27,+5V*%
%TO.N,Net-(A1-+5V)*%
X122920000Y-77050000D03*
%TO.P,Ardunio Nano,28,~{RESET}*%
%TO.N,unconnected-(A1-~{RESET}-Pad28)*%
X122920000Y-74510000D03*
%TO.P,Ardunio Nano,29,GND*%
%TO.N,GND*%
X122920000Y-71970000D03*
%TO.P,Ardunio Nano,30,VIN*%
%TO.N,unconnected-(A1-VIN-Pad30)*%
X122920000Y-69430000D03*
%TD*%
D21*
%TO.N,GND*%
X143460000Y-103660000D03*
X117560000Y-105930000D03*
X119920000Y-98640000D03*
X113810000Y-98600000D03*
X126870000Y-98880000D03*
X102390000Y-111130000D03*
X112030000Y-87880000D03*
X132180000Y-79700000D03*
X127240000Y-92650000D03*
X141470000Y-93930000D03*
X141530000Y-79150000D03*
X136640000Y-85870000D03*
X93250000Y-107800000D03*
X119270000Y-79400000D03*
X119730000Y-90480000D03*
X111940000Y-79120000D03*
X115510000Y-71160000D03*
X92890000Y-73260000D03*
X99390000Y-71340000D03*
X99570000Y-88650000D03*
X95730000Y-88560000D03*
X94440000Y-103030000D03*
X124030000Y-114480000D03*
X114140000Y-114850000D03*
X101960000Y-114480000D03*
X127550000Y-85360000D03*
X136130000Y-72810000D03*
X127220000Y-73080000D03*
X125110000Y-104570000D03*
X127070000Y-105150000D03*
%TO.N,Net-(A1-D3)*%
X102823300Y-99066800D03*
%TO.N,Net-(J1-Pin_4)*%
X102823300Y-102019600D03*
%TO.N,Net-(A1-D7)*%
X132208300Y-99066800D03*
%TO.N,Net-(A1-D6)*%
X111638800Y-108487600D03*
X132140400Y-108081900D03*
%TO.N,GND*%
X128950000Y-105120000D03*
%TD*%
D22*
%TO.N,Net-(A1-+5V)*%
X96630000Y-79910000D02*
X96630000Y-82130000D01*
X96660000Y-79610000D02*
X96660000Y-79880000D01*
X96660000Y-79880000D02*
X96630000Y-79910000D01*
X96495000Y-79610000D02*
X96660000Y-79610000D01*
X94075000Y-77190000D02*
X96495000Y-79610000D01*
%TO.N,Net-(D1-A)*%
X100160000Y-107890000D02*
X100160000Y-101072500D01*
%TO.N,Net-(A1-D3)*%
X101079300Y-99066800D02*
X100160000Y-98147500D01*
X102823300Y-99066800D02*
X101079300Y-99066800D01*
%TO.N,Net-(J1-Pin_4)*%
X102115000Y-81725000D02*
X102115000Y-77160000D01*
X101710000Y-82130000D02*
X102115000Y-81725000D01*
X130870000Y-103720000D02*
X131850000Y-102740000D01*
X104523700Y-103720000D02*
X130870000Y-103720000D01*
X102823300Y-102019600D02*
X104523700Y-103720000D01*
%TO.N,Net-(A1-D11)*%
X135370100Y-101180100D02*
X136930000Y-102740000D01*
X110249900Y-101180100D02*
X135370100Y-101180100D01*
X108980000Y-102450000D02*
X110249900Y-101180100D01*
X107680000Y-102450000D02*
X108980000Y-102450000D01*
%TO.N,Net-(A1-D12)*%
X137426300Y-107323700D02*
X139470000Y-105280000D01*
X111313700Y-107323700D02*
X137426300Y-107323700D01*
X108980000Y-104990000D02*
X111313700Y-107323700D01*
X107680000Y-104990000D02*
X108980000Y-104990000D01*
%TO.N,Net-(A1-D13)*%
X125826600Y-106596600D02*
X124220000Y-104990000D01*
X135613400Y-106596600D02*
X125826600Y-106596600D01*
X136930000Y-105280000D02*
X135613400Y-106596600D01*
X122920000Y-104990000D02*
X124220000Y-104990000D01*
%TO.N,Net-(A1-D7)*%
X112790000Y-96100000D02*
X108980000Y-92290000D01*
X129241500Y-96100000D02*
X112790000Y-96100000D01*
X132208300Y-99066800D02*
X129241500Y-96100000D01*
X107680000Y-92290000D02*
X108980000Y-92290000D01*
%TO.N,Net-(A1-+5V)*%
X95485000Y-75780000D02*
X94075000Y-77190000D01*
X120350000Y-75780000D02*
X95485000Y-75780000D01*
X121620000Y-77050000D02*
X120350000Y-75780000D01*
X122920000Y-77050000D02*
X121620000Y-77050000D01*
X94090000Y-77205000D02*
X94075000Y-77190000D01*
X94090000Y-82130000D02*
X94090000Y-77205000D01*
%TO.N,Net-(A1-D6)*%
X131734700Y-108487600D02*
X111638800Y-108487600D01*
X132140400Y-108081900D02*
X131734700Y-108487600D01*
%TO.N,Net-(J1-Pin_4)*%
X134360000Y-112010000D02*
X133130600Y-110780600D01*
X128899400Y-110780600D02*
X127490000Y-112190000D01*
X133130600Y-110780600D02*
X128899400Y-110780600D01*
%TD*%
%TA.AperFunction,Conductor*%
%TO.N,GND*%
G36*
X121617737Y-104490185D02*
G01*
X121663492Y-104542989D01*
X121673436Y-104612147D01*
X121668629Y-104632819D01*
X121651522Y-104685465D01*
X121619500Y-104887648D01*
X121619500Y-105092351D01*
X121651522Y-105294534D01*
X121714781Y-105489223D01*
X121807715Y-105671613D01*
X121928028Y-105837213D01*
X122072786Y-105981971D01*
X122227749Y-106094556D01*
X122238390Y-106102287D01*
X122351238Y-106159786D01*
X122420776Y-106195218D01*
X122420778Y-106195218D01*
X122420781Y-106195220D01*
X122525137Y-106229127D01*
X122615465Y-106258477D01*
X122716557Y-106274488D01*
X122817648Y-106290500D01*
X122817649Y-106290500D01*
X123022351Y-106290500D01*
X123022352Y-106290500D01*
X123224534Y-106258477D01*
X123419219Y-106195220D01*
X123601610Y-106102287D01*
X123767219Y-105981966D01*
X123871230Y-105877954D01*
X123932549Y-105844472D01*
X124002241Y-105849456D01*
X124046589Y-105877957D01*
X124328424Y-106159792D01*
X124530152Y-106361519D01*
X124563637Y-106422842D01*
X124558653Y-106492533D01*
X124516782Y-106548467D01*
X124451317Y-106572884D01*
X124442471Y-106573200D01*
X111675929Y-106573200D01*
X111608890Y-106553515D01*
X111588248Y-106536881D01*
X109733549Y-104682181D01*
X109700064Y-104620858D01*
X109705048Y-104551166D01*
X109746920Y-104495233D01*
X109812384Y-104470816D01*
X109821230Y-104470500D01*
X121550698Y-104470500D01*
X121617737Y-104490185D01*
G37*
%TD.AperFunction*%
%TA.AperFunction,Conductor*%
G36*
X130443039Y-104490185D02*
G01*
X130488794Y-104542989D01*
X130500000Y-104594500D01*
X130500000Y-105030000D01*
X131416988Y-105030000D01*
X131384075Y-105087007D01*
X131350000Y-105214174D01*
X131350000Y-105345826D01*
X131384075Y-105472993D01*
X131416988Y-105530000D01*
X130500000Y-105530000D01*
X130500000Y-105722100D01*
X130480315Y-105789139D01*
X130427511Y-105834894D01*
X130376000Y-105846100D01*
X126188829Y-105846100D01*
X126121790Y-105826415D01*
X126101148Y-105809781D01*
X124973549Y-104682181D01*
X124940064Y-104620858D01*
X124945048Y-104551166D01*
X124986920Y-104495233D01*
X125052384Y-104470816D01*
X125061230Y-104470500D01*
X130376000Y-104470500D01*
X130443039Y-104490185D01*
G37*
%TD.AperFunction*%
%TA.AperFunction,Conductor*%
G36*
X108762241Y-93149456D02*
G01*
X108806589Y-93177957D01*
X112207049Y-96578416D01*
X112311584Y-96682951D01*
X112311587Y-96682953D01*
X112311588Y-96682954D01*
X112434503Y-96765083D01*
X112434506Y-96765085D01*
X112484665Y-96785861D01*
X112491080Y-96788518D01*
X112571088Y-96821659D01*
X112687241Y-96844763D01*
X112710380Y-96849365D01*
X112716081Y-96850500D01*
X112716082Y-96850500D01*
X112716083Y-96850500D01*
X112863918Y-96850500D01*
X121550698Y-96850500D01*
X121617737Y-96870185D01*
X121663492Y-96922989D01*
X121673436Y-96992147D01*
X121668629Y-97012819D01*
X121651522Y-97065465D01*
X121619500Y-97267648D01*
X121619500Y-97472351D01*
X121651522Y-97674534D01*
X121714781Y-97869223D01*
X121807715Y-98051613D01*
X121928028Y-98217213D01*
X122072786Y-98361971D01*
X122187086Y-98445013D01*
X122238390Y-98482287D01*
X122329840Y-98528883D01*
X122331080Y-98529515D01*
X122381876Y-98577490D01*
X122398671Y-98645311D01*
X122376134Y-98711446D01*
X122331080Y-98750485D01*
X122238386Y-98797715D01*
X122072786Y-98918028D01*
X121928028Y-99062786D01*
X121807715Y-99228386D01*
X121714781Y-99410776D01*
X121651522Y-99605465D01*
X121619500Y-99807648D01*
X121619500Y-100012351D01*
X121651523Y-100214535D01*
X121651523Y-100214538D01*
X121668661Y-100267282D01*
X121670656Y-100337123D01*
X121634575Y-100396956D01*
X121571874Y-100427784D01*
X121550730Y-100429600D01*
X110175980Y-100429600D01*
X110030992Y-100458440D01*
X110030982Y-100458443D01*
X109894408Y-100515013D01*
X109845367Y-100547782D01*
X109845366Y-100547781D01*
X109771489Y-100597144D01*
X109771481Y-100597150D01*
X108806589Y-101562042D01*
X108745266Y-101595527D01*
X108675574Y-101590543D01*
X108631227Y-101562042D01*
X108527213Y-101458028D01*
X108361614Y-101337715D01*
X108307630Y-101310209D01*
X108268917Y-101290483D01*
X108218123Y-101242511D01*
X108201328Y-101174690D01*
X108223865Y-101108555D01*
X108268917Y-101069516D01*
X108361610Y-101022287D01*
X108382770Y-101006913D01*
X108527213Y-100901971D01*
X108527215Y-100901968D01*
X108527219Y-100901966D01*
X108671966Y-100757219D01*
X108671968Y-100757215D01*
X108671971Y-100757213D01*
X108780957Y-100607204D01*
X108792287Y-100591610D01*
X108885220Y-100409219D01*
X108948477Y-100214534D01*
X108980500Y-100012352D01*
X108980500Y-99807648D01*
X108948477Y-99605466D01*
X108939256Y-99577088D01*
X108896658Y-99445985D01*
X108885220Y-99410781D01*
X108885218Y-99410778D01*
X108885218Y-99410776D01*
X108851503Y-99344607D01*
X108792287Y-99228390D01*
X108771659Y-99199998D01*
X108671971Y-99062786D01*
X108527213Y-98918028D01*
X108361614Y-98797715D01*
X108325533Y-98779331D01*
X108268917Y-98750483D01*
X108218123Y-98702511D01*
X108201328Y-98634690D01*
X108223865Y-98568555D01*
X108268917Y-98529516D01*
X108361610Y-98482287D01*
X108412914Y-98445013D01*
X108527213Y-98361971D01*
X108527215Y-98361968D01*
X108527219Y-98361966D01*
X108671966Y-98217219D01*
X108671968Y-98217215D01*
X108671971Y-98217213D01*
X108724732Y-98144590D01*
X108792287Y-98051610D01*
X108885220Y-97869219D01*
X108948477Y-97674534D01*
X108980500Y-97472352D01*
X108980500Y-97267648D01*
X108948477Y-97065466D01*
X108885220Y-96870781D01*
X108885218Y-96870778D01*
X108885218Y-96870776D01*
X108831365Y-96765085D01*
X108792287Y-96688390D01*
X108784556Y-96677749D01*
X108671971Y-96522786D01*
X108527213Y-96378028D01*
X108361614Y-96257715D01*
X108355006Y-96254348D01*
X108268917Y-96210483D01*
X108218123Y-96162511D01*
X108201328Y-96094690D01*
X108223865Y-96028555D01*
X108268917Y-95989516D01*
X108361610Y-95942287D01*
X108382770Y-95926913D01*
X108527213Y-95821971D01*
X108527215Y-95821968D01*
X108527219Y-95821966D01*
X108671966Y-95677219D01*
X108671968Y-95677215D01*
X108671971Y-95677213D01*
X108724732Y-95604590D01*
X108792287Y-95511610D01*
X108885220Y-95329219D01*
X108948477Y-95134534D01*
X108980500Y-94932352D01*
X108980500Y-94727648D01*
X108948477Y-94525466D01*
X108885220Y-94330781D01*
X108885218Y-94330778D01*
X108885218Y-94330776D01*
X108851503Y-94264607D01*
X108792287Y-94148390D01*
X108784556Y-94137749D01*
X108671971Y-93982786D01*
X108527213Y-93838028D01*
X108361614Y-93717715D01*
X108355006Y-93714348D01*
X108268917Y-93670483D01*
X108218123Y-93622511D01*
X108201328Y-93554690D01*
X108223865Y-93488555D01*
X108268917Y-93449516D01*
X108361610Y-93402287D01*
X108527219Y-93281966D01*
X108631230Y-93177954D01*
X108692549Y-93144472D01*
X108762241Y-93149456D01*
G37*
%TD.AperFunction*%
%TA.AperFunction,Conductor*%
G36*
X120054809Y-76550185D02*
G01*
X120075451Y-76566819D01*
X121037049Y-77528416D01*
X121141584Y-77632951D01*
X121141585Y-77632952D01*
X121264498Y-77715080D01*
X121264511Y-77715087D01*
X121400247Y-77771310D01*
X121401087Y-77771658D01*
X121401091Y-77771658D01*
X121401092Y-77771659D01*
X121546079Y-77800500D01*
X121546082Y-77800500D01*
X121794582Y-77800500D01*
X121861621Y-77820185D01*
X121894900Y-77851615D01*
X121928028Y-77897212D01*
X121928032Y-77897217D01*
X122072786Y-78041971D01*
X122193036Y-78129336D01*
X122238390Y-78162287D01*
X122329840Y-78208883D01*
X122331080Y-78209515D01*
X122381876Y-78257490D01*
X122398671Y-78325311D01*
X122376134Y-78391446D01*
X122331080Y-78430485D01*
X122238386Y-78477715D01*
X122072786Y-78598028D01*
X121928028Y-78742786D01*
X121807715Y-78908386D01*
X121714781Y-79090776D01*
X121651522Y-79285465D01*
X121619500Y-79487648D01*
X121619500Y-79692351D01*
X121651522Y-79894534D01*
X121714781Y-80089223D01*
X121807715Y-80271613D01*
X121928028Y-80437213D01*
X122072786Y-80581971D01*
X122227749Y-80694556D01*
X122238390Y-80702287D01*
X122297037Y-80732169D01*
X122331080Y-80749515D01*
X122381876Y-80797490D01*
X122398671Y-80865311D01*
X122376134Y-80931446D01*
X122331080Y-80970485D01*
X122238386Y-81017715D01*
X122072786Y-81138028D01*
X121928028Y-81282786D01*
X121807715Y-81448386D01*
X121714781Y-81630776D01*
X121651522Y-81825465D01*
X121619500Y-82027648D01*
X121619500Y-82232351D01*
X121651522Y-82434534D01*
X121714781Y-82629223D01*
X121807715Y-82811613D01*
X121928028Y-82977213D01*
X122072786Y-83121971D01*
X122210928Y-83222335D01*
X122238390Y-83242287D01*
X122321477Y-83284622D01*
X122331080Y-83289515D01*
X122381876Y-83337490D01*
X122398671Y-83405311D01*
X122376134Y-83471446D01*
X122331080Y-83510485D01*
X122238386Y-83557715D01*
X122072786Y-83678028D01*
X121928028Y-83822786D01*
X121807715Y-83988386D01*
X121714781Y-84170776D01*
X121651522Y-84365465D01*
X121619500Y-84567648D01*
X121619500Y-84772351D01*
X121651522Y-84974534D01*
X121714781Y-85169223D01*
X121807715Y-85351613D01*
X121928028Y-85517213D01*
X122072786Y-85661971D01*
X122227749Y-85774556D01*
X122238390Y-85782287D01*
X122329840Y-85828883D01*
X122331080Y-85829515D01*
X122381876Y-85877490D01*
X122398671Y-85945311D01*
X122376134Y-86011446D01*
X122331080Y-86050485D01*
X122238386Y-86097715D01*
X122072786Y-86218028D01*
X121928028Y-86362786D01*
X121807715Y-86528386D01*
X121714781Y-86710776D01*
X121651522Y-86905465D01*
X121619500Y-87107648D01*
X121619500Y-87312351D01*
X121651522Y-87514534D01*
X121714781Y-87709223D01*
X121807715Y-87891613D01*
X121928028Y-88057213D01*
X122072786Y-88201971D01*
X122227749Y-88314556D01*
X122238390Y-88322287D01*
X122329840Y-88368883D01*
X122331080Y-88369515D01*
X122381876Y-88417490D01*
X122398671Y-88485311D01*
X122376134Y-88551446D01*
X122331080Y-88590485D01*
X122238386Y-88637715D01*
X122072786Y-88758028D01*
X121928028Y-88902786D01*
X121807715Y-89068386D01*
X121714781Y-89250776D01*
X121651522Y-89445465D01*
X121619500Y-89647648D01*
X121619500Y-89852351D01*
X121651522Y-90054534D01*
X121714781Y-90249223D01*
X121807715Y-90431613D01*
X121928028Y-90597213D01*
X122072786Y-90741971D01*
X122227749Y-90854556D01*
X122238390Y-90862287D01*
X122329840Y-90908883D01*
X122331080Y-90909515D01*
X122381876Y-90957490D01*
X122398671Y-91025311D01*
X122376134Y-91091446D01*
X122331080Y-91130485D01*
X122238386Y-91177715D01*
X122072786Y-91298028D01*
X121928028Y-91442786D01*
X121807715Y-91608386D01*
X121714781Y-91790776D01*
X121651522Y-91985465D01*
X121619500Y-92187648D01*
X121619500Y-92392351D01*
X121651522Y-92594534D01*
X121714781Y-92789223D01*
X121807715Y-92971613D01*
X121928028Y-93137213D01*
X122072786Y-93281971D01*
X122227749Y-93394556D01*
X122238390Y-93402287D01*
X122329840Y-93448883D01*
X122331080Y-93449515D01*
X122381876Y-93497490D01*
X122398671Y-93565311D01*
X122376134Y-93631446D01*
X122331080Y-93670485D01*
X122238386Y-93717715D01*
X122072786Y-93838028D01*
X121928028Y-93982786D01*
X121807715Y-94148386D01*
X121714781Y-94330776D01*
X121651522Y-94525465D01*
X121619500Y-94727648D01*
X121619500Y-94932351D01*
X121651522Y-95134534D01*
X121668629Y-95187181D01*
X121670624Y-95257023D01*
X121634544Y-95316856D01*
X121571843Y-95347684D01*
X121550698Y-95349500D01*
X113152229Y-95349500D01*
X113085190Y-95329815D01*
X113064548Y-95313181D01*
X109458415Y-91707047D01*
X109458413Y-91707045D01*
X109409179Y-91674150D01*
X109376355Y-91652218D01*
X109335495Y-91624916D01*
X109335494Y-91624915D01*
X109335492Y-91624914D01*
X109335490Y-91624913D01*
X109198917Y-91568343D01*
X109198907Y-91568340D01*
X109053920Y-91539500D01*
X109053918Y-91539500D01*
X108805418Y-91539500D01*
X108738379Y-91519815D01*
X108705100Y-91488385D01*
X108671971Y-91442787D01*
X108671967Y-91442782D01*
X108527213Y-91298028D01*
X108361614Y-91177715D01*
X108355006Y-91174348D01*
X108268917Y-91130483D01*
X108218123Y-91082511D01*
X108201328Y-91014690D01*
X108223865Y-90948555D01*
X108268917Y-90909516D01*
X108361610Y-90862287D01*
X108382770Y-90846913D01*
X108527213Y-90741971D01*
X108527215Y-90741968D01*
X108527219Y-90741966D01*
X108671966Y-90597219D01*
X108671968Y-90597215D01*
X108671971Y-90597213D01*
X108724732Y-90524590D01*
X108792287Y-90431610D01*
X108885220Y-90249219D01*
X108948477Y-90054534D01*
X108980500Y-89852352D01*
X108980500Y-89647648D01*
X108948477Y-89445466D01*
X108885220Y-89250781D01*
X108885218Y-89250778D01*
X108885218Y-89250776D01*
X108851503Y-89184607D01*
X108792287Y-89068390D01*
X108784556Y-89057749D01*
X108671971Y-88902786D01*
X108527213Y-88758028D01*
X108361614Y-88637715D01*
X108355006Y-88634348D01*
X108268917Y-88590483D01*
X108218123Y-88542511D01*
X108201328Y-88474690D01*
X108223865Y-88408555D01*
X108268917Y-88369516D01*
X108361610Y-88322287D01*
X108382770Y-88306913D01*
X108527213Y-88201971D01*
X108527215Y-88201968D01*
X108527219Y-88201966D01*
X108671966Y-88057219D01*
X108671968Y-88057215D01*
X108671971Y-88057213D01*
X108724732Y-87984590D01*
X108792287Y-87891610D01*
X108885220Y-87709219D01*
X108948477Y-87514534D01*
X108980500Y-87312352D01*
X108980500Y-87107648D01*
X108948477Y-86905466D01*
X108885220Y-86710781D01*
X108885218Y-86710778D01*
X108885218Y-86710776D01*
X108851503Y-86644607D01*
X108792287Y-86528390D01*
X108784556Y-86517749D01*
X108671971Y-86362786D01*
X108527213Y-86218028D01*
X108361614Y-86097715D01*
X108355006Y-86094348D01*
X108268917Y-86050483D01*
X108218123Y-86002511D01*
X108201328Y-85934690D01*
X108223865Y-85868555D01*
X108268917Y-85829516D01*
X108361610Y-85782287D01*
X108382770Y-85766913D01*
X108527213Y-85661971D01*
X108527215Y-85661968D01*
X108527219Y-85661966D01*
X108671966Y-85517219D01*
X108671968Y-85517215D01*
X108671971Y-85517213D01*
X108724732Y-85444590D01*
X108792287Y-85351610D01*
X108885220Y-85169219D01*
X108948477Y-84974534D01*
X108980500Y-84772352D01*
X108980500Y-84567648D01*
X108948477Y-84365466D01*
X108885220Y-84170781D01*
X108885218Y-84170778D01*
X108885218Y-84170776D01*
X108851503Y-84104607D01*
X108792287Y-83988390D01*
X108784556Y-83977749D01*
X108671971Y-83822786D01*
X108527213Y-83678028D01*
X108361614Y-83557715D01*
X108355006Y-83554348D01*
X108268917Y-83510483D01*
X108218123Y-83462511D01*
X108201328Y-83394690D01*
X108223865Y-83328555D01*
X108268917Y-83289516D01*
X108361610Y-83242287D01*
X108389081Y-83222328D01*
X108527213Y-83121971D01*
X108527215Y-83121968D01*
X108527219Y-83121966D01*
X108671966Y-82977219D01*
X108671968Y-82977215D01*
X108671971Y-82977213D01*
X108773244Y-82837820D01*
X108792287Y-82811610D01*
X108885220Y-82629219D01*
X108948477Y-82434534D01*
X108980500Y-82232352D01*
X108980500Y-82027648D01*
X108948477Y-81825466D01*
X108947673Y-81822993D01*
X108885218Y-81630776D01*
X108818118Y-81499087D01*
X108792287Y-81448390D01*
X108780010Y-81431492D01*
X108671971Y-81282786D01*
X108527213Y-81138028D01*
X108361614Y-81017715D01*
X108338543Y-81005960D01*
X108268917Y-80970483D01*
X108218123Y-80922511D01*
X108201328Y-80854690D01*
X108223865Y-80788555D01*
X108268917Y-80749516D01*
X108361610Y-80702287D01*
X108382770Y-80686913D01*
X108527213Y-80581971D01*
X108527215Y-80581968D01*
X108527219Y-80581966D01*
X108671966Y-80437219D01*
X108671968Y-80437215D01*
X108671971Y-80437213D01*
X108724732Y-80364590D01*
X108792287Y-80271610D01*
X108885220Y-80089219D01*
X108948477Y-79894534D01*
X108980500Y-79692352D01*
X108980500Y-79487648D01*
X108948477Y-79285466D01*
X108885220Y-79090781D01*
X108885218Y-79090778D01*
X108885218Y-79090776D01*
X108810899Y-78944919D01*
X108792287Y-78908390D01*
X108752168Y-78853170D01*
X108671971Y-78742786D01*
X108527213Y-78598028D01*
X108361611Y-78477713D01*
X108268369Y-78430203D01*
X108217574Y-78382229D01*
X108200779Y-78314407D01*
X108223317Y-78248273D01*
X108268371Y-78209234D01*
X108361347Y-78161861D01*
X108526894Y-78041582D01*
X108526895Y-78041582D01*
X108671582Y-77896895D01*
X108671582Y-77896894D01*
X108791859Y-77731349D01*
X108884755Y-77549029D01*
X108947990Y-77354413D01*
X108956609Y-77300000D01*
X108113012Y-77300000D01*
X108145925Y-77242993D01*
X108180000Y-77115826D01*
X108180000Y-76984174D01*
X108145925Y-76857007D01*
X108113012Y-76800000D01*
X108956609Y-76800000D01*
X108947990Y-76745588D01*
X108930845Y-76692819D01*
X108928850Y-76622977D01*
X108964930Y-76563144D01*
X109027631Y-76532316D01*
X109048776Y-76530500D01*
X119987770Y-76530500D01*
X120054809Y-76550185D01*
G37*
%TD.AperFunction*%
%TA.AperFunction,Conductor*%
G36*
X100982539Y-76550185D02*
G01*
X101028294Y-76602989D01*
X101039500Y-76654500D01*
X101039500Y-77860001D01*
X101039501Y-77860018D01*
X101050000Y-77962796D01*
X101050001Y-77962799D01*
X101105115Y-78129119D01*
X101105186Y-78129334D01*
X101197096Y-78278345D01*
X101197289Y-78278657D01*
X101326451Y-78407819D01*
X101324559Y-78409710D01*
X101357774Y-78456583D01*
X101364500Y-78496867D01*
X101364500Y-80732169D01*
X101344815Y-80799208D01*
X101292011Y-80844963D01*
X101278823Y-80850098D01*
X101249577Y-80859600D01*
X101191583Y-80878444D01*
X101002179Y-80974951D01*
X100830213Y-81099890D01*
X100679890Y-81250213D01*
X100554949Y-81422182D01*
X100550202Y-81431499D01*
X100502227Y-81482293D01*
X100434405Y-81499087D01*
X100368271Y-81476548D01*
X100329234Y-81431495D01*
X100324626Y-81422452D01*
X100285270Y-81368282D01*
X100285269Y-81368282D01*
X99652962Y-82000590D01*
X99635925Y-81937007D01*
X99570099Y-81822993D01*
X99477007Y-81729901D01*
X99362993Y-81664075D01*
X99299409Y-81647037D01*
X99931716Y-81014728D01*
X99877550Y-80975375D01*
X99688217Y-80878904D01*
X99486129Y-80813242D01*
X99276246Y-80780000D01*
X99063754Y-80780000D01*
X98853872Y-80813242D01*
X98853869Y-80813242D01*
X98651782Y-80878904D01*
X98462439Y-80975380D01*
X98408282Y-81014727D01*
X98408282Y-81014728D01*
X99040591Y-81647037D01*
X98977007Y-81664075D01*
X98862993Y-81729901D01*
X98769901Y-81822993D01*
X98704075Y-81937007D01*
X98687037Y-82000591D01*
X98054728Y-81368282D01*
X98054727Y-81368282D01*
X98015380Y-81422440D01*
X98015376Y-81422446D01*
X98010760Y-81431505D01*
X97962781Y-81482297D01*
X97894959Y-81499087D01*
X97828826Y-81476543D01*
X97789794Y-81431493D01*
X97785051Y-81422184D01*
X97785049Y-81422181D01*
X97785048Y-81422179D01*
X97660109Y-81250213D01*
X97563498Y-81153602D01*
X97509792Y-81099896D01*
X97428226Y-81040635D01*
X97425017Y-81037955D01*
X97407826Y-81012248D01*
X97388949Y-80987767D01*
X97387969Y-80982553D01*
X97386179Y-80979875D01*
X97386040Y-80972280D01*
X97380500Y-80942779D01*
X97380500Y-80116946D01*
X97382883Y-80092754D01*
X97383586Y-80089223D01*
X97410500Y-79953918D01*
X97410500Y-79806083D01*
X97410500Y-79536082D01*
X97410500Y-79536079D01*
X97381659Y-79391092D01*
X97381658Y-79391091D01*
X97381658Y-79391087D01*
X97381656Y-79391082D01*
X97325087Y-79254511D01*
X97325080Y-79254498D01*
X97242951Y-79131584D01*
X97242948Y-79131580D01*
X97138419Y-79027051D01*
X97138415Y-79027048D01*
X97015501Y-78944919D01*
X97015488Y-78944912D01*
X96878915Y-78888342D01*
X96878910Y-78888341D01*
X96860622Y-78884703D01*
X96843866Y-78875937D01*
X96825389Y-78871918D01*
X96800346Y-78853170D01*
X96798712Y-78852316D01*
X96797135Y-78850767D01*
X96743364Y-78796996D01*
X96709879Y-78735673D01*
X96714863Y-78665981D01*
X96743364Y-78621633D01*
X96775000Y-78589997D01*
X96775000Y-77440000D01*
X97275000Y-77440000D01*
X97275000Y-78589999D01*
X97399972Y-78589999D01*
X97399986Y-78589998D01*
X97502697Y-78579505D01*
X97669119Y-78524358D01*
X97669124Y-78524356D01*
X97818345Y-78432315D01*
X97942317Y-78308343D01*
X97998713Y-78216911D01*
X98050661Y-78170186D01*
X98119623Y-78158963D01*
X98183706Y-78186807D01*
X98209791Y-78216911D01*
X98247682Y-78278343D01*
X98371654Y-78402315D01*
X98520875Y-78494356D01*
X98520880Y-78494358D01*
X98687302Y-78549505D01*
X98687309Y-78549506D01*
X98790019Y-78559999D01*
X98914999Y-78559999D01*
X99415000Y-78559999D01*
X99539972Y-78559999D01*
X99539986Y-78559998D01*
X99642697Y-78549505D01*
X99809119Y-78494358D01*
X99809124Y-78494356D01*
X99958345Y-78402315D01*
X100082315Y-78278345D01*
X100174356Y-78129124D01*
X100174358Y-78129119D01*
X100229505Y-77962697D01*
X100229506Y-77962690D01*
X100239999Y-77859986D01*
X100240000Y-77859973D01*
X100240000Y-77410000D01*
X99415000Y-77410000D01*
X99415000Y-78559999D01*
X98914999Y-78559999D01*
X98915000Y-78559998D01*
X98915000Y-77410000D01*
X98224747Y-77410000D01*
X98174996Y-77437166D01*
X98148638Y-77440000D01*
X97275000Y-77440000D01*
X96775000Y-77440000D01*
X95950001Y-77440000D01*
X95950001Y-77704271D01*
X95930316Y-77771310D01*
X95877512Y-77817065D01*
X95808354Y-77827009D01*
X95744798Y-77797984D01*
X95738320Y-77791952D01*
X95224048Y-77277680D01*
X95190563Y-77216357D01*
X95195547Y-77146665D01*
X95224046Y-77102320D01*
X95738319Y-76588048D01*
X95799642Y-76554563D01*
X95869334Y-76559547D01*
X95925267Y-76601419D01*
X95949684Y-76666883D01*
X95950000Y-76675729D01*
X95950000Y-76940000D01*
X97965253Y-76940000D01*
X98015004Y-76912834D01*
X98041362Y-76910000D01*
X100239999Y-76910000D01*
X100239999Y-76654500D01*
X100259684Y-76587461D01*
X100312488Y-76541706D01*
X100363999Y-76530500D01*
X100915500Y-76530500D01*
X100982539Y-76550185D01*
G37*
%TD.AperFunction*%
%TA.AperFunction,Conductor*%
G36*
X144772539Y-65730185D02*
G01*
X144818294Y-65782989D01*
X144829500Y-65834500D01*
X144829500Y-117535500D01*
X144809815Y-117602539D01*
X144757011Y-117648294D01*
X144705500Y-117659500D01*
X90324500Y-117659500D01*
X90257461Y-117639815D01*
X90211706Y-117587011D01*
X90200500Y-117535500D01*
X90200500Y-114222989D01*
X91207174Y-114222989D01*
X91207174Y-114517010D01*
X91225987Y-114659899D01*
X91245550Y-114808492D01*
X91252082Y-114832869D01*
X91321643Y-115092478D01*
X91434149Y-115364093D01*
X91434156Y-115364108D01*
X91581156Y-115618720D01*
X91760134Y-115851969D01*
X91760140Y-115851976D01*
X91968023Y-116059859D01*
X91968030Y-116059865D01*
X92201279Y-116238843D01*
X92455891Y-116385843D01*
X92455906Y-116385850D01*
X92596372Y-116444032D01*
X92727520Y-116498356D01*
X93011508Y-116574450D01*
X93302997Y-116612826D01*
X93303004Y-116612826D01*
X93596996Y-116612826D01*
X93597003Y-116612826D01*
X93888492Y-116574450D01*
X94172480Y-116498356D01*
X94444105Y-116385845D01*
X94698721Y-116238843D01*
X94931971Y-116059864D01*
X95139864Y-115851971D01*
X95318843Y-115618721D01*
X95465845Y-115364105D01*
X95578356Y-115092480D01*
X95654450Y-114808492D01*
X95692826Y-114517003D01*
X95692826Y-114392169D01*
X139334450Y-114392169D01*
X139334450Y-114687830D01*
X139334451Y-114687846D01*
X139373042Y-114980978D01*
X139449569Y-115266581D01*
X139562715Y-115539738D01*
X139562719Y-115539748D01*
X139710553Y-115795804D01*
X139890547Y-116030377D01*
X139890553Y-116030384D01*
X140099615Y-116239446D01*
X140099622Y-116239452D01*
X140334195Y-116419446D01*
X140590251Y-116567280D01*
X140590252Y-116567280D01*
X140590255Y-116567282D01*
X140700206Y-116612825D01*
X140863418Y-116680430D01*
X140863419Y-116680430D01*
X140863421Y-116680431D01*
X141149020Y-116756957D01*
X141442163Y-116795550D01*
X141442170Y-116795550D01*
X141737830Y-116795550D01*
X141737837Y-116795550D01*
X142030980Y-116756957D01*
X142316579Y-116680431D01*
X142589745Y-116567282D01*
X142845805Y-116419446D01*
X143080379Y-116239451D01*
X143289451Y-116030379D01*
X143469446Y-115795805D01*
X143617282Y-115539745D01*
X143730431Y-115266579D01*
X143806957Y-114980980D01*
X143845550Y-114687837D01*
X143845550Y-114392163D01*
X143806957Y-114099020D01*
X143730431Y-113813421D01*
X143617282Y-113540255D01*
X143551148Y-113425708D01*
X143469446Y-113284195D01*
X143289452Y-113049622D01*
X143289446Y-113049615D01*
X143080384Y-112840553D01*
X143080377Y-112840547D01*
X142845804Y-112660553D01*
X142589748Y-112512719D01*
X142589738Y-112512715D01*
X142316581Y-112399569D01*
X142030978Y-112323042D01*
X141737846Y-112284451D01*
X141737843Y-112284450D01*
X141737837Y-112284450D01*
X141442163Y-112284450D01*
X141442157Y-112284450D01*
X141442153Y-112284451D01*
X141149021Y-112323042D01*
X140863418Y-112399569D01*
X140590261Y-112512715D01*
X140590251Y-112512719D01*
X140334195Y-112660553D01*
X140099622Y-112840547D01*
X140099615Y-112840553D01*
X139890553Y-113049615D01*
X139890547Y-113049622D01*
X139710553Y-113284195D01*
X139562719Y-113540251D01*
X139562715Y-113540261D01*
X139449569Y-113813418D01*
X139373042Y-114099021D01*
X139334451Y-114392153D01*
X139334450Y-114392169D01*
X95692826Y-114392169D01*
X95692826Y-114222997D01*
X95654450Y-113931508D01*
X95578356Y-113647520D01*
X95504957Y-113470320D01*
X95465850Y-113375906D01*
X95465843Y-113375891D01*
X95318843Y-113121279D01*
X95139865Y-112888030D01*
X95139859Y-112888023D01*
X94931976Y-112680140D01*
X94931969Y-112680134D01*
X94698720Y-112501156D01*
X94444108Y-112354156D01*
X94444093Y-112354149D01*
X94172478Y-112241643D01*
X93995434Y-112194205D01*
X93888492Y-112165550D01*
X93823716Y-112157022D01*
X93597010Y-112127174D01*
X93597003Y-112127174D01*
X93302997Y-112127174D01*
X93302989Y-112127174D01*
X93052220Y-112160190D01*
X93011508Y-112165550D01*
X92973001Y-112175868D01*
X92727521Y-112241643D01*
X92455906Y-112354149D01*
X92455891Y-112354156D01*
X92201279Y-112501156D01*
X91968030Y-112680134D01*
X91968023Y-112680140D01*
X91760140Y-112888023D01*
X91760134Y-112888030D01*
X91581156Y-113121279D01*
X91434156Y-113375891D01*
X91434149Y-113375906D01*
X91321643Y-113647521D01*
X91245550Y-113931509D01*
X91207174Y-114222989D01*
X90200500Y-114222989D01*
X90200500Y-111489983D01*
X126414500Y-111489983D01*
X126414500Y-112890001D01*
X126414501Y-112890018D01*
X126425000Y-112992796D01*
X126425001Y-112992799D01*
X126464004Y-113110500D01*
X126480186Y-113159334D01*
X126572288Y-113308656D01*
X126696344Y-113432712D01*
X126845666Y-113524814D01*
X127012203Y-113579999D01*
X127114991Y-113590500D01*
X127865008Y-113590499D01*
X127865016Y-113590498D01*
X127865019Y-113590498D01*
X127921302Y-113584748D01*
X127967797Y-113579999D01*
X128134334Y-113524814D01*
X128283656Y-113432712D01*
X128407712Y-113308656D01*
X128499814Y-113159334D01*
X128554999Y-112992797D01*
X128565500Y-112890009D01*
X128565500Y-112889986D01*
X129365001Y-112889986D01*
X129375494Y-112992697D01*
X129430641Y-113159119D01*
X129430643Y-113159124D01*
X129522684Y-113308345D01*
X129646654Y-113432315D01*
X129795875Y-113524356D01*
X129795880Y-113524358D01*
X129962302Y-113579505D01*
X129962309Y-113579506D01*
X130065019Y-113589999D01*
X130189999Y-113589999D01*
X130690000Y-113589999D01*
X130814972Y-113589999D01*
X130814986Y-113589998D01*
X130917697Y-113579505D01*
X131084119Y-113524358D01*
X131084124Y-113524356D01*
X131233345Y-113432315D01*
X131357315Y-113308345D01*
X131449356Y-113159124D01*
X131449358Y-113159119D01*
X131504505Y-112992697D01*
X131504506Y-112992690D01*
X131514999Y-112889986D01*
X131515000Y-112889973D01*
X131515000Y-112440000D01*
X130690000Y-112440000D01*
X130690000Y-113589999D01*
X130189999Y-113589999D01*
X130190000Y-113589998D01*
X130190000Y-112440000D01*
X129365001Y-112440000D01*
X129365001Y-112889986D01*
X128565500Y-112889986D01*
X128565499Y-112227228D01*
X128585184Y-112160190D01*
X128601813Y-112139553D01*
X129153319Y-111588048D01*
X129214642Y-111554563D01*
X129284334Y-111559547D01*
X129340267Y-111601419D01*
X129364684Y-111666883D01*
X129365000Y-111675729D01*
X129365000Y-111940000D01*
X131514999Y-111940000D01*
X131514999Y-111655100D01*
X131534684Y-111588061D01*
X131587488Y-111542306D01*
X131638999Y-111531100D01*
X132768370Y-111531100D01*
X132835409Y-111550785D01*
X132856051Y-111567419D01*
X133223181Y-111934548D01*
X133256666Y-111995871D01*
X133259500Y-112022229D01*
X133259500Y-112410001D01*
X133259501Y-112410019D01*
X133270000Y-112512796D01*
X133270001Y-112512799D01*
X133325185Y-112679331D01*
X133325187Y-112679336D01*
X133325683Y-112680140D01*
X133417288Y-112828656D01*
X133541344Y-112952712D01*
X133690666Y-113044814D01*
X133857203Y-113099999D01*
X133959991Y-113110500D01*
X134760008Y-113110499D01*
X134760016Y-113110498D01*
X134760019Y-113110498D01*
X134816302Y-113104748D01*
X134862797Y-113099999D01*
X135029334Y-113044814D01*
X135178656Y-112952712D01*
X135185079Y-112946289D01*
X135777261Y-112946289D01*
X135777262Y-112946290D01*
X135783471Y-112950801D01*
X135937742Y-113029408D01*
X136102415Y-113082914D01*
X136273429Y-113110000D01*
X136446571Y-113110000D01*
X136617584Y-113082914D01*
X136782257Y-113029408D01*
X136936525Y-112950803D01*
X136942736Y-112946289D01*
X136942737Y-112946289D01*
X136360001Y-112363553D01*
X136360000Y-112363553D01*
X135777261Y-112946289D01*
X135185079Y-112946289D01*
X135302712Y-112828656D01*
X135394814Y-112679334D01*
X135414167Y-112620930D01*
X135444191Y-112572254D01*
X136006446Y-112010000D01*
X136006446Y-112009999D01*
X135966951Y-111970504D01*
X136060000Y-111970504D01*
X136060000Y-112049496D01*
X136080444Y-112125796D01*
X136119940Y-112194205D01*
X136175795Y-112250060D01*
X136244204Y-112289556D01*
X136320504Y-112310000D01*
X136399496Y-112310000D01*
X136475796Y-112289556D01*
X136544205Y-112250060D01*
X136600060Y-112194205D01*
X136639556Y-112125796D01*
X136660000Y-112049496D01*
X136660000Y-112009999D01*
X136713553Y-112009999D01*
X136713553Y-112010000D01*
X137296289Y-112592736D01*
X137300803Y-112586525D01*
X137379408Y-112432257D01*
X137432914Y-112267584D01*
X137460000Y-112096571D01*
X137460000Y-111923428D01*
X137432914Y-111752415D01*
X137379408Y-111587742D01*
X137300801Y-111433471D01*
X137296290Y-111427262D01*
X137296289Y-111427261D01*
X136713553Y-112009999D01*
X136660000Y-112009999D01*
X136660000Y-111970504D01*
X136639556Y-111894204D01*
X136600060Y-111825795D01*
X136544205Y-111769940D01*
X136475796Y-111730444D01*
X136399496Y-111710000D01*
X136320504Y-111710000D01*
X136244204Y-111730444D01*
X136175795Y-111769940D01*
X136119940Y-111825795D01*
X136080444Y-111894204D01*
X136060000Y-111970504D01*
X135966951Y-111970504D01*
X135444190Y-111447743D01*
X135414166Y-111399066D01*
X135394814Y-111340666D01*
X135302712Y-111191344D01*
X135185076Y-111073708D01*
X135777261Y-111073708D01*
X135777261Y-111073709D01*
X136360000Y-111656446D01*
X136360001Y-111656446D01*
X136942737Y-111073709D01*
X136936525Y-111069196D01*
X136782259Y-110990592D01*
X136617584Y-110937085D01*
X136446571Y-110910000D01*
X136273429Y-110910000D01*
X136102415Y-110937085D01*
X135937740Y-110990592D01*
X135783480Y-111069193D01*
X135783463Y-111069203D01*
X135777261Y-111073708D01*
X135185076Y-111073708D01*
X135178656Y-111067288D01*
X135029334Y-110975186D01*
X134862797Y-110920001D01*
X134862795Y-110920000D01*
X134760016Y-110909500D01*
X134760009Y-110909500D01*
X134372230Y-110909500D01*
X134305191Y-110889815D01*
X134284549Y-110873181D01*
X133609021Y-110197652D01*
X133609014Y-110197646D01*
X133535329Y-110148412D01*
X133535329Y-110148413D01*
X133486091Y-110115513D01*
X133349517Y-110058943D01*
X133349507Y-110058940D01*
X133204520Y-110030100D01*
X133204518Y-110030100D01*
X128825482Y-110030100D01*
X128825476Y-110030100D01*
X128796642Y-110035834D01*
X128796643Y-110035835D01*
X128680493Y-110058939D01*
X128680483Y-110058942D01*
X128600481Y-110092079D01*
X128600482Y-110092080D01*
X128543905Y-110115515D01*
X128461772Y-110170395D01*
X128420985Y-110197647D01*
X128420981Y-110197650D01*
X127865450Y-110753181D01*
X127804127Y-110786666D01*
X127777769Y-110789500D01*
X127114998Y-110789500D01*
X127114980Y-110789501D01*
X127012203Y-110800000D01*
X127012200Y-110800001D01*
X126845668Y-110855185D01*
X126845663Y-110855187D01*
X126696342Y-110947289D01*
X126572289Y-111071342D01*
X126480187Y-111220663D01*
X126480186Y-111220666D01*
X126425001Y-111387203D01*
X126425001Y-111387204D01*
X126425000Y-111387204D01*
X126414500Y-111489983D01*
X90200500Y-111489983D01*
X90200500Y-106942155D01*
X96220000Y-106942155D01*
X96220000Y-107640000D01*
X97244722Y-107640000D01*
X97200667Y-107716306D01*
X97170000Y-107830756D01*
X97170000Y-107949244D01*
X97200667Y-108063694D01*
X97244722Y-108140000D01*
X96220000Y-108140000D01*
X96220000Y-108837844D01*
X96226401Y-108897372D01*
X96226403Y-108897379D01*
X96276645Y-109032086D01*
X96276649Y-109032093D01*
X96362809Y-109147187D01*
X96362812Y-109147190D01*
X96477906Y-109233350D01*
X96477913Y-109233354D01*
X96612620Y-109283596D01*
X96612627Y-109283598D01*
X96672155Y-109289999D01*
X96672172Y-109290000D01*
X97370000Y-109290000D01*
X97370000Y-108265277D01*
X97446306Y-108309333D01*
X97560756Y-108340000D01*
X97679244Y-108340000D01*
X97793694Y-108309333D01*
X97870000Y-108265277D01*
X97870000Y-109290000D01*
X98567828Y-109290000D01*
X98567844Y-109289999D01*
X98627372Y-109283598D01*
X98627379Y-109283596D01*
X98762086Y-109233354D01*
X98762093Y-109233350D01*
X98877187Y-109147190D01*
X98877190Y-109147187D01*
X98963350Y-109032093D01*
X98963354Y-109032086D01*
X98993213Y-108952031D01*
X99035084Y-108896097D01*
X99100548Y-108871680D01*
X99168821Y-108886531D01*
X99197076Y-108907683D01*
X99247636Y-108958243D01*
X99247641Y-108958247D01*
X99402217Y-109070552D01*
X99425978Y-109087815D01*
X99542501Y-109147187D01*
X99622393Y-109187895D01*
X99622396Y-109187896D01*
X99727221Y-109221955D01*
X99832049Y-109256015D01*
X100049778Y-109290500D01*
X100049779Y-109290500D01*
X100270221Y-109290500D01*
X100270222Y-109290500D01*
X100487951Y-109256015D01*
X100697606Y-109187895D01*
X100894022Y-109087815D01*
X101072365Y-108958242D01*
X101228242Y-108802365D01*
X101357815Y-108624022D01*
X101457895Y-108427606D01*
X101526015Y-108217951D01*
X101560500Y-108000222D01*
X101560500Y-107779778D01*
X101526015Y-107562049D01*
X101491955Y-107457221D01*
X101457896Y-107352396D01*
X101457895Y-107352393D01*
X101423237Y-107284375D01*
X101357815Y-107155978D01*
X101341260Y-107133192D01*
X101228247Y-106977641D01*
X101228243Y-106977636D01*
X101072367Y-106821760D01*
X101072365Y-106821758D01*
X100961613Y-106741291D01*
X100918949Y-106685963D01*
X100910500Y-106640975D01*
X100910500Y-102223585D01*
X100930185Y-102156546D01*
X100982989Y-102110791D01*
X100995489Y-102105881D01*
X101104334Y-102069814D01*
X101253656Y-101977712D01*
X101377712Y-101853656D01*
X101469814Y-101704334D01*
X101524999Y-101537797D01*
X101535500Y-101435009D01*
X101535499Y-100709992D01*
X101524999Y-100607203D01*
X101469814Y-100440666D01*
X101377712Y-100291344D01*
X101253656Y-100167288D01*
X101104334Y-100075186D01*
X101055504Y-100059005D01*
X100998060Y-100019233D01*
X100971237Y-99954717D01*
X100983552Y-99885942D01*
X101031095Y-99834742D01*
X101094509Y-99817300D01*
X101153218Y-99817300D01*
X102518696Y-99817300D01*
X102566144Y-99826737D01*
X102589803Y-99836537D01*
X102589808Y-99836538D01*
X102589811Y-99836539D01*
X102744453Y-99867299D01*
X102744456Y-99867300D01*
X102744458Y-99867300D01*
X102902144Y-99867300D01*
X102902145Y-99867299D01*
X103056797Y-99836537D01*
X103202479Y-99776194D01*
X103333589Y-99688589D01*
X103445089Y-99577089D01*
X103532694Y-99445979D01*
X103593037Y-99300297D01*
X103623800Y-99145642D01*
X103623800Y-98987958D01*
X103623800Y-98987955D01*
X103623799Y-98987953D01*
X103593038Y-98833310D01*
X103593037Y-98833303D01*
X103578295Y-98797713D01*
X103532697Y-98687627D01*
X103532690Y-98687614D01*
X103445089Y-98556511D01*
X103445086Y-98556507D01*
X103333592Y-98445013D01*
X103333588Y-98445010D01*
X103202485Y-98357409D01*
X103202472Y-98357402D01*
X103056801Y-98297064D01*
X103056789Y-98297061D01*
X102902145Y-98266300D01*
X102902142Y-98266300D01*
X102744458Y-98266300D01*
X102744455Y-98266300D01*
X102589811Y-98297060D01*
X102589806Y-98297062D01*
X102589804Y-98297062D01*
X102589803Y-98297063D01*
X102566144Y-98306862D01*
X102518696Y-98316300D01*
X101659500Y-98316300D01*
X101592461Y-98296615D01*
X101546706Y-98243811D01*
X101535500Y-98192300D01*
X101535499Y-97784998D01*
X101535498Y-97784980D01*
X101524999Y-97682203D01*
X101524998Y-97682200D01*
X101522458Y-97674534D01*
X101469814Y-97515666D01*
X101377712Y-97366344D01*
X101253656Y-97242288D01*
X101104334Y-97150186D01*
X100937797Y-97095001D01*
X100937795Y-97095000D01*
X100835010Y-97084500D01*
X99484998Y-97084500D01*
X99484981Y-97084501D01*
X99382203Y-97095000D01*
X99382200Y-97095001D01*
X99215668Y-97150185D01*
X99215663Y-97150187D01*
X99066342Y-97242289D01*
X98942289Y-97366342D01*
X98850187Y-97515663D01*
X98850186Y-97515666D01*
X98795001Y-97682203D01*
X98795001Y-97682204D01*
X98795000Y-97682204D01*
X98784500Y-97784983D01*
X98784500Y-98510001D01*
X98784501Y-98510019D01*
X98795000Y-98612796D01*
X98795001Y-98612799D01*
X98805775Y-98645311D01*
X98850186Y-98779334D01*
X98942288Y-98928656D01*
X99066344Y-99052712D01*
X99215666Y-99144814D01*
X99382203Y-99199999D01*
X99484991Y-99210500D01*
X100110270Y-99210499D01*
X100177309Y-99230183D01*
X100197951Y-99246818D01*
X100496349Y-99545216D01*
X100600884Y-99649751D01*
X100600887Y-99649753D01*
X100600888Y-99649754D01*
X100723803Y-99731883D01*
X100723806Y-99731885D01*
X100780377Y-99755317D01*
X100780380Y-99755318D01*
X100818092Y-99770939D01*
X100872495Y-99814780D01*
X100894560Y-99881075D01*
X100877281Y-99948774D01*
X100826143Y-99996384D01*
X100770639Y-100009500D01*
X99484998Y-100009500D01*
X99484981Y-100009501D01*
X99382203Y-100020000D01*
X99382200Y-100020001D01*
X99215668Y-100075185D01*
X99215663Y-100075187D01*
X99066342Y-100167289D01*
X98942289Y-100291342D01*
X98850187Y-100440663D01*
X98850185Y-100440668D01*
X98844295Y-100458443D01*
X98795001Y-100607203D01*
X98795001Y-100607204D01*
X98795000Y-100607204D01*
X98784500Y-100709983D01*
X98784500Y-101435001D01*
X98784501Y-101435019D01*
X98795000Y-101537796D01*
X98795001Y-101537799D01*
X98850185Y-101704331D01*
X98850187Y-101704336D01*
X98885069Y-101760888D01*
X98942288Y-101853656D01*
X99066344Y-101977712D01*
X99215666Y-102069814D01*
X99324505Y-102105879D01*
X99381949Y-102145652D01*
X99408772Y-102210167D01*
X99409500Y-102223585D01*
X99409500Y-106640975D01*
X99408961Y-106642810D01*
X99409445Y-106644660D01*
X99399157Y-106676195D01*
X99389815Y-106708014D01*
X99388182Y-106709842D01*
X99387777Y-106711085D01*
X99379225Y-106719873D01*
X99363882Y-106737059D01*
X99361186Y-106739257D01*
X99247635Y-106821758D01*
X99192645Y-106876747D01*
X99187777Y-106880719D01*
X99161130Y-106891943D01*
X99135752Y-106905801D01*
X99129325Y-106905341D01*
X99123387Y-106907843D01*
X99094897Y-106902878D01*
X99066060Y-106900816D01*
X99060902Y-106896955D01*
X99054555Y-106895849D01*
X99033278Y-106876276D01*
X99010127Y-106858945D01*
X99005774Y-106850974D01*
X99003134Y-106848545D01*
X99001924Y-106843923D01*
X98993213Y-106827968D01*
X98963354Y-106747913D01*
X98963350Y-106747906D01*
X98877190Y-106632812D01*
X98877187Y-106632809D01*
X98762093Y-106546649D01*
X98762086Y-106546645D01*
X98627379Y-106496403D01*
X98627372Y-106496401D01*
X98567844Y-106490000D01*
X97870000Y-106490000D01*
X97870000Y-107514722D01*
X97793694Y-107470667D01*
X97679244Y-107440000D01*
X97560756Y-107440000D01*
X97446306Y-107470667D01*
X97370000Y-107514722D01*
X97370000Y-106490000D01*
X96672155Y-106490000D01*
X96612627Y-106496401D01*
X96612620Y-106496403D01*
X96477913Y-106546645D01*
X96477906Y-106546649D01*
X96362812Y-106632809D01*
X96362809Y-106632812D01*
X96276649Y-106747906D01*
X96276645Y-106747913D01*
X96226403Y-106882620D01*
X96226401Y-106882627D01*
X96220000Y-106942155D01*
X90200500Y-106942155D01*
X90200500Y-81232135D01*
X92739500Y-81232135D01*
X92739500Y-83027870D01*
X92739501Y-83027876D01*
X92745908Y-83087483D01*
X92796202Y-83222328D01*
X92796206Y-83222335D01*
X92882452Y-83337544D01*
X92882455Y-83337547D01*
X92997664Y-83423793D01*
X92997671Y-83423797D01*
X93132517Y-83474091D01*
X93132516Y-83474091D01*
X93139444Y-83474835D01*
X93192127Y-83480500D01*
X94987872Y-83480499D01*
X95047483Y-83474091D01*
X95182331Y-83423796D01*
X95297546Y-83337546D01*
X95383796Y-83222331D01*
X95432810Y-83090916D01*
X95474681Y-83034984D01*
X95540145Y-83010566D01*
X95608418Y-83025417D01*
X95636673Y-83046569D01*
X95750213Y-83160109D01*
X95922179Y-83285048D01*
X95922181Y-83285049D01*
X95922184Y-83285051D01*
X96111588Y-83381557D01*
X96313757Y-83447246D01*
X96523713Y-83480500D01*
X96523714Y-83480500D01*
X96736286Y-83480500D01*
X96736287Y-83480500D01*
X96946243Y-83447246D01*
X97148412Y-83381557D01*
X97337816Y-83285051D01*
X97424138Y-83222335D01*
X97509786Y-83160109D01*
X97509788Y-83160106D01*
X97509792Y-83160104D01*
X97660104Y-83009792D01*
X97660106Y-83009788D01*
X97660109Y-83009786D01*
X97745890Y-82891717D01*
X97785051Y-82837816D01*
X97789793Y-82828508D01*
X97837763Y-82777711D01*
X97905583Y-82760911D01*
X97971719Y-82783445D01*
X98010763Y-82828500D01*
X98015373Y-82837547D01*
X98054728Y-82891716D01*
X98687037Y-82259408D01*
X98704075Y-82322993D01*
X98769901Y-82437007D01*
X98862993Y-82530099D01*
X98977007Y-82595925D01*
X99040590Y-82612962D01*
X98408282Y-83245269D01*
X98408282Y-83245270D01*
X98462449Y-83284624D01*
X98651782Y-83381095D01*
X98853870Y-83446757D01*
X99063754Y-83480000D01*
X99276246Y-83480000D01*
X99486127Y-83446757D01*
X99486130Y-83446757D01*
X99688217Y-83381095D01*
X99877554Y-83284622D01*
X99931716Y-83245270D01*
X99931717Y-83245270D01*
X99299408Y-82612962D01*
X99362993Y-82595925D01*
X99477007Y-82530099D01*
X99570099Y-82437007D01*
X99635925Y-82322993D01*
X99652962Y-82259408D01*
X100285270Y-82891717D01*
X100285270Y-82891716D01*
X100324622Y-82837555D01*
X100329232Y-82828507D01*
X100377205Y-82777709D01*
X100445025Y-82760912D01*
X100511161Y-82783447D01*
X100550204Y-82828504D01*
X100554949Y-82837817D01*
X100679890Y-83009786D01*
X100830213Y-83160109D01*
X101002179Y-83285048D01*
X101002181Y-83285049D01*
X101002184Y-83285051D01*
X101191588Y-83381557D01*
X101393757Y-83447246D01*
X101603713Y-83480500D01*
X101603714Y-83480500D01*
X101816286Y-83480500D01*
X101816287Y-83480500D01*
X102026243Y-83447246D01*
X102228412Y-83381557D01*
X102417816Y-83285051D01*
X102504138Y-83222335D01*
X102589786Y-83160109D01*
X102589788Y-83160106D01*
X102589792Y-83160104D01*
X102740104Y-83009792D01*
X102740106Y-83009788D01*
X102740109Y-83009786D01*
X102865048Y-82837820D01*
X102865047Y-82837820D01*
X102865051Y-82837816D01*
X102961557Y-82648412D01*
X103027246Y-82446243D01*
X103060500Y-82236287D01*
X103060500Y-82023713D01*
X103027246Y-81813757D01*
X102961557Y-81611588D01*
X102892751Y-81476548D01*
X102879015Y-81449589D01*
X102865500Y-81393294D01*
X102865500Y-78496867D01*
X102885185Y-78429828D01*
X102904386Y-78408656D01*
X102903549Y-78407819D01*
X102929139Y-78382229D01*
X103032712Y-78278656D01*
X103124814Y-78129334D01*
X103179999Y-77962797D01*
X103190500Y-77860009D01*
X103190499Y-76654499D01*
X103210184Y-76587461D01*
X103262987Y-76541706D01*
X103314499Y-76530500D01*
X106311224Y-76530500D01*
X106378263Y-76550185D01*
X106424018Y-76602989D01*
X106433962Y-76672147D01*
X106429155Y-76692819D01*
X106412009Y-76745588D01*
X106403391Y-76800000D01*
X107246988Y-76800000D01*
X107214075Y-76857007D01*
X107180000Y-76984174D01*
X107180000Y-77115826D01*
X107214075Y-77242993D01*
X107246988Y-77300000D01*
X106403391Y-77300000D01*
X106412009Y-77354413D01*
X106475244Y-77549029D01*
X106568140Y-77731349D01*
X106688417Y-77896894D01*
X106688417Y-77896895D01*
X106833104Y-78041582D01*
X106998652Y-78161861D01*
X107091628Y-78209234D01*
X107142425Y-78257208D01*
X107159220Y-78325029D01*
X107136683Y-78391164D01*
X107091630Y-78430203D01*
X106998388Y-78477713D01*
X106832786Y-78598028D01*
X106688028Y-78742786D01*
X106567715Y-78908386D01*
X106474781Y-79090776D01*
X106411522Y-79285465D01*
X106379500Y-79487648D01*
X106379500Y-79692351D01*
X106411522Y-79894534D01*
X106474781Y-80089223D01*
X106567715Y-80271613D01*
X106688028Y-80437213D01*
X106832786Y-80581971D01*
X106987749Y-80694556D01*
X106998390Y-80702287D01*
X107057037Y-80732169D01*
X107091080Y-80749515D01*
X107141876Y-80797490D01*
X107158671Y-80865311D01*
X107136134Y-80931446D01*
X107091080Y-80970485D01*
X106998386Y-81017715D01*
X106832786Y-81138028D01*
X106688028Y-81282786D01*
X106567715Y-81448386D01*
X106474781Y-81630776D01*
X106411522Y-81825465D01*
X106379500Y-82027648D01*
X106379500Y-82232351D01*
X106411522Y-82434534D01*
X106474781Y-82629223D01*
X106567715Y-82811613D01*
X106688028Y-82977213D01*
X106832786Y-83121971D01*
X106970928Y-83222335D01*
X106998390Y-83242287D01*
X107081477Y-83284622D01*
X107091080Y-83289515D01*
X107141876Y-83337490D01*
X107158671Y-83405311D01*
X107136134Y-83471446D01*
X107091080Y-83510485D01*
X106998386Y-83557715D01*
X106832786Y-83678028D01*
X106688028Y-83822786D01*
X106567715Y-83988386D01*
X106474781Y-84170776D01*
X106411522Y-84365465D01*
X106379500Y-84567648D01*
X106379500Y-84772351D01*
X106411522Y-84974534D01*
X106474781Y-85169223D01*
X106567715Y-85351613D01*
X106688028Y-85517213D01*
X106832786Y-85661971D01*
X106987749Y-85774556D01*
X106998390Y-85782287D01*
X107089840Y-85828883D01*
X107091080Y-85829515D01*
X107141876Y-85877490D01*
X107158671Y-85945311D01*
X107136134Y-86011446D01*
X107091080Y-86050485D01*
X106998386Y-86097715D01*
X106832786Y-86218028D01*
X106688028Y-86362786D01*
X106567715Y-86528386D01*
X106474781Y-86710776D01*
X106411522Y-86905465D01*
X106379500Y-87107648D01*
X106379500Y-87312351D01*
X106411522Y-87514534D01*
X106474781Y-87709223D01*
X106567715Y-87891613D01*
X106688028Y-88057213D01*
X106832786Y-88201971D01*
X106987749Y-88314556D01*
X106998390Y-88322287D01*
X107089840Y-88368883D01*
X107091080Y-88369515D01*
X107141876Y-88417490D01*
X107158671Y-88485311D01*
X107136134Y-88551446D01*
X107091080Y-88590485D01*
X106998386Y-88637715D01*
X106832786Y-88758028D01*
X106688028Y-88902786D01*
X106567715Y-89068386D01*
X106474781Y-89250776D01*
X106411522Y-89445465D01*
X106379500Y-89647648D01*
X106379500Y-89852351D01*
X106411522Y-90054534D01*
X106474781Y-90249223D01*
X106567715Y-90431613D01*
X106688028Y-90597213D01*
X106832786Y-90741971D01*
X106987749Y-90854556D01*
X106998390Y-90862287D01*
X107089840Y-90908883D01*
X107091080Y-90909515D01*
X107141876Y-90957490D01*
X107158671Y-91025311D01*
X107136134Y-91091446D01*
X107091080Y-91130485D01*
X106998386Y-91177715D01*
X106832786Y-91298028D01*
X106688028Y-91442786D01*
X106567715Y-91608386D01*
X106474781Y-91790776D01*
X106411522Y-91985465D01*
X106379500Y-92187648D01*
X106379500Y-92392351D01*
X106411522Y-92594534D01*
X106474781Y-92789223D01*
X106567715Y-92971613D01*
X106688028Y-93137213D01*
X106832786Y-93281971D01*
X106987749Y-93394556D01*
X106998390Y-93402287D01*
X107089840Y-93448883D01*
X107091080Y-93449515D01*
X107141876Y-93497490D01*
X107158671Y-93565311D01*
X107136134Y-93631446D01*
X107091080Y-93670485D01*
X106998386Y-93717715D01*
X106832786Y-93838028D01*
X106688028Y-93982786D01*
X106567715Y-94148386D01*
X106474781Y-94330776D01*
X106411522Y-94525465D01*
X106379500Y-94727648D01*
X106379500Y-94932351D01*
X106411522Y-95134534D01*
X106474781Y-95329223D01*
X106528634Y-95434914D01*
X106545381Y-95467782D01*
X106567715Y-95511613D01*
X106688028Y-95677213D01*
X106832786Y-95821971D01*
X106987749Y-95934556D01*
X106998390Y-95942287D01*
X107089840Y-95988883D01*
X107091080Y-95989515D01*
X107141876Y-96037490D01*
X107158671Y-96105311D01*
X107136134Y-96171446D01*
X107091080Y-96210485D01*
X106998386Y-96257715D01*
X106832786Y-96378028D01*
X106688028Y-96522786D01*
X106567715Y-96688386D01*
X106474781Y-96870776D01*
X106411522Y-97065465D01*
X106379500Y-97267648D01*
X106379500Y-97472351D01*
X106411522Y-97674534D01*
X106474781Y-97869223D01*
X106567715Y-98051613D01*
X106688028Y-98217213D01*
X106832786Y-98361971D01*
X106947086Y-98445013D01*
X106998390Y-98482287D01*
X107089840Y-98528883D01*
X107091080Y-98529515D01*
X107141876Y-98577490D01*
X107158671Y-98645311D01*
X107136134Y-98711446D01*
X107091080Y-98750485D01*
X106998386Y-98797715D01*
X106832786Y-98918028D01*
X106688028Y-99062786D01*
X106567715Y-99228386D01*
X106474781Y-99410776D01*
X106411522Y-99605465D01*
X106379500Y-99807648D01*
X106379500Y-100012351D01*
X106411522Y-100214534D01*
X106474781Y-100409223D01*
X106528685Y-100515013D01*
X106545381Y-100547782D01*
X106567715Y-100591613D01*
X106688028Y-100757213D01*
X106832786Y-100901971D01*
X106987749Y-101014556D01*
X106998390Y-101022287D01*
X107089840Y-101068883D01*
X107091080Y-101069515D01*
X107141876Y-101117490D01*
X107158671Y-101185311D01*
X107136134Y-101251446D01*
X107091080Y-101290485D01*
X106998386Y-101337715D01*
X106832786Y-101458028D01*
X106688028Y-101602786D01*
X106567715Y-101768386D01*
X106474781Y-101950776D01*
X106411522Y-102145465D01*
X106379500Y-102347648D01*
X106379500Y-102552351D01*
X106411522Y-102754534D01*
X106428629Y-102807181D01*
X106430624Y-102877023D01*
X106394544Y-102936856D01*
X106331843Y-102967684D01*
X106310698Y-102969500D01*
X104885930Y-102969500D01*
X104818891Y-102949815D01*
X104798249Y-102933181D01*
X103569371Y-101704303D01*
X103542491Y-101664075D01*
X103532694Y-101640421D01*
X103480323Y-101562042D01*
X103445089Y-101509310D01*
X103333592Y-101397813D01*
X103333588Y-101397810D01*
X103202485Y-101310209D01*
X103202472Y-101310202D01*
X103056801Y-101249864D01*
X103056789Y-101249861D01*
X102902145Y-101219100D01*
X102902142Y-101219100D01*
X102744458Y-101219100D01*
X102744455Y-101219100D01*
X102589810Y-101249861D01*
X102589798Y-101249864D01*
X102444127Y-101310202D01*
X102444114Y-101310209D01*
X102313011Y-101397810D01*
X102313007Y-101397813D01*
X102201513Y-101509307D01*
X102201510Y-101509311D01*
X102113909Y-101640414D01*
X102113902Y-101640427D01*
X102053564Y-101786098D01*
X102053561Y-101786110D01*
X102022800Y-101940753D01*
X102022800Y-102098446D01*
X102053561Y-102253089D01*
X102053564Y-102253101D01*
X102113902Y-102398772D01*
X102113909Y-102398785D01*
X102201510Y-102529888D01*
X102201513Y-102529892D01*
X102313010Y-102641389D01*
X102444115Y-102728990D01*
X102444121Y-102728994D01*
X102467775Y-102738791D01*
X102508003Y-102765671D01*
X104045286Y-104302954D01*
X104070006Y-104319470D01*
X104118970Y-104352186D01*
X104168205Y-104385084D01*
X104204718Y-104400208D01*
X104211253Y-104402915D01*
X104211255Y-104402916D01*
X104238723Y-104414293D01*
X104304788Y-104441659D01*
X104420941Y-104464763D01*
X104440168Y-104468587D01*
X104449781Y-104470500D01*
X104449782Y-104470500D01*
X104449783Y-104470500D01*
X104597618Y-104470500D01*
X106310698Y-104470500D01*
X106377737Y-104490185D01*
X106423492Y-104542989D01*
X106433436Y-104612147D01*
X106428629Y-104632819D01*
X106411522Y-104685465D01*
X106379500Y-104887648D01*
X106379500Y-105092351D01*
X106411522Y-105294534D01*
X106474781Y-105489223D01*
X106567715Y-105671613D01*
X106688028Y-105837213D01*
X106832786Y-105981971D01*
X106987749Y-106094556D01*
X106998390Y-106102287D01*
X107111238Y-106159786D01*
X107180776Y-106195218D01*
X107180778Y-106195218D01*
X107180781Y-106195220D01*
X107285137Y-106229127D01*
X107375465Y-106258477D01*
X107476557Y-106274488D01*
X107577648Y-106290500D01*
X107577649Y-106290500D01*
X107782351Y-106290500D01*
X107782352Y-106290500D01*
X107984534Y-106258477D01*
X108179219Y-106195220D01*
X108361610Y-106102287D01*
X108527219Y-105981966D01*
X108631230Y-105877954D01*
X108692549Y-105844472D01*
X108762241Y-105849456D01*
X108806589Y-105877957D01*
X110835281Y-107906649D01*
X110890656Y-107943649D01*
X110935462Y-107997262D01*
X110944169Y-108066586D01*
X110931129Y-108105196D01*
X110929406Y-108108418D01*
X110869064Y-108254098D01*
X110869061Y-108254110D01*
X110838300Y-108408753D01*
X110838300Y-108566446D01*
X110869061Y-108721089D01*
X110869064Y-108721101D01*
X110929402Y-108866772D01*
X110929409Y-108866785D01*
X111017010Y-108997888D01*
X111017013Y-108997892D01*
X111128507Y-109109386D01*
X111128511Y-109109389D01*
X111259614Y-109196990D01*
X111259627Y-109196997D01*
X111347402Y-109233354D01*
X111405303Y-109257337D01*
X111537315Y-109283596D01*
X111559953Y-109288099D01*
X111559956Y-109288100D01*
X111559958Y-109288100D01*
X111717644Y-109288100D01*
X111717645Y-109288099D01*
X111793952Y-109272920D01*
X111872288Y-109257339D01*
X111872289Y-109257338D01*
X111872297Y-109257337D01*
X111895955Y-109247537D01*
X111943404Y-109238100D01*
X131808620Y-109238100D01*
X131906162Y-109218696D01*
X131953613Y-109209258D01*
X132090195Y-109152684D01*
X132154991Y-109109389D01*
X132154994Y-109109386D01*
X132154996Y-109109386D01*
X132184247Y-109089840D01*
X132213116Y-109070552D01*
X132455697Y-108827968D01*
X132495925Y-108801090D01*
X132519579Y-108791294D01*
X132650689Y-108703689D01*
X132762189Y-108592189D01*
X132849794Y-108461079D01*
X132910137Y-108315397D01*
X132922330Y-108254098D01*
X132938262Y-108174008D01*
X132970647Y-108112097D01*
X133031363Y-108077523D01*
X133059879Y-108074200D01*
X137500220Y-108074200D01*
X137597762Y-108054796D01*
X137645213Y-108045358D01*
X137781795Y-107988784D01*
X137831029Y-107955886D01*
X137904716Y-107906652D01*
X139161193Y-106650172D01*
X139222514Y-106616689D01*
X139268265Y-106615382D01*
X139363713Y-106630500D01*
X139363715Y-106630500D01*
X139576286Y-106630500D01*
X139576287Y-106630500D01*
X139786243Y-106597246D01*
X139988412Y-106531557D01*
X140177816Y-106435051D01*
X140279025Y-106361519D01*
X140349786Y-106310109D01*
X140349788Y-106310106D01*
X140349792Y-106310104D01*
X140500104Y-106159792D01*
X140500106Y-106159788D01*
X140500109Y-106159786D01*
X140625048Y-105987820D01*
X140625047Y-105987820D01*
X140625051Y-105987816D01*
X140721557Y-105798412D01*
X140787246Y-105596243D01*
X140820500Y-105386287D01*
X140820500Y-105173713D01*
X140787246Y-104963757D01*
X140721557Y-104761588D01*
X140625051Y-104572184D01*
X140625049Y-104572181D01*
X140625048Y-104572179D01*
X140500109Y-104400213D01*
X140349786Y-104249890D01*
X140177820Y-104124951D01*
X140177115Y-104124591D01*
X140169054Y-104120485D01*
X140118259Y-104072512D01*
X140101463Y-104004692D01*
X140123999Y-103938556D01*
X140169054Y-103899515D01*
X140177816Y-103895051D01*
X140267020Y-103830241D01*
X140349786Y-103770109D01*
X140349788Y-103770106D01*
X140349792Y-103770104D01*
X140500104Y-103619792D01*
X140500106Y-103619788D01*
X140500109Y-103619786D01*
X140625048Y-103447820D01*
X140625047Y-103447820D01*
X140625051Y-103447816D01*
X140721557Y-103258412D01*
X140787246Y-103056243D01*
X140820500Y-102846287D01*
X140820500Y-102633713D01*
X140787246Y-102423757D01*
X140721557Y-102221588D01*
X140625051Y-102032184D01*
X140625049Y-102032181D01*
X140625048Y-102032179D01*
X140500109Y-101860213D01*
X140349786Y-101709890D01*
X140177820Y-101584951D01*
X139988414Y-101488444D01*
X139988413Y-101488443D01*
X139988412Y-101488443D01*
X139786243Y-101422754D01*
X139786241Y-101422753D01*
X139786240Y-101422753D01*
X139615192Y-101395662D01*
X139576287Y-101389500D01*
X139363713Y-101389500D01*
X139324808Y-101395662D01*
X139153760Y-101422753D01*
X138951585Y-101488444D01*
X138762179Y-101584951D01*
X138590213Y-101709890D01*
X138439890Y-101860213D01*
X138314949Y-102032182D01*
X138310484Y-102040946D01*
X138262509Y-102091742D01*
X138194688Y-102108536D01*
X138128553Y-102085998D01*
X138089516Y-102040946D01*
X138085050Y-102032182D01*
X137960109Y-101860213D01*
X137809786Y-101709890D01*
X137637820Y-101584951D01*
X137448414Y-101488444D01*
X137448413Y-101488443D01*
X137448412Y-101488443D01*
X137246243Y-101422754D01*
X137246241Y-101422753D01*
X137246240Y-101422753D01*
X137075192Y-101395662D01*
X137036287Y-101389500D01*
X136823713Y-101389500D01*
X136823708Y-101389500D01*
X136728271Y-101404616D01*
X136658978Y-101395662D01*
X136621192Y-101369824D01*
X135848521Y-100597152D01*
X135848514Y-100597146D01*
X135774732Y-100547847D01*
X135774633Y-100547782D01*
X135725595Y-100515016D01*
X135725594Y-100515015D01*
X135725592Y-100515014D01*
X135589017Y-100458443D01*
X135589007Y-100458440D01*
X135444020Y-100429600D01*
X135444018Y-100429600D01*
X124289270Y-100429600D01*
X124222231Y-100409915D01*
X124176476Y-100357111D01*
X124166532Y-100287953D01*
X124171339Y-100267282D01*
X124188476Y-100214538D01*
X124188476Y-100214537D01*
X124188477Y-100214534D01*
X124220500Y-100012352D01*
X124220500Y-99807648D01*
X124188477Y-99605466D01*
X124179256Y-99577088D01*
X124136658Y-99445985D01*
X124125220Y-99410781D01*
X124125218Y-99410778D01*
X124125218Y-99410776D01*
X124091503Y-99344607D01*
X124032287Y-99228390D01*
X124011659Y-99199998D01*
X123911971Y-99062786D01*
X123767213Y-98918028D01*
X123601614Y-98797715D01*
X123565533Y-98779331D01*
X123508917Y-98750483D01*
X123458123Y-98702511D01*
X123441328Y-98634690D01*
X123463865Y-98568555D01*
X123508917Y-98529516D01*
X123601610Y-98482287D01*
X123652914Y-98445013D01*
X123767213Y-98361971D01*
X123767215Y-98361968D01*
X123767219Y-98361966D01*
X123911966Y-98217219D01*
X123911968Y-98217215D01*
X123911971Y-98217213D01*
X123964732Y-98144590D01*
X124032287Y-98051610D01*
X124125220Y-97869219D01*
X124188477Y-97674534D01*
X124220500Y-97472352D01*
X124220500Y-97267648D01*
X124188477Y-97065466D01*
X124171371Y-97012819D01*
X124169376Y-96942977D01*
X124205456Y-96883144D01*
X124268157Y-96852316D01*
X124289302Y-96850500D01*
X128879270Y-96850500D01*
X128946309Y-96870185D01*
X128966951Y-96886819D01*
X131462227Y-99382095D01*
X131489107Y-99422323D01*
X131498904Y-99445975D01*
X131498909Y-99445985D01*
X131586510Y-99577088D01*
X131586513Y-99577092D01*
X131698007Y-99688586D01*
X131698011Y-99688589D01*
X131829114Y-99776190D01*
X131829127Y-99776197D01*
X131928360Y-99817300D01*
X131974803Y-99836537D01*
X132129453Y-99867299D01*
X132129456Y-99867300D01*
X132129458Y-99867300D01*
X132287144Y-99867300D01*
X132287145Y-99867299D01*
X132441797Y-99836537D01*
X132587479Y-99776194D01*
X132718589Y-99688589D01*
X132830089Y-99577089D01*
X132917694Y-99445979D01*
X132978037Y-99300297D01*
X133008800Y-99145642D01*
X133008800Y-98987958D01*
X133008800Y-98987955D01*
X133008799Y-98987953D01*
X132978038Y-98833310D01*
X132978037Y-98833303D01*
X132963295Y-98797713D01*
X132917697Y-98687627D01*
X132917690Y-98687614D01*
X132830089Y-98556511D01*
X132830086Y-98556507D01*
X132718592Y-98445013D01*
X132718588Y-98445010D01*
X132587485Y-98357409D01*
X132587475Y-98357404D01*
X132563823Y-98347607D01*
X132523595Y-98320727D01*
X129719921Y-95517052D01*
X129719918Y-95517049D01*
X129646183Y-95467782D01*
X129596995Y-95434916D01*
X129596992Y-95434914D01*
X129596991Y-95434914D01*
X129460417Y-95378343D01*
X129460407Y-95378340D01*
X129315420Y-95349500D01*
X129315418Y-95349500D01*
X124289302Y-95349500D01*
X124222263Y-95329815D01*
X124176508Y-95277011D01*
X124166564Y-95207853D01*
X124171371Y-95187181D01*
X124188477Y-95134534D01*
X124220500Y-94932351D01*
X124220500Y-94727648D01*
X124188477Y-94525465D01*
X124125218Y-94330776D01*
X124091503Y-94264607D01*
X124032287Y-94148390D01*
X124024556Y-94137749D01*
X123911971Y-93982786D01*
X123767213Y-93838028D01*
X123601614Y-93717715D01*
X123595006Y-93714348D01*
X123508917Y-93670483D01*
X123458123Y-93622511D01*
X123441328Y-93554690D01*
X123463865Y-93488555D01*
X123508917Y-93449516D01*
X123601610Y-93402287D01*
X123622770Y-93386913D01*
X123767213Y-93281971D01*
X123767215Y-93281968D01*
X123767219Y-93281966D01*
X123911966Y-93137219D01*
X123911968Y-93137215D01*
X123911971Y-93137213D01*
X123964732Y-93064590D01*
X124032287Y-92971610D01*
X124125220Y-92789219D01*
X124188477Y-92594534D01*
X124220500Y-92392352D01*
X124220500Y-92187648D01*
X124188477Y-91985466D01*
X124125220Y-91790781D01*
X124125218Y-91790778D01*
X124125218Y-91790776D01*
X124082554Y-91707045D01*
X124032287Y-91608390D01*
X124024556Y-91597749D01*
X123911971Y-91442786D01*
X123767213Y-91298028D01*
X123601614Y-91177715D01*
X123595006Y-91174348D01*
X123508917Y-91130483D01*
X123458123Y-91082511D01*
X123441328Y-91014690D01*
X123463865Y-90948555D01*
X123508917Y-90909516D01*
X123601610Y-90862287D01*
X123622770Y-90846913D01*
X123767213Y-90741971D01*
X123767215Y-90741968D01*
X123767219Y-90741966D01*
X123911966Y-90597219D01*
X123911968Y-90597215D01*
X123911971Y-90597213D01*
X123964732Y-90524590D01*
X124032287Y-90431610D01*
X124125220Y-90249219D01*
X124188477Y-90054534D01*
X124220500Y-89852352D01*
X124220500Y-89647648D01*
X124188477Y-89445466D01*
X124125220Y-89250781D01*
X124125218Y-89250778D01*
X124125218Y-89250776D01*
X124091503Y-89184607D01*
X124032287Y-89068390D01*
X124024556Y-89057749D01*
X123911971Y-88902786D01*
X123767213Y-88758028D01*
X123601614Y-88637715D01*
X123595006Y-88634348D01*
X123508917Y-88590483D01*
X123458123Y-88542511D01*
X123441328Y-88474690D01*
X123463865Y-88408555D01*
X123508917Y-88369516D01*
X123601610Y-88322287D01*
X123622770Y-88306913D01*
X123767213Y-88201971D01*
X123767215Y-88201968D01*
X123767219Y-88201966D01*
X123911966Y-88057219D01*
X123911968Y-88057215D01*
X123911971Y-88057213D01*
X123964732Y-87984590D01*
X124032287Y-87891610D01*
X124125220Y-87709219D01*
X124188477Y-87514534D01*
X124220500Y-87312352D01*
X124220500Y-87107648D01*
X124188477Y-86905466D01*
X124125220Y-86710781D01*
X124125218Y-86710778D01*
X124125218Y-86710776D01*
X124091503Y-86644607D01*
X124032287Y-86528390D01*
X124024556Y-86517749D01*
X123911971Y-86362786D01*
X123767213Y-86218028D01*
X123601614Y-86097715D01*
X123595006Y-86094348D01*
X123508917Y-86050483D01*
X123458123Y-86002511D01*
X123441328Y-85934690D01*
X123463865Y-85868555D01*
X123508917Y-85829516D01*
X123601610Y-85782287D01*
X123622770Y-85766913D01*
X123767213Y-85661971D01*
X123767215Y-85661968D01*
X123767219Y-85661966D01*
X123911966Y-85517219D01*
X123911968Y-85517215D01*
X123911971Y-85517213D01*
X123964732Y-85444590D01*
X124032287Y-85351610D01*
X124125220Y-85169219D01*
X124188477Y-84974534D01*
X124220500Y-84772352D01*
X124220500Y-84567648D01*
X124188477Y-84365466D01*
X124125220Y-84170781D01*
X124125218Y-84170778D01*
X124125218Y-84170776D01*
X124091503Y-84104607D01*
X124032287Y-83988390D01*
X124024556Y-83977749D01*
X123911971Y-83822786D01*
X123767213Y-83678028D01*
X123601614Y-83557715D01*
X123595006Y-83554348D01*
X123508917Y-83510483D01*
X123458123Y-83462511D01*
X123441328Y-83394690D01*
X123463865Y-83328555D01*
X123508917Y-83289516D01*
X123601610Y-83242287D01*
X123629081Y-83222328D01*
X123767213Y-83121971D01*
X123767215Y-83121968D01*
X123767219Y-83121966D01*
X123911966Y-82977219D01*
X123911968Y-82977215D01*
X123911971Y-82977213D01*
X124013244Y-82837820D01*
X124032287Y-82811610D01*
X124125220Y-82629219D01*
X124188477Y-82434534D01*
X124220500Y-82232352D01*
X124220500Y-82027648D01*
X124188477Y-81825466D01*
X124187673Y-81822993D01*
X124125218Y-81630776D01*
X124058118Y-81499087D01*
X124032287Y-81448390D01*
X124020010Y-81431492D01*
X123911971Y-81282786D01*
X123767213Y-81138028D01*
X123601614Y-81017715D01*
X123578543Y-81005960D01*
X123508917Y-80970483D01*
X123458123Y-80922511D01*
X123441328Y-80854690D01*
X123463865Y-80788555D01*
X123508917Y-80749516D01*
X123601610Y-80702287D01*
X123622770Y-80686913D01*
X123767213Y-80581971D01*
X123767215Y-80581968D01*
X123767219Y-80581966D01*
X123911966Y-80437219D01*
X123911968Y-80437215D01*
X123911971Y-80437213D01*
X123964732Y-80364590D01*
X124032287Y-80271610D01*
X124125220Y-80089219D01*
X124188477Y-79894534D01*
X124220500Y-79692352D01*
X124220500Y-79487648D01*
X124188477Y-79285466D01*
X124125220Y-79090781D01*
X124125218Y-79090778D01*
X124125218Y-79090776D01*
X124050899Y-78944919D01*
X124032287Y-78908390D01*
X123992168Y-78853170D01*
X123911971Y-78742786D01*
X123767213Y-78598028D01*
X123601614Y-78477715D01*
X123560140Y-78456583D01*
X123508917Y-78430483D01*
X123458123Y-78382511D01*
X123441328Y-78314690D01*
X123463865Y-78248555D01*
X123508917Y-78209516D01*
X123601610Y-78162287D01*
X123646966Y-78129334D01*
X123767213Y-78041971D01*
X123767215Y-78041968D01*
X123767219Y-78041966D01*
X123911966Y-77897219D01*
X123911968Y-77897215D01*
X123911971Y-77897213D01*
X123988446Y-77791952D01*
X124032287Y-77731610D01*
X124125220Y-77549219D01*
X124188477Y-77354534D01*
X124220500Y-77152352D01*
X124220500Y-76947648D01*
X124206144Y-76857007D01*
X124188477Y-76745465D01*
X124128068Y-76559547D01*
X124125220Y-76550781D01*
X124125218Y-76550778D01*
X124125218Y-76550776D01*
X124091503Y-76484607D01*
X124032287Y-76368390D01*
X123951474Y-76257159D01*
X123911971Y-76202786D01*
X123767213Y-76058028D01*
X123601614Y-75937715D01*
X123595006Y-75934348D01*
X123508917Y-75890483D01*
X123458123Y-75842511D01*
X123441328Y-75774690D01*
X123463865Y-75708555D01*
X123508917Y-75669516D01*
X123601610Y-75622287D01*
X123622770Y-75606913D01*
X123767213Y-75501971D01*
X123767215Y-75501968D01*
X123767219Y-75501966D01*
X123911966Y-75357219D01*
X123911968Y-75357215D01*
X123911971Y-75357213D01*
X123964732Y-75284590D01*
X124032287Y-75191610D01*
X124125220Y-75009219D01*
X124188477Y-74814534D01*
X124220500Y-74612352D01*
X124220500Y-74407648D01*
X124188477Y-74205466D01*
X124125220Y-74010781D01*
X124125218Y-74010778D01*
X124125218Y-74010776D01*
X124091503Y-73944607D01*
X124032287Y-73828390D01*
X124024556Y-73817749D01*
X123911971Y-73662786D01*
X123767213Y-73518028D01*
X123601611Y-73397713D01*
X123508369Y-73350203D01*
X123457574Y-73302229D01*
X123440779Y-73234407D01*
X123463317Y-73168273D01*
X123508371Y-73129234D01*
X123601347Y-73081861D01*
X123766894Y-72961582D01*
X123766895Y-72961582D01*
X123911582Y-72816895D01*
X123911582Y-72816894D01*
X124031859Y-72651349D01*
X124124755Y-72469029D01*
X124187990Y-72274413D01*
X124196609Y-72220000D01*
X123353012Y-72220000D01*
X123385925Y-72162993D01*
X123420000Y-72035826D01*
X123420000Y-71904174D01*
X123385925Y-71777007D01*
X123353012Y-71720000D01*
X124196609Y-71720000D01*
X124187990Y-71665586D01*
X124124755Y-71470970D01*
X124031859Y-71288650D01*
X123911582Y-71123105D01*
X123911582Y-71123104D01*
X123766895Y-70978417D01*
X123601349Y-70858140D01*
X123508370Y-70810765D01*
X123457574Y-70762790D01*
X123440779Y-70694969D01*
X123463316Y-70628835D01*
X123508370Y-70589795D01*
X123512788Y-70587544D01*
X123601610Y-70542287D01*
X123632269Y-70520012D01*
X123767213Y-70421971D01*
X123767215Y-70421968D01*
X123767219Y-70421966D01*
X123911966Y-70277219D01*
X123911968Y-70277215D01*
X123911971Y-70277213D01*
X123964732Y-70204590D01*
X124032287Y-70111610D01*
X124125220Y-69929219D01*
X124188477Y-69734534D01*
X124220500Y-69532352D01*
X124220500Y-69327648D01*
X124202347Y-69213034D01*
X124188477Y-69125465D01*
X124155874Y-69025125D01*
X124125220Y-68930781D01*
X124119943Y-68920425D01*
X124094862Y-68871200D01*
X139369867Y-68871200D01*
X139369867Y-69168799D01*
X139399513Y-69393973D01*
X139408710Y-69463831D01*
X139456720Y-69643007D01*
X139485730Y-69751275D01*
X139485733Y-69751285D01*
X139599608Y-70026202D01*
X139599612Y-70026212D01*
X139748402Y-70283924D01*
X139929559Y-70520012D01*
X139929565Y-70520019D01*
X140139980Y-70730434D01*
X140139987Y-70730440D01*
X140376075Y-70911597D01*
X140633787Y-71060387D01*
X140633788Y-71060387D01*
X140633791Y-71060389D01*
X140908724Y-71174270D01*
X141196169Y-71251290D01*
X141491208Y-71290133D01*
X141491215Y-71290133D01*
X141788785Y-71290133D01*
X141788792Y-71290133D01*
X142083831Y-71251290D01*
X142371276Y-71174270D01*
X142646209Y-71060389D01*
X142903925Y-70911597D01*
X143140014Y-70730439D01*
X143350439Y-70520014D01*
X143531597Y-70283925D01*
X143680389Y-70026209D01*
X143794270Y-69751276D01*
X143871290Y-69463831D01*
X143910133Y-69168792D01*
X143910133Y-68871208D01*
X143871290Y-68576169D01*
X143794270Y-68288724D01*
X143680389Y-68013791D01*
X143642940Y-67948928D01*
X143531597Y-67756075D01*
X143350440Y-67519987D01*
X143350434Y-67519980D01*
X143140019Y-67309565D01*
X143140012Y-67309559D01*
X142903924Y-67128402D01*
X142646212Y-66979612D01*
X142646202Y-66979608D01*
X142371285Y-66865733D01*
X142371278Y-66865731D01*
X142371276Y-66865730D01*
X142083831Y-66788710D01*
X142034525Y-66782218D01*
X141788799Y-66749867D01*
X141788792Y-66749867D01*
X141491208Y-66749867D01*
X141491200Y-66749867D01*
X141210370Y-66786840D01*
X141196169Y-66788710D01*
X141043747Y-66829551D01*
X140908724Y-66865730D01*
X140908714Y-66865733D01*
X140633797Y-66979608D01*
X140633787Y-66979612D01*
X140376075Y-67128402D01*
X140139987Y-67309559D01*
X140139980Y-67309565D01*
X139929565Y-67519980D01*
X139929559Y-67519987D01*
X139748402Y-67756075D01*
X139599612Y-68013787D01*
X139599608Y-68013797D01*
X139485733Y-68288714D01*
X139485730Y-68288724D01*
X139408710Y-68576169D01*
X139407925Y-68582129D01*
X139369867Y-68871200D01*
X124094862Y-68871200D01*
X124076353Y-68834875D01*
X124032287Y-68748390D01*
X124024556Y-68737749D01*
X123911971Y-68582786D01*
X123767213Y-68438028D01*
X123601613Y-68317715D01*
X123601612Y-68317714D01*
X123601610Y-68317713D01*
X123544653Y-68288691D01*
X123419223Y-68224781D01*
X123224534Y-68161522D01*
X123049995Y-68133878D01*
X123022352Y-68129500D01*
X122817648Y-68129500D01*
X122793329Y-68133351D01*
X122615465Y-68161522D01*
X122420776Y-68224781D01*
X122238386Y-68317715D01*
X122072786Y-68438028D01*
X121928028Y-68582786D01*
X121807715Y-68748386D01*
X121714781Y-68930776D01*
X121651522Y-69125465D01*
X121619500Y-69327648D01*
X121619500Y-69532351D01*
X121651522Y-69734534D01*
X121714781Y-69929223D01*
X121743230Y-69985056D01*
X121806343Y-70108922D01*
X121807715Y-70111613D01*
X121928028Y-70277213D01*
X122072786Y-70421971D01*
X122207740Y-70520019D01*
X122238390Y-70542287D01*
X122310424Y-70578990D01*
X122331629Y-70589795D01*
X122382425Y-70637770D01*
X122399220Y-70705591D01*
X122376682Y-70771726D01*
X122331629Y-70810765D01*
X122238650Y-70858140D01*
X122073105Y-70978417D01*
X122073104Y-70978417D01*
X121928417Y-71123104D01*
X121928417Y-71123105D01*
X121808140Y-71288650D01*
X121715244Y-71470970D01*
X121652009Y-71665586D01*
X121643391Y-71720000D01*
X122486988Y-71720000D01*
X122454075Y-71777007D01*
X122420000Y-71904174D01*
X122420000Y-72035826D01*
X122454075Y-72162993D01*
X122486988Y-72220000D01*
X121643391Y-72220000D01*
X121652009Y-72274413D01*
X121715244Y-72469029D01*
X121808140Y-72651349D01*
X121928417Y-72816894D01*
X121928417Y-72816895D01*
X122073104Y-72961582D01*
X122238652Y-73081861D01*
X122331628Y-73129234D01*
X122382425Y-73177208D01*
X122399220Y-73245029D01*
X122376683Y-73311164D01*
X122331630Y-73350203D01*
X122238388Y-73397713D01*
X122072786Y-73518028D01*
X121928028Y-73662786D01*
X121807715Y-73828386D01*
X121714781Y-74010776D01*
X121651522Y-74205465D01*
X121619500Y-74407648D01*
X121619500Y-74612351D01*
X121651522Y-74814534D01*
X121714781Y-75009223D01*
X121768634Y-75114914D01*
X121785381Y-75147782D01*
X121807715Y-75191613D01*
X121928028Y-75357213D01*
X122072786Y-75501971D01*
X122227749Y-75614556D01*
X122238390Y-75622287D01*
X122329840Y-75668883D01*
X122331080Y-75669515D01*
X122381876Y-75717490D01*
X122398671Y-75785311D01*
X122376134Y-75851446D01*
X122331080Y-75890485D01*
X122238386Y-75937715D01*
X122072788Y-76058027D01*
X121968772Y-76162043D01*
X121907449Y-76195527D01*
X121837757Y-76190543D01*
X121793410Y-76162042D01*
X120828421Y-75197052D01*
X120828418Y-75197049D01*
X120754683Y-75147782D01*
X120705495Y-75114916D01*
X120705492Y-75114914D01*
X120705491Y-75114914D01*
X120568917Y-75058343D01*
X120568907Y-75058340D01*
X120423920Y-75029500D01*
X120423918Y-75029500D01*
X109049302Y-75029500D01*
X108982263Y-75009815D01*
X108936508Y-74957011D01*
X108926564Y-74887853D01*
X108931371Y-74867181D01*
X108948477Y-74814534D01*
X108980500Y-74612351D01*
X108980500Y-74407648D01*
X108948477Y-74205465D01*
X108885218Y-74010776D01*
X108851503Y-73944607D01*
X108792287Y-73828390D01*
X108784556Y-73817749D01*
X108671971Y-73662786D01*
X108527213Y-73518028D01*
X108361614Y-73397715D01*
X108355006Y-73394348D01*
X108268917Y-73350483D01*
X108218123Y-73302511D01*
X108201328Y-73234690D01*
X108223865Y-73168555D01*
X108268917Y-73129516D01*
X108361610Y-73082287D01*
X108382770Y-73066913D01*
X108527213Y-72961971D01*
X108527215Y-72961968D01*
X108527219Y-72961966D01*
X108671966Y-72817219D01*
X108671968Y-72817215D01*
X108671971Y-72817213D01*
X108724732Y-72744590D01*
X108792287Y-72651610D01*
X108885220Y-72469219D01*
X108948477Y-72274534D01*
X108980500Y-72072352D01*
X108980500Y-71867648D01*
X108966144Y-71777007D01*
X108948477Y-71665465D01*
X108885218Y-71470776D01*
X108851503Y-71404607D01*
X108792287Y-71288390D01*
X108784556Y-71277749D01*
X108671971Y-71122786D01*
X108527219Y-70978034D01*
X108490930Y-70951669D01*
X108448264Y-70896339D01*
X108442285Y-70826726D01*
X108474890Y-70764931D01*
X108535728Y-70730573D01*
X108550562Y-70728060D01*
X108587483Y-70724091D01*
X108722328Y-70673797D01*
X108722327Y-70673797D01*
X108722331Y-70673796D01*
X108837546Y-70587546D01*
X108923796Y-70472331D01*
X108974091Y-70337483D01*
X108980500Y-70277873D01*
X108980499Y-68582128D01*
X108974091Y-68522517D01*
X108923796Y-68387669D01*
X108923795Y-68387668D01*
X108923793Y-68387664D01*
X108837547Y-68272455D01*
X108837544Y-68272452D01*
X108722335Y-68186206D01*
X108722328Y-68186202D01*
X108587482Y-68135908D01*
X108587483Y-68135908D01*
X108527883Y-68129501D01*
X108527881Y-68129500D01*
X108527873Y-68129500D01*
X108527864Y-68129500D01*
X106832129Y-68129500D01*
X106832123Y-68129501D01*
X106772516Y-68135908D01*
X106637671Y-68186202D01*
X106637664Y-68186206D01*
X106522455Y-68272452D01*
X106522452Y-68272455D01*
X106436206Y-68387664D01*
X106436202Y-68387671D01*
X106385908Y-68522517D01*
X106379501Y-68582116D01*
X106379501Y-68582123D01*
X106379500Y-68582135D01*
X106379500Y-70277870D01*
X106379501Y-70277876D01*
X106385908Y-70337483D01*
X106436202Y-70472328D01*
X106436206Y-70472335D01*
X106522452Y-70587544D01*
X106522455Y-70587547D01*
X106637664Y-70673793D01*
X106637671Y-70673797D01*
X106682618Y-70690561D01*
X106772517Y-70724091D01*
X106809441Y-70728060D01*
X106873989Y-70754796D01*
X106913838Y-70812188D01*
X106916333Y-70882013D01*
X106880681Y-70942102D01*
X106869071Y-70951666D01*
X106832784Y-70978030D01*
X106688028Y-71122786D01*
X106567715Y-71288386D01*
X106474781Y-71470776D01*
X106411522Y-71665465D01*
X106379500Y-71867648D01*
X106379500Y-72072351D01*
X106411522Y-72274534D01*
X106474781Y-72469223D01*
X106567715Y-72651613D01*
X106688028Y-72817213D01*
X106832786Y-72961971D01*
X106987749Y-73074556D01*
X106998390Y-73082287D01*
X107089840Y-73128883D01*
X107091080Y-73129515D01*
X107141876Y-73177490D01*
X107158671Y-73245311D01*
X107136134Y-73311446D01*
X107091080Y-73350485D01*
X106998386Y-73397715D01*
X106832786Y-73518028D01*
X106688028Y-73662786D01*
X106567715Y-73828386D01*
X106474781Y-74010776D01*
X106411522Y-74205465D01*
X106379500Y-74407648D01*
X106379500Y-74612351D01*
X106411522Y-74814534D01*
X106428629Y-74867181D01*
X106430624Y-74937023D01*
X106394544Y-74996856D01*
X106331843Y-75027684D01*
X106310698Y-75029500D01*
X95411080Y-75029500D01*
X95266092Y-75058340D01*
X95266082Y-75058343D01*
X95129507Y-75114914D01*
X95014724Y-75191610D01*
X95014722Y-75191611D01*
X95006585Y-75197047D01*
X95006580Y-75197051D01*
X94450450Y-75753181D01*
X94389127Y-75786666D01*
X94362769Y-75789500D01*
X93699998Y-75789500D01*
X93699980Y-75789501D01*
X93597203Y-75800000D01*
X93597200Y-75800001D01*
X93430668Y-75855185D01*
X93430663Y-75855187D01*
X93281342Y-75947289D01*
X93157289Y-76071342D01*
X93065187Y-76220663D01*
X93065186Y-76220666D01*
X93010001Y-76387203D01*
X93010001Y-76387204D01*
X93010000Y-76387204D01*
X92999500Y-76489983D01*
X92999500Y-77890001D01*
X92999501Y-77890018D01*
X93010000Y-77992796D01*
X93010001Y-77992799D01*
X93065185Y-78159331D01*
X93065187Y-78159336D01*
X93157289Y-78308657D01*
X93281345Y-78432713D01*
X93287013Y-78437195D01*
X93286091Y-78438360D01*
X93327320Y-78484197D01*
X93339500Y-78537790D01*
X93339500Y-80655500D01*
X93319815Y-80722539D01*
X93267011Y-80768294D01*
X93215505Y-80779500D01*
X93192132Y-80779500D01*
X93192123Y-80779501D01*
X93132516Y-80785908D01*
X92997671Y-80836202D01*
X92997664Y-80836206D01*
X92882455Y-80922452D01*
X92882452Y-80922455D01*
X92796206Y-81037664D01*
X92796202Y-81037671D01*
X92745908Y-81172517D01*
X92739501Y-81232116D01*
X92739500Y-81232135D01*
X90200500Y-81232135D01*
X90200500Y-68784917D01*
X91326579Y-68784917D01*
X91326579Y-69075082D01*
X91333213Y-69125466D01*
X91364452Y-69362743D01*
X91418241Y-69563488D01*
X91439548Y-69643006D01*
X91439551Y-69643016D01*
X91550582Y-69911068D01*
X91550587Y-69911079D01*
X91617054Y-70026202D01*
X91695659Y-70162349D01*
X91695661Y-70162352D01*
X91695662Y-70162353D01*
X91872289Y-70392539D01*
X91872295Y-70392546D01*
X92077453Y-70597704D01*
X92077460Y-70597710D01*
X92176614Y-70673793D01*
X92307651Y-70774341D01*
X92452795Y-70858140D01*
X92558920Y-70919412D01*
X92558925Y-70919414D01*
X92558928Y-70919416D01*
X92826993Y-71030452D01*
X93107257Y-71105548D01*
X93394925Y-71143421D01*
X93394932Y-71143421D01*
X93685068Y-71143421D01*
X93685075Y-71143421D01*
X93972743Y-71105548D01*
X94253007Y-71030452D01*
X94521072Y-70919416D01*
X94772349Y-70774341D01*
X95002541Y-70597709D01*
X95207709Y-70392541D01*
X95384341Y-70162349D01*
X95529416Y-69911072D01*
X95640452Y-69643007D01*
X95715548Y-69362743D01*
X95753421Y-69075075D01*
X95753421Y-68784925D01*
X95715548Y-68497257D01*
X95640452Y-68216993D01*
X95529416Y-67948928D01*
X95529414Y-67948925D01*
X95529412Y-67948920D01*
X95449130Y-67809869D01*
X95384341Y-67697651D01*
X95207709Y-67467459D01*
X95207704Y-67467453D01*
X95002546Y-67262295D01*
X95002539Y-67262289D01*
X94772353Y-67085662D01*
X94772352Y-67085661D01*
X94772349Y-67085659D01*
X94672166Y-67027818D01*
X94521079Y-66940587D01*
X94521068Y-66940582D01*
X94253016Y-66829551D01*
X94253009Y-66829549D01*
X94253007Y-66829548D01*
X93972743Y-66754452D01*
X93924666Y-66748122D01*
X93685082Y-66716579D01*
X93685075Y-66716579D01*
X93394925Y-66716579D01*
X93394917Y-66716579D01*
X93121106Y-66752628D01*
X93107257Y-66754452D01*
X92979404Y-66788710D01*
X92826993Y-66829548D01*
X92826983Y-66829551D01*
X92558931Y-66940582D01*
X92558920Y-66940587D01*
X92307646Y-67085662D01*
X92077460Y-67262289D01*
X92077453Y-67262295D01*
X91872295Y-67467453D01*
X91872289Y-67467460D01*
X91695662Y-67697646D01*
X91550587Y-67948920D01*
X91550582Y-67948931D01*
X91439551Y-68216983D01*
X91439548Y-68216993D01*
X91364453Y-68497254D01*
X91364451Y-68497265D01*
X91326579Y-68784917D01*
X90200500Y-68784917D01*
X90200500Y-65834500D01*
X90220185Y-65767461D01*
X90272989Y-65721706D01*
X90324500Y-65710500D01*
X144705500Y-65710500D01*
X144772539Y-65730185D01*
G37*
%TD.AperFunction*%
%TD*%
M02*
