%TF.GenerationSoftware,KiCad,Pcbnew,9.0.5*%
%TF.CreationDate,2025-11-11T16:31:38-05:00*%
%TF.ProjectId,Base_station_PCB_V0.3.1,42617365-5f73-4746-9174-696f6e5f5043,rev?*%
%TF.SameCoordinates,Original*%
%TF.FileFunction,Legend,Bot*%
%TF.FilePolarity,Positive*%
%FSLAX46Y46*%
G04 Gerber Fmt 4.6, Leading zero omitted, Abs format (unit mm)*
G04 Created by KiCad (PCBNEW 9.0.5) date 2025-11-11 16:31:38*
%MOMM*%
%LPD*%
G01*
G04 APERTURE LIST*
%ADD10C,0.150000*%
%ADD11C,0.300000*%
%ADD12C,0.000000*%
G04 APERTURE END LIST*
D10*
X139830951Y-81714819D02*
X139830951Y-80714819D01*
X139830951Y-80714819D02*
X139497618Y-81429104D01*
X139497618Y-81429104D02*
X139164285Y-80714819D01*
X139164285Y-80714819D02*
X139164285Y-81714819D01*
X138259523Y-81714819D02*
X138259523Y-81191009D01*
X138259523Y-81191009D02*
X138307142Y-81095771D01*
X138307142Y-81095771D02*
X138402380Y-81048152D01*
X138402380Y-81048152D02*
X138592856Y-81048152D01*
X138592856Y-81048152D02*
X138688094Y-81095771D01*
X138259523Y-81667200D02*
X138354761Y-81714819D01*
X138354761Y-81714819D02*
X138592856Y-81714819D01*
X138592856Y-81714819D02*
X138688094Y-81667200D01*
X138688094Y-81667200D02*
X138735713Y-81571961D01*
X138735713Y-81571961D02*
X138735713Y-81476723D01*
X138735713Y-81476723D02*
X138688094Y-81381485D01*
X138688094Y-81381485D02*
X138592856Y-81333866D01*
X138592856Y-81333866D02*
X138354761Y-81333866D01*
X138354761Y-81333866D02*
X138259523Y-81286247D01*
X137640475Y-81714819D02*
X137735713Y-81667200D01*
X137735713Y-81667200D02*
X137783332Y-81571961D01*
X137783332Y-81571961D02*
X137783332Y-80714819D01*
X137259522Y-81714819D02*
X137259522Y-81048152D01*
X137259522Y-80714819D02*
X137307141Y-80762438D01*
X137307141Y-80762438D02*
X137259522Y-80810057D01*
X137259522Y-80810057D02*
X137211903Y-80762438D01*
X137211903Y-80762438D02*
X137259522Y-80714819D01*
X137259522Y-80714819D02*
X137259522Y-80810057D01*
X136354761Y-81667200D02*
X136449999Y-81714819D01*
X136449999Y-81714819D02*
X136640475Y-81714819D01*
X136640475Y-81714819D02*
X136735713Y-81667200D01*
X136735713Y-81667200D02*
X136783332Y-81619580D01*
X136783332Y-81619580D02*
X136830951Y-81524342D01*
X136830951Y-81524342D02*
X136830951Y-81238628D01*
X136830951Y-81238628D02*
X136783332Y-81143390D01*
X136783332Y-81143390D02*
X136735713Y-81095771D01*
X136735713Y-81095771D02*
X136640475Y-81048152D01*
X136640475Y-81048152D02*
X136449999Y-81048152D01*
X136449999Y-81048152D02*
X136354761Y-81095771D01*
X135926189Y-81714819D02*
X135926189Y-80714819D01*
X135497618Y-81714819D02*
X135497618Y-81191009D01*
X135497618Y-81191009D02*
X135545237Y-81095771D01*
X135545237Y-81095771D02*
X135640475Y-81048152D01*
X135640475Y-81048152D02*
X135783332Y-81048152D01*
X135783332Y-81048152D02*
X135878570Y-81095771D01*
X135878570Y-81095771D02*
X135926189Y-81143390D01*
X135021427Y-81714819D02*
X135021427Y-81048152D01*
X135021427Y-80714819D02*
X135069046Y-80762438D01*
X135069046Y-80762438D02*
X135021427Y-80810057D01*
X135021427Y-80810057D02*
X134973808Y-80762438D01*
X134973808Y-80762438D02*
X135021427Y-80714819D01*
X135021427Y-80714819D02*
X135021427Y-80810057D01*
X133449999Y-81191009D02*
X133783332Y-81191009D01*
X133783332Y-81714819D02*
X133783332Y-80714819D01*
X133783332Y-80714819D02*
X133307142Y-80714819D01*
X132783332Y-81714819D02*
X132878570Y-81667200D01*
X132878570Y-81667200D02*
X132926189Y-81571961D01*
X132926189Y-81571961D02*
X132926189Y-80714819D01*
X132021427Y-81667200D02*
X132116665Y-81714819D01*
X132116665Y-81714819D02*
X132307141Y-81714819D01*
X132307141Y-81714819D02*
X132402379Y-81667200D01*
X132402379Y-81667200D02*
X132449998Y-81571961D01*
X132449998Y-81571961D02*
X132449998Y-81191009D01*
X132449998Y-81191009D02*
X132402379Y-81095771D01*
X132402379Y-81095771D02*
X132307141Y-81048152D01*
X132307141Y-81048152D02*
X132116665Y-81048152D01*
X132116665Y-81048152D02*
X132021427Y-81095771D01*
X132021427Y-81095771D02*
X131973808Y-81191009D01*
X131973808Y-81191009D02*
X131973808Y-81286247D01*
X131973808Y-81286247D02*
X132449998Y-81381485D01*
X131545236Y-81714819D02*
X131545236Y-81048152D01*
X131545236Y-81143390D02*
X131497617Y-81095771D01*
X131497617Y-81095771D02*
X131402379Y-81048152D01*
X131402379Y-81048152D02*
X131259522Y-81048152D01*
X131259522Y-81048152D02*
X131164284Y-81095771D01*
X131164284Y-81095771D02*
X131116665Y-81191009D01*
X131116665Y-81191009D02*
X131116665Y-81714819D01*
X131116665Y-81191009D02*
X131069046Y-81095771D01*
X131069046Y-81095771D02*
X130973808Y-81048152D01*
X130973808Y-81048152D02*
X130830951Y-81048152D01*
X130830951Y-81048152D02*
X130735712Y-81095771D01*
X130735712Y-81095771D02*
X130688093Y-81191009D01*
X130688093Y-81191009D02*
X130688093Y-81714819D01*
X130211903Y-81714819D02*
X130211903Y-81048152D01*
X130211903Y-81143390D02*
X130164284Y-81095771D01*
X130164284Y-81095771D02*
X130069046Y-81048152D01*
X130069046Y-81048152D02*
X129926189Y-81048152D01*
X129926189Y-81048152D02*
X129830951Y-81095771D01*
X129830951Y-81095771D02*
X129783332Y-81191009D01*
X129783332Y-81191009D02*
X129783332Y-81714819D01*
X129783332Y-81191009D02*
X129735713Y-81095771D01*
X129735713Y-81095771D02*
X129640475Y-81048152D01*
X129640475Y-81048152D02*
X129497618Y-81048152D01*
X129497618Y-81048152D02*
X129402379Y-81095771D01*
X129402379Y-81095771D02*
X129354760Y-81191009D01*
X129354760Y-81191009D02*
X129354760Y-81714819D01*
X128878570Y-81714819D02*
X128878570Y-81048152D01*
X128878570Y-80714819D02*
X128926189Y-80762438D01*
X128926189Y-80762438D02*
X128878570Y-80810057D01*
X128878570Y-80810057D02*
X128830951Y-80762438D01*
X128830951Y-80762438D02*
X128878570Y-80714819D01*
X128878570Y-80714819D02*
X128878570Y-80810057D01*
X128402380Y-81048152D02*
X128402380Y-81714819D01*
X128402380Y-81143390D02*
X128354761Y-81095771D01*
X128354761Y-81095771D02*
X128259523Y-81048152D01*
X128259523Y-81048152D02*
X128116666Y-81048152D01*
X128116666Y-81048152D02*
X128021428Y-81095771D01*
X128021428Y-81095771D02*
X127973809Y-81191009D01*
X127973809Y-81191009D02*
X127973809Y-81714819D01*
X127069047Y-81048152D02*
X127069047Y-81857676D01*
X127069047Y-81857676D02*
X127116666Y-81952914D01*
X127116666Y-81952914D02*
X127164285Y-82000533D01*
X127164285Y-82000533D02*
X127259523Y-82048152D01*
X127259523Y-82048152D02*
X127402380Y-82048152D01*
X127402380Y-82048152D02*
X127497618Y-82000533D01*
X127069047Y-81667200D02*
X127164285Y-81714819D01*
X127164285Y-81714819D02*
X127354761Y-81714819D01*
X127354761Y-81714819D02*
X127449999Y-81667200D01*
X127449999Y-81667200D02*
X127497618Y-81619580D01*
X127497618Y-81619580D02*
X127545237Y-81524342D01*
X127545237Y-81524342D02*
X127545237Y-81238628D01*
X127545237Y-81238628D02*
X127497618Y-81143390D01*
X127497618Y-81143390D02*
X127449999Y-81095771D01*
X127449999Y-81095771D02*
X127354761Y-81048152D01*
X127354761Y-81048152D02*
X127164285Y-81048152D01*
X127164285Y-81048152D02*
X127069047Y-81095771D01*
X141657619Y-79514819D02*
X141657619Y-78514819D01*
X141657619Y-78514819D02*
X141324286Y-79229104D01*
X141324286Y-79229104D02*
X140990953Y-78514819D01*
X140990953Y-78514819D02*
X140990953Y-79514819D01*
X140086191Y-79514819D02*
X140086191Y-78514819D01*
X140086191Y-79467200D02*
X140181429Y-79514819D01*
X140181429Y-79514819D02*
X140371905Y-79514819D01*
X140371905Y-79514819D02*
X140467143Y-79467200D01*
X140467143Y-79467200D02*
X140514762Y-79419580D01*
X140514762Y-79419580D02*
X140562381Y-79324342D01*
X140562381Y-79324342D02*
X140562381Y-79038628D01*
X140562381Y-79038628D02*
X140514762Y-78943390D01*
X140514762Y-78943390D02*
X140467143Y-78895771D01*
X140467143Y-78895771D02*
X140371905Y-78848152D01*
X140371905Y-78848152D02*
X140181429Y-78848152D01*
X140181429Y-78848152D02*
X140086191Y-78895771D01*
X138895714Y-79229104D02*
X138419524Y-79229104D01*
X138990952Y-79514819D02*
X138657619Y-78514819D01*
X138657619Y-78514819D02*
X138324286Y-79514819D01*
X138038571Y-79467200D02*
X137943333Y-79514819D01*
X137943333Y-79514819D02*
X137752857Y-79514819D01*
X137752857Y-79514819D02*
X137657619Y-79467200D01*
X137657619Y-79467200D02*
X137610000Y-79371961D01*
X137610000Y-79371961D02*
X137610000Y-79324342D01*
X137610000Y-79324342D02*
X137657619Y-79229104D01*
X137657619Y-79229104D02*
X137752857Y-79181485D01*
X137752857Y-79181485D02*
X137895714Y-79181485D01*
X137895714Y-79181485D02*
X137990952Y-79133866D01*
X137990952Y-79133866D02*
X138038571Y-79038628D01*
X138038571Y-79038628D02*
X138038571Y-78991009D01*
X138038571Y-78991009D02*
X137990952Y-78895771D01*
X137990952Y-78895771D02*
X137895714Y-78848152D01*
X137895714Y-78848152D02*
X137752857Y-78848152D01*
X137752857Y-78848152D02*
X137657619Y-78895771D01*
X137181428Y-79514819D02*
X137181428Y-78848152D01*
X137181428Y-78514819D02*
X137229047Y-78562438D01*
X137229047Y-78562438D02*
X137181428Y-78610057D01*
X137181428Y-78610057D02*
X137133809Y-78562438D01*
X137133809Y-78562438D02*
X137181428Y-78514819D01*
X137181428Y-78514819D02*
X137181428Y-78610057D01*
X136848095Y-78848152D02*
X136467143Y-78848152D01*
X136705238Y-79514819D02*
X136705238Y-78657676D01*
X136705238Y-78657676D02*
X136657619Y-78562438D01*
X136657619Y-78562438D02*
X136562381Y-78514819D01*
X136562381Y-78514819D02*
X136467143Y-78514819D01*
X135705238Y-78848152D02*
X135705238Y-79514819D01*
X136133809Y-78848152D02*
X136133809Y-79371961D01*
X136133809Y-79371961D02*
X136086190Y-79467200D01*
X136086190Y-79467200D02*
X135990952Y-79514819D01*
X135990952Y-79514819D02*
X135848095Y-79514819D01*
X135848095Y-79514819D02*
X135752857Y-79467200D01*
X135752857Y-79467200D02*
X135705238Y-79419580D01*
X135324285Y-78848152D02*
X134800476Y-78848152D01*
X134800476Y-78848152D02*
X135324285Y-79514819D01*
X135324285Y-79514819D02*
X134800476Y-79514819D01*
X134514761Y-78848152D02*
X133990952Y-78848152D01*
X133990952Y-78848152D02*
X134514761Y-79514819D01*
X134514761Y-79514819D02*
X133990952Y-79514819D01*
X133181428Y-79514819D02*
X133181428Y-78991009D01*
X133181428Y-78991009D02*
X133229047Y-78895771D01*
X133229047Y-78895771D02*
X133324285Y-78848152D01*
X133324285Y-78848152D02*
X133514761Y-78848152D01*
X133514761Y-78848152D02*
X133609999Y-78895771D01*
X133181428Y-79467200D02*
X133276666Y-79514819D01*
X133276666Y-79514819D02*
X133514761Y-79514819D01*
X133514761Y-79514819D02*
X133609999Y-79467200D01*
X133609999Y-79467200D02*
X133657618Y-79371961D01*
X133657618Y-79371961D02*
X133657618Y-79276723D01*
X133657618Y-79276723D02*
X133609999Y-79181485D01*
X133609999Y-79181485D02*
X133514761Y-79133866D01*
X133514761Y-79133866D02*
X133276666Y-79133866D01*
X133276666Y-79133866D02*
X133181428Y-79086247D01*
X132705237Y-79514819D02*
X132705237Y-78848152D01*
X132705237Y-78943390D02*
X132657618Y-78895771D01*
X132657618Y-78895771D02*
X132562380Y-78848152D01*
X132562380Y-78848152D02*
X132419523Y-78848152D01*
X132419523Y-78848152D02*
X132324285Y-78895771D01*
X132324285Y-78895771D02*
X132276666Y-78991009D01*
X132276666Y-78991009D02*
X132276666Y-79514819D01*
X132276666Y-78991009D02*
X132229047Y-78895771D01*
X132229047Y-78895771D02*
X132133809Y-78848152D01*
X132133809Y-78848152D02*
X131990952Y-78848152D01*
X131990952Y-78848152D02*
X131895713Y-78895771D01*
X131895713Y-78895771D02*
X131848094Y-78991009D01*
X131848094Y-78991009D02*
X131848094Y-79514819D01*
X130943333Y-79514819D02*
X130943333Y-78991009D01*
X130943333Y-78991009D02*
X130990952Y-78895771D01*
X130990952Y-78895771D02*
X131086190Y-78848152D01*
X131086190Y-78848152D02*
X131276666Y-78848152D01*
X131276666Y-78848152D02*
X131371904Y-78895771D01*
X130943333Y-79467200D02*
X131038571Y-79514819D01*
X131038571Y-79514819D02*
X131276666Y-79514819D01*
X131276666Y-79514819D02*
X131371904Y-79467200D01*
X131371904Y-79467200D02*
X131419523Y-79371961D01*
X131419523Y-79371961D02*
X131419523Y-79276723D01*
X131419523Y-79276723D02*
X131371904Y-79181485D01*
X131371904Y-79181485D02*
X131276666Y-79133866D01*
X131276666Y-79133866D02*
X131038571Y-79133866D01*
X131038571Y-79133866D02*
X130943333Y-79086247D01*
X130467142Y-78848152D02*
X130467142Y-79514819D01*
X130467142Y-78943390D02*
X130419523Y-78895771D01*
X130419523Y-78895771D02*
X130324285Y-78848152D01*
X130324285Y-78848152D02*
X130181428Y-78848152D01*
X130181428Y-78848152D02*
X130086190Y-78895771D01*
X130086190Y-78895771D02*
X130038571Y-78991009D01*
X130038571Y-78991009D02*
X130038571Y-79514819D01*
X128800475Y-79514819D02*
X128800475Y-78514819D01*
X128229047Y-79514819D02*
X128657618Y-78943390D01*
X128229047Y-78514819D02*
X128800475Y-79086247D01*
X127800475Y-79514819D02*
X127800475Y-78514819D01*
X127371904Y-79514819D02*
X127371904Y-78991009D01*
X127371904Y-78991009D02*
X127419523Y-78895771D01*
X127419523Y-78895771D02*
X127514761Y-78848152D01*
X127514761Y-78848152D02*
X127657618Y-78848152D01*
X127657618Y-78848152D02*
X127752856Y-78895771D01*
X127752856Y-78895771D02*
X127800475Y-78943390D01*
X126467142Y-79514819D02*
X126467142Y-78991009D01*
X126467142Y-78991009D02*
X126514761Y-78895771D01*
X126514761Y-78895771D02*
X126609999Y-78848152D01*
X126609999Y-78848152D02*
X126800475Y-78848152D01*
X126800475Y-78848152D02*
X126895713Y-78895771D01*
X126467142Y-79467200D02*
X126562380Y-79514819D01*
X126562380Y-79514819D02*
X126800475Y-79514819D01*
X126800475Y-79514819D02*
X126895713Y-79467200D01*
X126895713Y-79467200D02*
X126943332Y-79371961D01*
X126943332Y-79371961D02*
X126943332Y-79276723D01*
X126943332Y-79276723D02*
X126895713Y-79181485D01*
X126895713Y-79181485D02*
X126800475Y-79133866D01*
X126800475Y-79133866D02*
X126562380Y-79133866D01*
X126562380Y-79133866D02*
X126467142Y-79086247D01*
X125990951Y-78848152D02*
X125990951Y-79514819D01*
X125990951Y-78943390D02*
X125943332Y-78895771D01*
X125943332Y-78895771D02*
X125848094Y-78848152D01*
X125848094Y-78848152D02*
X125705237Y-78848152D01*
X125705237Y-78848152D02*
X125609999Y-78895771D01*
X125609999Y-78895771D02*
X125562380Y-78991009D01*
X125562380Y-78991009D02*
X125562380Y-79514819D01*
X137385238Y-77234819D02*
X137956666Y-77234819D01*
X137670952Y-77234819D02*
X137670952Y-76234819D01*
X137670952Y-76234819D02*
X137766190Y-76377676D01*
X137766190Y-76377676D02*
X137861428Y-76472914D01*
X137861428Y-76472914D02*
X137956666Y-76520533D01*
X136432857Y-77234819D02*
X137004285Y-77234819D01*
X136718571Y-77234819D02*
X136718571Y-76234819D01*
X136718571Y-76234819D02*
X136813809Y-76377676D01*
X136813809Y-76377676D02*
X136909047Y-76472914D01*
X136909047Y-76472914D02*
X137004285Y-76520533D01*
X135290000Y-76187200D02*
X136147142Y-77472914D01*
X134432857Y-77234819D02*
X135004285Y-77234819D01*
X134718571Y-77234819D02*
X134718571Y-76234819D01*
X134718571Y-76234819D02*
X134813809Y-76377676D01*
X134813809Y-76377676D02*
X134909047Y-76472914D01*
X134909047Y-76472914D02*
X135004285Y-76520533D01*
X133480476Y-77234819D02*
X134051904Y-77234819D01*
X133766190Y-77234819D02*
X133766190Y-76234819D01*
X133766190Y-76234819D02*
X133861428Y-76377676D01*
X133861428Y-76377676D02*
X133956666Y-76472914D01*
X133956666Y-76472914D02*
X134051904Y-76520533D01*
X132337619Y-76187200D02*
X133194761Y-77472914D01*
X132051904Y-76330057D02*
X132004285Y-76282438D01*
X132004285Y-76282438D02*
X131909047Y-76234819D01*
X131909047Y-76234819D02*
X131670952Y-76234819D01*
X131670952Y-76234819D02*
X131575714Y-76282438D01*
X131575714Y-76282438D02*
X131528095Y-76330057D01*
X131528095Y-76330057D02*
X131480476Y-76425295D01*
X131480476Y-76425295D02*
X131480476Y-76520533D01*
X131480476Y-76520533D02*
X131528095Y-76663390D01*
X131528095Y-76663390D02*
X132099523Y-77234819D01*
X132099523Y-77234819D02*
X131480476Y-77234819D01*
X130861428Y-76234819D02*
X130766190Y-76234819D01*
X130766190Y-76234819D02*
X130670952Y-76282438D01*
X130670952Y-76282438D02*
X130623333Y-76330057D01*
X130623333Y-76330057D02*
X130575714Y-76425295D01*
X130575714Y-76425295D02*
X130528095Y-76615771D01*
X130528095Y-76615771D02*
X130528095Y-76853866D01*
X130528095Y-76853866D02*
X130575714Y-77044342D01*
X130575714Y-77044342D02*
X130623333Y-77139580D01*
X130623333Y-77139580D02*
X130670952Y-77187200D01*
X130670952Y-77187200D02*
X130766190Y-77234819D01*
X130766190Y-77234819D02*
X130861428Y-77234819D01*
X130861428Y-77234819D02*
X130956666Y-77187200D01*
X130956666Y-77187200D02*
X131004285Y-77139580D01*
X131004285Y-77139580D02*
X131051904Y-77044342D01*
X131051904Y-77044342D02*
X131099523Y-76853866D01*
X131099523Y-76853866D02*
X131099523Y-76615771D01*
X131099523Y-76615771D02*
X131051904Y-76425295D01*
X131051904Y-76425295D02*
X131004285Y-76330057D01*
X131004285Y-76330057D02*
X130956666Y-76282438D01*
X130956666Y-76282438D02*
X130861428Y-76234819D01*
X130147142Y-76330057D02*
X130099523Y-76282438D01*
X130099523Y-76282438D02*
X130004285Y-76234819D01*
X130004285Y-76234819D02*
X129766190Y-76234819D01*
X129766190Y-76234819D02*
X129670952Y-76282438D01*
X129670952Y-76282438D02*
X129623333Y-76330057D01*
X129623333Y-76330057D02*
X129575714Y-76425295D01*
X129575714Y-76425295D02*
X129575714Y-76520533D01*
X129575714Y-76520533D02*
X129623333Y-76663390D01*
X129623333Y-76663390D02*
X130194761Y-77234819D01*
X130194761Y-77234819D02*
X129575714Y-77234819D01*
X128670952Y-76234819D02*
X129147142Y-76234819D01*
X129147142Y-76234819D02*
X129194761Y-76711009D01*
X129194761Y-76711009D02*
X129147142Y-76663390D01*
X129147142Y-76663390D02*
X129051904Y-76615771D01*
X129051904Y-76615771D02*
X128813809Y-76615771D01*
X128813809Y-76615771D02*
X128718571Y-76663390D01*
X128718571Y-76663390D02*
X128670952Y-76711009D01*
X128670952Y-76711009D02*
X128623333Y-76806247D01*
X128623333Y-76806247D02*
X128623333Y-77044342D01*
X128623333Y-77044342D02*
X128670952Y-77139580D01*
X128670952Y-77139580D02*
X128718571Y-77187200D01*
X128718571Y-77187200D02*
X128813809Y-77234819D01*
X128813809Y-77234819D02*
X129051904Y-77234819D01*
X129051904Y-77234819D02*
X129147142Y-77187200D01*
X129147142Y-77187200D02*
X129194761Y-77139580D01*
X140482381Y-74411009D02*
X140339524Y-74458628D01*
X140339524Y-74458628D02*
X140291905Y-74506247D01*
X140291905Y-74506247D02*
X140244286Y-74601485D01*
X140244286Y-74601485D02*
X140244286Y-74744342D01*
X140244286Y-74744342D02*
X140291905Y-74839580D01*
X140291905Y-74839580D02*
X140339524Y-74887200D01*
X140339524Y-74887200D02*
X140434762Y-74934819D01*
X140434762Y-74934819D02*
X140815714Y-74934819D01*
X140815714Y-74934819D02*
X140815714Y-73934819D01*
X140815714Y-73934819D02*
X140482381Y-73934819D01*
X140482381Y-73934819D02*
X140387143Y-73982438D01*
X140387143Y-73982438D02*
X140339524Y-74030057D01*
X140339524Y-74030057D02*
X140291905Y-74125295D01*
X140291905Y-74125295D02*
X140291905Y-74220533D01*
X140291905Y-74220533D02*
X140339524Y-74315771D01*
X140339524Y-74315771D02*
X140387143Y-74363390D01*
X140387143Y-74363390D02*
X140482381Y-74411009D01*
X140482381Y-74411009D02*
X140815714Y-74411009D01*
X139387143Y-74934819D02*
X139387143Y-74411009D01*
X139387143Y-74411009D02*
X139434762Y-74315771D01*
X139434762Y-74315771D02*
X139530000Y-74268152D01*
X139530000Y-74268152D02*
X139720476Y-74268152D01*
X139720476Y-74268152D02*
X139815714Y-74315771D01*
X139387143Y-74887200D02*
X139482381Y-74934819D01*
X139482381Y-74934819D02*
X139720476Y-74934819D01*
X139720476Y-74934819D02*
X139815714Y-74887200D01*
X139815714Y-74887200D02*
X139863333Y-74791961D01*
X139863333Y-74791961D02*
X139863333Y-74696723D01*
X139863333Y-74696723D02*
X139815714Y-74601485D01*
X139815714Y-74601485D02*
X139720476Y-74553866D01*
X139720476Y-74553866D02*
X139482381Y-74553866D01*
X139482381Y-74553866D02*
X139387143Y-74506247D01*
X138958571Y-74887200D02*
X138863333Y-74934819D01*
X138863333Y-74934819D02*
X138672857Y-74934819D01*
X138672857Y-74934819D02*
X138577619Y-74887200D01*
X138577619Y-74887200D02*
X138530000Y-74791961D01*
X138530000Y-74791961D02*
X138530000Y-74744342D01*
X138530000Y-74744342D02*
X138577619Y-74649104D01*
X138577619Y-74649104D02*
X138672857Y-74601485D01*
X138672857Y-74601485D02*
X138815714Y-74601485D01*
X138815714Y-74601485D02*
X138910952Y-74553866D01*
X138910952Y-74553866D02*
X138958571Y-74458628D01*
X138958571Y-74458628D02*
X138958571Y-74411009D01*
X138958571Y-74411009D02*
X138910952Y-74315771D01*
X138910952Y-74315771D02*
X138815714Y-74268152D01*
X138815714Y-74268152D02*
X138672857Y-74268152D01*
X138672857Y-74268152D02*
X138577619Y-74315771D01*
X137720476Y-74887200D02*
X137815714Y-74934819D01*
X137815714Y-74934819D02*
X138006190Y-74934819D01*
X138006190Y-74934819D02*
X138101428Y-74887200D01*
X138101428Y-74887200D02*
X138149047Y-74791961D01*
X138149047Y-74791961D02*
X138149047Y-74411009D01*
X138149047Y-74411009D02*
X138101428Y-74315771D01*
X138101428Y-74315771D02*
X138006190Y-74268152D01*
X138006190Y-74268152D02*
X137815714Y-74268152D01*
X137815714Y-74268152D02*
X137720476Y-74315771D01*
X137720476Y-74315771D02*
X137672857Y-74411009D01*
X137672857Y-74411009D02*
X137672857Y-74506247D01*
X137672857Y-74506247D02*
X138149047Y-74601485D01*
X136529999Y-74887200D02*
X136387142Y-74934819D01*
X136387142Y-74934819D02*
X136149047Y-74934819D01*
X136149047Y-74934819D02*
X136053809Y-74887200D01*
X136053809Y-74887200D02*
X136006190Y-74839580D01*
X136006190Y-74839580D02*
X135958571Y-74744342D01*
X135958571Y-74744342D02*
X135958571Y-74649104D01*
X135958571Y-74649104D02*
X136006190Y-74553866D01*
X136006190Y-74553866D02*
X136053809Y-74506247D01*
X136053809Y-74506247D02*
X136149047Y-74458628D01*
X136149047Y-74458628D02*
X136339523Y-74411009D01*
X136339523Y-74411009D02*
X136434761Y-74363390D01*
X136434761Y-74363390D02*
X136482380Y-74315771D01*
X136482380Y-74315771D02*
X136529999Y-74220533D01*
X136529999Y-74220533D02*
X136529999Y-74125295D01*
X136529999Y-74125295D02*
X136482380Y-74030057D01*
X136482380Y-74030057D02*
X136434761Y-73982438D01*
X136434761Y-73982438D02*
X136339523Y-73934819D01*
X136339523Y-73934819D02*
X136101428Y-73934819D01*
X136101428Y-73934819D02*
X135958571Y-73982438D01*
X135672856Y-74268152D02*
X135291904Y-74268152D01*
X135529999Y-73934819D02*
X135529999Y-74791961D01*
X135529999Y-74791961D02*
X135482380Y-74887200D01*
X135482380Y-74887200D02*
X135387142Y-74934819D01*
X135387142Y-74934819D02*
X135291904Y-74934819D01*
X134529999Y-74934819D02*
X134529999Y-74411009D01*
X134529999Y-74411009D02*
X134577618Y-74315771D01*
X134577618Y-74315771D02*
X134672856Y-74268152D01*
X134672856Y-74268152D02*
X134863332Y-74268152D01*
X134863332Y-74268152D02*
X134958570Y-74315771D01*
X134529999Y-74887200D02*
X134625237Y-74934819D01*
X134625237Y-74934819D02*
X134863332Y-74934819D01*
X134863332Y-74934819D02*
X134958570Y-74887200D01*
X134958570Y-74887200D02*
X135006189Y-74791961D01*
X135006189Y-74791961D02*
X135006189Y-74696723D01*
X135006189Y-74696723D02*
X134958570Y-74601485D01*
X134958570Y-74601485D02*
X134863332Y-74553866D01*
X134863332Y-74553866D02*
X134625237Y-74553866D01*
X134625237Y-74553866D02*
X134529999Y-74506247D01*
X134196665Y-74268152D02*
X133815713Y-74268152D01*
X134053808Y-73934819D02*
X134053808Y-74791961D01*
X134053808Y-74791961D02*
X134006189Y-74887200D01*
X134006189Y-74887200D02*
X133910951Y-74934819D01*
X133910951Y-74934819D02*
X133815713Y-74934819D01*
X133482379Y-74934819D02*
X133482379Y-74268152D01*
X133482379Y-73934819D02*
X133529998Y-73982438D01*
X133529998Y-73982438D02*
X133482379Y-74030057D01*
X133482379Y-74030057D02*
X133434760Y-73982438D01*
X133434760Y-73982438D02*
X133482379Y-73934819D01*
X133482379Y-73934819D02*
X133482379Y-74030057D01*
X132863332Y-74934819D02*
X132958570Y-74887200D01*
X132958570Y-74887200D02*
X133006189Y-74839580D01*
X133006189Y-74839580D02*
X133053808Y-74744342D01*
X133053808Y-74744342D02*
X133053808Y-74458628D01*
X133053808Y-74458628D02*
X133006189Y-74363390D01*
X133006189Y-74363390D02*
X132958570Y-74315771D01*
X132958570Y-74315771D02*
X132863332Y-74268152D01*
X132863332Y-74268152D02*
X132720475Y-74268152D01*
X132720475Y-74268152D02*
X132625237Y-74315771D01*
X132625237Y-74315771D02*
X132577618Y-74363390D01*
X132577618Y-74363390D02*
X132529999Y-74458628D01*
X132529999Y-74458628D02*
X132529999Y-74744342D01*
X132529999Y-74744342D02*
X132577618Y-74839580D01*
X132577618Y-74839580D02*
X132625237Y-74887200D01*
X132625237Y-74887200D02*
X132720475Y-74934819D01*
X132720475Y-74934819D02*
X132863332Y-74934819D01*
X132101427Y-74268152D02*
X132101427Y-74934819D01*
X132101427Y-74363390D02*
X132053808Y-74315771D01*
X132053808Y-74315771D02*
X131958570Y-74268152D01*
X131958570Y-74268152D02*
X131815713Y-74268152D01*
X131815713Y-74268152D02*
X131720475Y-74315771D01*
X131720475Y-74315771D02*
X131672856Y-74411009D01*
X131672856Y-74411009D02*
X131672856Y-74934819D01*
X130577617Y-73934819D02*
X130244284Y-74934819D01*
X130244284Y-74934819D02*
X129910951Y-73934819D01*
X129387141Y-73934819D02*
X129291903Y-73934819D01*
X129291903Y-73934819D02*
X129196665Y-73982438D01*
X129196665Y-73982438D02*
X129149046Y-74030057D01*
X129149046Y-74030057D02*
X129101427Y-74125295D01*
X129101427Y-74125295D02*
X129053808Y-74315771D01*
X129053808Y-74315771D02*
X129053808Y-74553866D01*
X129053808Y-74553866D02*
X129101427Y-74744342D01*
X129101427Y-74744342D02*
X129149046Y-74839580D01*
X129149046Y-74839580D02*
X129196665Y-74887200D01*
X129196665Y-74887200D02*
X129291903Y-74934819D01*
X129291903Y-74934819D02*
X129387141Y-74934819D01*
X129387141Y-74934819D02*
X129482379Y-74887200D01*
X129482379Y-74887200D02*
X129529998Y-74839580D01*
X129529998Y-74839580D02*
X129577617Y-74744342D01*
X129577617Y-74744342D02*
X129625236Y-74553866D01*
X129625236Y-74553866D02*
X129625236Y-74315771D01*
X129625236Y-74315771D02*
X129577617Y-74125295D01*
X129577617Y-74125295D02*
X129529998Y-74030057D01*
X129529998Y-74030057D02*
X129482379Y-73982438D01*
X129482379Y-73982438D02*
X129387141Y-73934819D01*
X128625236Y-74839580D02*
X128577617Y-74887200D01*
X128577617Y-74887200D02*
X128625236Y-74934819D01*
X128625236Y-74934819D02*
X128672855Y-74887200D01*
X128672855Y-74887200D02*
X128625236Y-74839580D01*
X128625236Y-74839580D02*
X128625236Y-74934819D01*
X128244284Y-73934819D02*
X127625237Y-73934819D01*
X127625237Y-73934819D02*
X127958570Y-74315771D01*
X127958570Y-74315771D02*
X127815713Y-74315771D01*
X127815713Y-74315771D02*
X127720475Y-74363390D01*
X127720475Y-74363390D02*
X127672856Y-74411009D01*
X127672856Y-74411009D02*
X127625237Y-74506247D01*
X127625237Y-74506247D02*
X127625237Y-74744342D01*
X127625237Y-74744342D02*
X127672856Y-74839580D01*
X127672856Y-74839580D02*
X127720475Y-74887200D01*
X127720475Y-74887200D02*
X127815713Y-74934819D01*
X127815713Y-74934819D02*
X128101427Y-74934819D01*
X128101427Y-74934819D02*
X128196665Y-74887200D01*
X128196665Y-74887200D02*
X128244284Y-74839580D01*
X127196665Y-74839580D02*
X127149046Y-74887200D01*
X127149046Y-74887200D02*
X127196665Y-74934819D01*
X127196665Y-74934819D02*
X127244284Y-74887200D01*
X127244284Y-74887200D02*
X127196665Y-74839580D01*
X127196665Y-74839580D02*
X127196665Y-74934819D01*
X126196666Y-74934819D02*
X126768094Y-74934819D01*
X126482380Y-74934819D02*
X126482380Y-73934819D01*
X126482380Y-73934819D02*
X126577618Y-74077676D01*
X126577618Y-74077676D02*
X126672856Y-74172914D01*
X126672856Y-74172914D02*
X126768094Y-74220533D01*
D11*
X117897494Y-104401864D02*
X117897494Y-105616150D01*
X117897494Y-105616150D02*
X117826065Y-105759007D01*
X117826065Y-105759007D02*
X117754637Y-105830436D01*
X117754637Y-105830436D02*
X117611779Y-105901864D01*
X117611779Y-105901864D02*
X117326065Y-105901864D01*
X117326065Y-105901864D02*
X117183208Y-105830436D01*
X117183208Y-105830436D02*
X117111779Y-105759007D01*
X117111779Y-105759007D02*
X117040351Y-105616150D01*
X117040351Y-105616150D02*
X117040351Y-104401864D01*
X116397493Y-105830436D02*
X116183208Y-105901864D01*
X116183208Y-105901864D02*
X115826065Y-105901864D01*
X115826065Y-105901864D02*
X115683208Y-105830436D01*
X115683208Y-105830436D02*
X115611779Y-105759007D01*
X115611779Y-105759007D02*
X115540350Y-105616150D01*
X115540350Y-105616150D02*
X115540350Y-105473293D01*
X115540350Y-105473293D02*
X115611779Y-105330436D01*
X115611779Y-105330436D02*
X115683208Y-105259007D01*
X115683208Y-105259007D02*
X115826065Y-105187578D01*
X115826065Y-105187578D02*
X116111779Y-105116150D01*
X116111779Y-105116150D02*
X116254636Y-105044721D01*
X116254636Y-105044721D02*
X116326065Y-104973293D01*
X116326065Y-104973293D02*
X116397493Y-104830436D01*
X116397493Y-104830436D02*
X116397493Y-104687578D01*
X116397493Y-104687578D02*
X116326065Y-104544721D01*
X116326065Y-104544721D02*
X116254636Y-104473293D01*
X116254636Y-104473293D02*
X116111779Y-104401864D01*
X116111779Y-104401864D02*
X115754636Y-104401864D01*
X115754636Y-104401864D02*
X115540350Y-104473293D01*
X114040351Y-105759007D02*
X114111779Y-105830436D01*
X114111779Y-105830436D02*
X114326065Y-105901864D01*
X114326065Y-105901864D02*
X114468922Y-105901864D01*
X114468922Y-105901864D02*
X114683208Y-105830436D01*
X114683208Y-105830436D02*
X114826065Y-105687578D01*
X114826065Y-105687578D02*
X114897494Y-105544721D01*
X114897494Y-105544721D02*
X114968922Y-105259007D01*
X114968922Y-105259007D02*
X114968922Y-105044721D01*
X114968922Y-105044721D02*
X114897494Y-104759007D01*
X114897494Y-104759007D02*
X114826065Y-104616150D01*
X114826065Y-104616150D02*
X114683208Y-104473293D01*
X114683208Y-104473293D02*
X114468922Y-104401864D01*
X114468922Y-104401864D02*
X114326065Y-104401864D01*
X114326065Y-104401864D02*
X114111779Y-104473293D01*
X114111779Y-104473293D02*
X114040351Y-104544721D01*
D10*
X119685714Y-87159104D02*
X119209524Y-87159104D01*
X119780952Y-87444819D02*
X119447619Y-86444819D01*
X119447619Y-86444819D02*
X119114286Y-87444819D01*
X118209524Y-87444819D02*
X118542857Y-86968628D01*
X118780952Y-87444819D02*
X118780952Y-86444819D01*
X118780952Y-86444819D02*
X118400000Y-86444819D01*
X118400000Y-86444819D02*
X118304762Y-86492438D01*
X118304762Y-86492438D02*
X118257143Y-86540057D01*
X118257143Y-86540057D02*
X118209524Y-86635295D01*
X118209524Y-86635295D02*
X118209524Y-86778152D01*
X118209524Y-86778152D02*
X118257143Y-86873390D01*
X118257143Y-86873390D02*
X118304762Y-86921009D01*
X118304762Y-86921009D02*
X118400000Y-86968628D01*
X118400000Y-86968628D02*
X118780952Y-86968628D01*
X117923809Y-86444819D02*
X117352381Y-86444819D01*
X117638095Y-87444819D02*
X117638095Y-86444819D01*
X117066666Y-87397200D02*
X116923809Y-87444819D01*
X116923809Y-87444819D02*
X116685714Y-87444819D01*
X116685714Y-87444819D02*
X116590476Y-87397200D01*
X116590476Y-87397200D02*
X116542857Y-87349580D01*
X116542857Y-87349580D02*
X116495238Y-87254342D01*
X116495238Y-87254342D02*
X116495238Y-87159104D01*
X116495238Y-87159104D02*
X116542857Y-87063866D01*
X116542857Y-87063866D02*
X116590476Y-87016247D01*
X116590476Y-87016247D02*
X116685714Y-86968628D01*
X116685714Y-86968628D02*
X116876190Y-86921009D01*
X116876190Y-86921009D02*
X116971428Y-86873390D01*
X116971428Y-86873390D02*
X117019047Y-86825771D01*
X117019047Y-86825771D02*
X117066666Y-86730533D01*
X117066666Y-86730533D02*
X117066666Y-86635295D01*
X117066666Y-86635295D02*
X117019047Y-86540057D01*
X117019047Y-86540057D02*
X116971428Y-86492438D01*
X116971428Y-86492438D02*
X116876190Y-86444819D01*
X116876190Y-86444819D02*
X116638095Y-86444819D01*
X116638095Y-86444819D02*
X116495238Y-86492438D01*
X114828571Y-87444819D02*
X115304761Y-87444819D01*
X115304761Y-87444819D02*
X115304761Y-86444819D01*
X114066666Y-87444819D02*
X114066666Y-86921009D01*
X114066666Y-86921009D02*
X114114285Y-86825771D01*
X114114285Y-86825771D02*
X114209523Y-86778152D01*
X114209523Y-86778152D02*
X114399999Y-86778152D01*
X114399999Y-86778152D02*
X114495237Y-86825771D01*
X114066666Y-87397200D02*
X114161904Y-87444819D01*
X114161904Y-87444819D02*
X114399999Y-87444819D01*
X114399999Y-87444819D02*
X114495237Y-87397200D01*
X114495237Y-87397200D02*
X114542856Y-87301961D01*
X114542856Y-87301961D02*
X114542856Y-87206723D01*
X114542856Y-87206723D02*
X114495237Y-87111485D01*
X114495237Y-87111485D02*
X114399999Y-87063866D01*
X114399999Y-87063866D02*
X114161904Y-87063866D01*
X114161904Y-87063866D02*
X114066666Y-87016247D01*
X113590475Y-87444819D02*
X113590475Y-86444819D01*
X113590475Y-86825771D02*
X113495237Y-86778152D01*
X113495237Y-86778152D02*
X113304761Y-86778152D01*
X113304761Y-86778152D02*
X113209523Y-86825771D01*
X113209523Y-86825771D02*
X113161904Y-86873390D01*
X113161904Y-86873390D02*
X113114285Y-86968628D01*
X113114285Y-86968628D02*
X113114285Y-87254342D01*
X113114285Y-87254342D02*
X113161904Y-87349580D01*
X113161904Y-87349580D02*
X113209523Y-87397200D01*
X113209523Y-87397200D02*
X113304761Y-87444819D01*
X113304761Y-87444819D02*
X113495237Y-87444819D01*
X113495237Y-87444819D02*
X113590475Y-87397200D01*
D12*
%TO.C,USC*%
G36*
X115347247Y-102016310D02*
G01*
X115388426Y-102033970D01*
X115426725Y-102069809D01*
X115449360Y-102108629D01*
X115443548Y-102135233D01*
X115430158Y-102146950D01*
X115392262Y-102200317D01*
X115353609Y-102273998D01*
X115323556Y-102348836D01*
X115311459Y-102405674D01*
X115309730Y-102435937D01*
X115296175Y-102456556D01*
X115260503Y-102449651D01*
X115192628Y-102416105D01*
X115110932Y-102372543D01*
X115158137Y-102311929D01*
X115174764Y-102288190D01*
X115216904Y-102215734D01*
X115257009Y-102133721D01*
X115278438Y-102090503D01*
X115314508Y-102037020D01*
X115343365Y-102016129D01*
X115347247Y-102016310D01*
G37*
G36*
X117716863Y-98897106D02*
G01*
X117888432Y-98898969D01*
X118032441Y-98902415D01*
X118143402Y-98907241D01*
X118215830Y-98913242D01*
X118244238Y-98920217D01*
X118242679Y-98943406D01*
X118220573Y-98998256D01*
X118181685Y-99068755D01*
X118104678Y-99193907D01*
X117613799Y-99193907D01*
X117122919Y-99193907D01*
X117045912Y-99068755D01*
X117013469Y-99011202D01*
X116987628Y-98952196D01*
X116983359Y-98920217D01*
X116993040Y-98916310D01*
X117046100Y-98909840D01*
X117140193Y-98904454D01*
X117269831Y-98900354D01*
X117429528Y-98897745D01*
X117613799Y-98896831D01*
X117716863Y-98897106D01*
G37*
G36*
X116814389Y-102038008D02*
G01*
X116836254Y-102065642D01*
X116837051Y-102073052D01*
X116852277Y-102127766D01*
X116880556Y-102196859D01*
X116914442Y-102265086D01*
X116946490Y-102317202D01*
X116969254Y-102337961D01*
X116979687Y-102338859D01*
X116995183Y-102356140D01*
X116975833Y-102387577D01*
X116926810Y-102422827D01*
X116864178Y-102451586D01*
X116813635Y-102456825D01*
X116796840Y-102426240D01*
X116788608Y-102390101D01*
X116764921Y-102322218D01*
X116731194Y-102239371D01*
X116718851Y-102210347D01*
X116689938Y-102128470D01*
X116687975Y-102078195D01*
X116714757Y-102050618D01*
X116772083Y-102036836D01*
X116814389Y-102038008D01*
G37*
G36*
X116029014Y-102391866D02*
G01*
X116025249Y-102462878D01*
X116006315Y-102516173D01*
X115964164Y-102558971D01*
X115886945Y-102596716D01*
X115786404Y-102608436D01*
X115683661Y-102592450D01*
X115594574Y-102551386D01*
X115535000Y-102487870D01*
X115509286Y-102416155D01*
X115684559Y-102416155D01*
X115697831Y-102496853D01*
X115728749Y-102528427D01*
X115779615Y-102532871D01*
X115826321Y-102504928D01*
X115855968Y-102454963D01*
X115874066Y-102382044D01*
X115871103Y-102312136D01*
X115848161Y-102259635D01*
X115806322Y-102238936D01*
X115789675Y-102240739D01*
X115736559Y-102273648D01*
X115699495Y-102336937D01*
X115684559Y-102416155D01*
X115509286Y-102416155D01*
X115509099Y-102415633D01*
X115511951Y-102324536D01*
X115550856Y-102245855D01*
X115618116Y-102185851D01*
X115706031Y-102150784D01*
X115806902Y-102146913D01*
X115913030Y-102180499D01*
X115965705Y-102210234D01*
X116006767Y-102249407D01*
X116024806Y-102304366D01*
X116028542Y-102382044D01*
X116029014Y-102391866D01*
G37*
G36*
X114676146Y-98896726D02*
G01*
X114820670Y-98898639D01*
X114948534Y-98901995D01*
X115051531Y-98906807D01*
X115121454Y-98913091D01*
X115150094Y-98920860D01*
X115150442Y-98921462D01*
X115148621Y-98959492D01*
X115125460Y-99021099D01*
X115088354Y-99090167D01*
X115044696Y-99150583D01*
X115034250Y-99160580D01*
X115010628Y-99173221D01*
X114972414Y-99182219D01*
X114912627Y-99188162D01*
X114824282Y-99191636D01*
X114700397Y-99193229D01*
X114533987Y-99193528D01*
X114526642Y-99193519D01*
X114378327Y-99192403D01*
X114247024Y-99189686D01*
X114140859Y-99185671D01*
X114067955Y-99180661D01*
X114036438Y-99174960D01*
X114036225Y-99174804D01*
X113998805Y-99135918D01*
X113956319Y-99076354D01*
X113917628Y-99011058D01*
X113891592Y-98954972D01*
X113887072Y-98923041D01*
X113887470Y-98922538D01*
X113918793Y-98914749D01*
X113990910Y-98908304D01*
X114095615Y-98903216D01*
X114224698Y-98899501D01*
X114369953Y-98897171D01*
X114523172Y-98896241D01*
X114676146Y-98896726D01*
G37*
G36*
X116784369Y-97657676D02*
G01*
X116910197Y-97665486D01*
X117025551Y-97681425D01*
X117120985Y-97705867D01*
X117227805Y-97747623D01*
X117444239Y-97866017D01*
X117632366Y-98021545D01*
X117682613Y-98072108D01*
X117728668Y-98125026D01*
X117752339Y-98171267D01*
X117761079Y-98227353D01*
X117762337Y-98309811D01*
X117763444Y-98378522D01*
X117769207Y-98506124D01*
X117778241Y-98620879D01*
X117782253Y-98714626D01*
X117771289Y-98768262D01*
X117747891Y-98774687D01*
X117715290Y-98733194D01*
X117676715Y-98643078D01*
X117589881Y-98457163D01*
X117458240Y-98269536D01*
X117295552Y-98102184D01*
X117111331Y-97964803D01*
X116915090Y-97867084D01*
X116905814Y-97863651D01*
X116781665Y-97824236D01*
X116646550Y-97790813D01*
X116519440Y-97767535D01*
X116419305Y-97758555D01*
X116402611Y-97758123D01*
X116348353Y-97750743D01*
X116326469Y-97737257D01*
X116328831Y-97727500D01*
X116365298Y-97700263D01*
X116438534Y-97679289D01*
X116539090Y-97664950D01*
X116657518Y-97657622D01*
X116784369Y-97657676D01*
G37*
G36*
X115465378Y-97661318D02*
G01*
X115578507Y-97671098D01*
X115671271Y-97686416D01*
X115734013Y-97706803D01*
X115757073Y-97731788D01*
X115755854Y-97734097D01*
X115723700Y-97745768D01*
X115656735Y-97757983D01*
X115566877Y-97768445D01*
X115564118Y-97768699D01*
X115455332Y-97783652D01*
X115351945Y-97805927D01*
X115275990Y-97830801D01*
X115254252Y-97840351D01*
X115175665Y-97872415D01*
X115113409Y-97894515D01*
X115084437Y-97905013D01*
X114987170Y-97956575D01*
X114876659Y-98033056D01*
X114766282Y-98124605D01*
X114669418Y-98221374D01*
X114640232Y-98255639D01*
X114570609Y-98347794D01*
X114504388Y-98447757D01*
X114448503Y-98543950D01*
X114409888Y-98624799D01*
X114395475Y-98678727D01*
X114391743Y-98699035D01*
X114364530Y-98744652D01*
X114353792Y-98750024D01*
X114343272Y-98733990D01*
X114335792Y-98686465D01*
X114330514Y-98601444D01*
X114326598Y-98472920D01*
X114326581Y-98472194D01*
X114324033Y-98345290D01*
X114324452Y-98257239D01*
X114329564Y-98197447D01*
X114341094Y-98155321D01*
X114360767Y-98120269D01*
X114390309Y-98081696D01*
X114433978Y-98035297D01*
X114526714Y-97957031D01*
X114641355Y-97874539D01*
X114763956Y-97797034D01*
X114880569Y-97733733D01*
X114977249Y-97693851D01*
X115002399Y-97686982D01*
X115100396Y-97669909D01*
X115216664Y-97660254D01*
X115341545Y-97657547D01*
X115465378Y-97661318D01*
G37*
G36*
X116685678Y-93982347D02*
G01*
X116695602Y-94054144D01*
X116697814Y-94167867D01*
X116697814Y-94390171D01*
X116604978Y-94438018D01*
X116553745Y-94468551D01*
X116432452Y-94573192D01*
X116321331Y-94712195D01*
X116227034Y-94874827D01*
X116156209Y-95050352D01*
X116115509Y-95228038D01*
X116110554Y-95263271D01*
X116099182Y-95333337D01*
X116090213Y-95375242D01*
X116082813Y-95392631D01*
X116059723Y-95406928D01*
X116038623Y-95383435D01*
X116029393Y-95329572D01*
X116028828Y-95314808D01*
X116015417Y-95229962D01*
X115987967Y-95120636D01*
X115951555Y-95003526D01*
X115911259Y-94895322D01*
X115872158Y-94812718D01*
X115809130Y-94712303D01*
X115686316Y-94565340D01*
X115542653Y-94451583D01*
X115408493Y-94365762D01*
X115415678Y-94162126D01*
X115421441Y-94063293D01*
X115435412Y-93987370D01*
X115461801Y-93954207D01*
X115505506Y-93962557D01*
X115571426Y-94011172D01*
X115664458Y-94098807D01*
X115791853Y-94245502D01*
X115898199Y-94409756D01*
X115975647Y-94577717D01*
X116016765Y-94735949D01*
X116024363Y-94782547D01*
X116038186Y-94839366D01*
X116050614Y-94861548D01*
X116059585Y-94851166D01*
X116077930Y-94804457D01*
X116097749Y-94732897D01*
X116170339Y-94513867D01*
X116286853Y-94306369D01*
X116448134Y-94115855D01*
X116470269Y-94093885D01*
X116560338Y-94008245D01*
X116622976Y-93960424D01*
X116663113Y-93951449D01*
X116685678Y-93982347D01*
G37*
G36*
X116519583Y-102212061D02*
G01*
X116518458Y-102229900D01*
X116527837Y-102297119D01*
X116567843Y-102345947D01*
X116574208Y-102351363D01*
X116618096Y-102418680D01*
X116620801Y-102495849D01*
X116615957Y-102505896D01*
X116584693Y-102570736D01*
X116512142Y-102631207D01*
X116491529Y-102640602D01*
X116403423Y-102657446D01*
X116308720Y-102650693D01*
X116232952Y-102621255D01*
X116198062Y-102576560D01*
X116177986Y-102502329D01*
X116178632Y-102485045D01*
X116311686Y-102485045D01*
X116325367Y-102533952D01*
X116364172Y-102577031D01*
X116409107Y-102583470D01*
X116447622Y-102557242D01*
X116469025Y-102505896D01*
X116462629Y-102436987D01*
X116438067Y-102397485D01*
X116394918Y-102393446D01*
X116340711Y-102434927D01*
X116336645Y-102439507D01*
X116311686Y-102485045D01*
X116178632Y-102485045D01*
X116180887Y-102424727D01*
X116208877Y-102366127D01*
X116209241Y-102365758D01*
X116224967Y-102336113D01*
X116196498Y-102310433D01*
X116168228Y-102279063D01*
X116153175Y-102213520D01*
X116156062Y-102189423D01*
X116289335Y-102189423D01*
X116296112Y-102227663D01*
X116320267Y-102257499D01*
X116324203Y-102258538D01*
X116355472Y-102245015D01*
X116372118Y-102202767D01*
X116366239Y-102150230D01*
X116359007Y-102136018D01*
X116329938Y-102119947D01*
X116301895Y-102140205D01*
X116289335Y-102189423D01*
X116156062Y-102189423D01*
X116156718Y-102183947D01*
X116195254Y-102117852D01*
X116267952Y-102072550D01*
X116364501Y-102055739D01*
X116382478Y-102056162D01*
X116465493Y-102076221D01*
X116510610Y-102127599D01*
X116518596Y-102202767D01*
X116519583Y-102212061D01*
G37*
G36*
X112776228Y-101758746D02*
G01*
X112789930Y-101795661D01*
X112803939Y-101850333D01*
X112798487Y-101885744D01*
X112797349Y-101893132D01*
X112769325Y-101946871D01*
X112764852Y-101954238D01*
X112764798Y-101954327D01*
X112714669Y-102016775D01*
X112661176Y-102059032D01*
X112617869Y-102077566D01*
X112534001Y-102086774D01*
X112443315Y-102055120D01*
X112398168Y-102024479D01*
X112375036Y-101993397D01*
X112513993Y-101993397D01*
X112518167Y-102003836D01*
X112551128Y-102016129D01*
X112575350Y-102004015D01*
X112588263Y-101954238D01*
X112583912Y-101921957D01*
X112643155Y-101921957D01*
X112656995Y-101941860D01*
X112679708Y-101932481D01*
X112694832Y-101885744D01*
X112685593Y-101805700D01*
X112682206Y-101791807D01*
X112670907Y-101762110D01*
X112665123Y-101780944D01*
X112660746Y-101818090D01*
X112654855Y-101847108D01*
X112646928Y-101886158D01*
X112643155Y-101921957D01*
X112583912Y-101921957D01*
X112582779Y-101913549D01*
X112566155Y-101892347D01*
X112548644Y-101902146D01*
X112524656Y-101942630D01*
X112513993Y-101993397D01*
X112375036Y-101993397D01*
X112339603Y-101945788D01*
X112317157Y-101851063D01*
X112321455Y-101824267D01*
X112416708Y-101824267D01*
X112416803Y-101841095D01*
X112424227Y-101895262D01*
X112439724Y-101917103D01*
X112459338Y-101897448D01*
X112459479Y-101847108D01*
X112439724Y-101780944D01*
X112538750Y-101780944D01*
X112551128Y-101793322D01*
X112563506Y-101780944D01*
X112551128Y-101768565D01*
X112538750Y-101780944D01*
X112439724Y-101780944D01*
X112427720Y-101758920D01*
X112419788Y-101769203D01*
X112416708Y-101824267D01*
X112321455Y-101824267D01*
X112332752Y-101753836D01*
X112380764Y-101679340D01*
X112520698Y-101679340D01*
X112521082Y-101687790D01*
X112553191Y-101692342D01*
X112577525Y-101688378D01*
X112568148Y-101677385D01*
X112553832Y-101673430D01*
X112520698Y-101679340D01*
X112380764Y-101679340D01*
X112388307Y-101667636D01*
X112452519Y-101619476D01*
X112546584Y-101592690D01*
X112638754Y-101608585D01*
X112718734Y-101664743D01*
X112733190Y-101688378D01*
X112776228Y-101758746D01*
G37*
G36*
X114737819Y-102292593D02*
G01*
X114792104Y-102320218D01*
X114856252Y-102365217D01*
X114899614Y-102397946D01*
X115033716Y-102481148D01*
X115201312Y-102561872D01*
X115410260Y-102644074D01*
X115424029Y-102649062D01*
X115498138Y-102675045D01*
X115561363Y-102693803D01*
X115623768Y-102706498D01*
X115695422Y-102714294D01*
X115786388Y-102718355D01*
X115906735Y-102719844D01*
X116066528Y-102719924D01*
X116206085Y-102719467D01*
X116333724Y-102717656D01*
X116430467Y-102713443D01*
X116506401Y-102705748D01*
X116571610Y-102693489D01*
X116636178Y-102675587D01*
X116710192Y-102650960D01*
X116764950Y-102631141D01*
X116919900Y-102566524D01*
X117070289Y-102492781D01*
X117201722Y-102417318D01*
X117299803Y-102347544D01*
X117340828Y-102316738D01*
X117408388Y-102290593D01*
X117462671Y-102310559D01*
X117508440Y-102377316D01*
X117550818Y-102466184D01*
X117464715Y-102537567D01*
X117446472Y-102552102D01*
X117335720Y-102626307D01*
X117196424Y-102703340D01*
X117044501Y-102774941D01*
X116895865Y-102832849D01*
X116811735Y-102862138D01*
X116733836Y-102890433D01*
X116685436Y-102909404D01*
X116663589Y-102917441D01*
X116594780Y-102936752D01*
X116512142Y-102955155D01*
X116489204Y-102958677D01*
X116403563Y-102965821D01*
X116285964Y-102970561D01*
X116148844Y-102972501D01*
X116004637Y-102971249D01*
X115993161Y-102971008D01*
X115843782Y-102967050D01*
X115730105Y-102961225D01*
X115639176Y-102951724D01*
X115558042Y-102936738D01*
X115473751Y-102914458D01*
X115373350Y-102883074D01*
X115296547Y-102857663D01*
X115202657Y-102824983D01*
X115133780Y-102799036D01*
X115101031Y-102783871D01*
X115072082Y-102767833D01*
X115015995Y-102746350D01*
X114975670Y-102727321D01*
X114905787Y-102686868D01*
X114820989Y-102633856D01*
X114734348Y-102576698D01*
X114658936Y-102523810D01*
X114607826Y-102483606D01*
X114601241Y-102460399D01*
X114615177Y-102410425D01*
X114645962Y-102353885D01*
X114683960Y-102307614D01*
X114719533Y-102288449D01*
X114737819Y-102292593D01*
G37*
G36*
X114764275Y-94207540D02*
G01*
X114836865Y-94240485D01*
X114847892Y-94246347D01*
X114933421Y-94301226D01*
X115040313Y-94381211D01*
X115157568Y-94477034D01*
X115274187Y-94579426D01*
X115379168Y-94679118D01*
X115461513Y-94766840D01*
X115529063Y-94848974D01*
X115642033Y-94999839D01*
X115749844Y-95159203D01*
X115847010Y-95317910D01*
X115928046Y-95466806D01*
X115987466Y-95596735D01*
X116019784Y-95698542D01*
X116020902Y-95703920D01*
X116037089Y-95756087D01*
X116053881Y-95777532D01*
X116063457Y-95769554D01*
X116087703Y-95726973D01*
X116115929Y-95659940D01*
X116149386Y-95575213D01*
X116294527Y-95281309D01*
X116480746Y-94993244D01*
X116701876Y-94720902D01*
X116717886Y-94703415D01*
X116833004Y-94587124D01*
X116955161Y-94477713D01*
X117077513Y-94380031D01*
X117193218Y-94298927D01*
X117295432Y-94239250D01*
X117377312Y-94205849D01*
X117432014Y-94203571D01*
X117435663Y-94205751D01*
X117452132Y-94243377D01*
X117461408Y-94314019D01*
X117463943Y-94404150D01*
X117460192Y-94500243D01*
X117450606Y-94588770D01*
X117435641Y-94656204D01*
X117415748Y-94689018D01*
X117387654Y-94702140D01*
X117322940Y-94731089D01*
X117243257Y-94765909D01*
X117055252Y-94865041D01*
X116853918Y-95006183D01*
X116659292Y-95175856D01*
X116482336Y-95364458D01*
X116334012Y-95562386D01*
X116332235Y-95565109D01*
X116264580Y-95674660D01*
X116202540Y-95785489D01*
X116151494Y-95886922D01*
X116116822Y-95968286D01*
X116103904Y-96018907D01*
X116093587Y-96049264D01*
X116066557Y-96044411D01*
X116030953Y-96007456D01*
X115994923Y-95943999D01*
X115944060Y-95841370D01*
X115861132Y-95696170D01*
X115766141Y-95546565D01*
X115669718Y-95409148D01*
X115582496Y-95300507D01*
X115425300Y-95142883D01*
X115181233Y-94950833D01*
X114907718Y-94787291D01*
X114680173Y-94670095D01*
X114673049Y-94443571D01*
X114671576Y-94384255D01*
X114673735Y-94283099D01*
X114687027Y-94223495D01*
X114715768Y-94200093D01*
X114764275Y-94207540D01*
G37*
G36*
X118492648Y-95567103D02*
G01*
X118487643Y-95836177D01*
X118485421Y-95927037D01*
X118481751Y-96021514D01*
X118477547Y-96087522D01*
X118473347Y-96114540D01*
X118465358Y-96115368D01*
X118418852Y-96109578D01*
X118341031Y-96095476D01*
X118243167Y-96074999D01*
X118116793Y-96052225D01*
X117911147Y-96031496D01*
X117698615Y-96026314D01*
X117497085Y-96036906D01*
X117324448Y-96063493D01*
X117171197Y-96107843D01*
X116931338Y-96211706D01*
X116689303Y-96355627D01*
X116452278Y-96535138D01*
X116227444Y-96745772D01*
X116210858Y-96762846D01*
X116146125Y-96826492D01*
X116095563Y-96871625D01*
X116068956Y-96889381D01*
X116067191Y-96889110D01*
X116037235Y-96868863D01*
X115980627Y-96821200D01*
X115904753Y-96752571D01*
X115816999Y-96669423D01*
X115709920Y-96569434D01*
X115497112Y-96395024D01*
X115286149Y-96257842D01*
X115066769Y-96151667D01*
X114828711Y-96070278D01*
X114722069Y-96046391D01*
X114527536Y-96024560D01*
X114313153Y-96021675D01*
X114094703Y-96037695D01*
X113887970Y-96072582D01*
X113836806Y-96084070D01*
X113744709Y-96104184D01*
X113677071Y-96118191D01*
X113645785Y-96123585D01*
X113639275Y-96104967D01*
X113634332Y-96046007D01*
X113632230Y-95956274D01*
X113633407Y-95845612D01*
X113640407Y-95567103D01*
X113887970Y-95569680D01*
X113990997Y-95574574D01*
X114212914Y-95604465D01*
X114452851Y-95657935D01*
X114696547Y-95730988D01*
X114929739Y-95819630D01*
X115138165Y-95919866D01*
X115310414Y-96025441D01*
X115542017Y-96201103D01*
X115757903Y-96402435D01*
X115942978Y-96616373D01*
X115992337Y-96676819D01*
X116038114Y-96724240D01*
X116065426Y-96742034D01*
X116067838Y-96741483D01*
X116097739Y-96717119D01*
X116145682Y-96663946D01*
X116202491Y-96592009D01*
X116370316Y-96393698D01*
X116611346Y-96173468D01*
X116884856Y-95982836D01*
X117184116Y-95826375D01*
X117502395Y-95708660D01*
X117513125Y-95705477D01*
X117765217Y-95636229D01*
X117978716Y-95589456D01*
X118158470Y-95564262D01*
X118309329Y-95559752D01*
X118492648Y-95567103D01*
G37*
G36*
X114585770Y-96305361D02*
G01*
X114909617Y-96387638D01*
X115237190Y-96519286D01*
X115403055Y-96603669D01*
X115689226Y-96782494D01*
X115932147Y-96983232D01*
X115978738Y-97025272D01*
X116043648Y-97069696D01*
X116086874Y-97075506D01*
X116108649Y-97064494D01*
X116128418Y-97041779D01*
X116138137Y-97024978D01*
X116181512Y-96982365D01*
X116251996Y-96923589D01*
X116341161Y-96855064D01*
X116440578Y-96783205D01*
X116541820Y-96714425D01*
X116636457Y-96655140D01*
X116717311Y-96609656D01*
X116903279Y-96517737D01*
X117103676Y-96432398D01*
X117300307Y-96361102D01*
X117474977Y-96311308D01*
X117496057Y-96306604D01*
X117741366Y-96274897D01*
X118009584Y-96278137D01*
X118290301Y-96315612D01*
X118573107Y-96386607D01*
X118777346Y-96450358D01*
X118777346Y-96720475D01*
X118776831Y-96785949D01*
X118772442Y-96897028D01*
X118763883Y-96966549D01*
X118751528Y-96990593D01*
X118723296Y-96978744D01*
X118667022Y-96943970D01*
X118596801Y-96894296D01*
X118585122Y-96885646D01*
X118339024Y-96734982D01*
X118070733Y-96628487D01*
X118045116Y-96621407D01*
X117915620Y-96598139D01*
X117759386Y-96584550D01*
X117591471Y-96580660D01*
X117426929Y-96586486D01*
X117280815Y-96602048D01*
X117168185Y-96627365D01*
X116859417Y-96739928D01*
X116593758Y-96858796D01*
X116375222Y-96982829D01*
X116202687Y-97112589D01*
X116150828Y-97156129D01*
X116095778Y-97196395D01*
X116063635Y-97212344D01*
X116054998Y-97209944D01*
X116011670Y-97184847D01*
X115945043Y-97138196D01*
X115865584Y-97077137D01*
X115768919Y-97005230D01*
X115558222Y-96875643D01*
X115326699Y-96762622D01*
X115087491Y-96671526D01*
X114853736Y-96607716D01*
X114638574Y-96576552D01*
X114431743Y-96575108D01*
X114179486Y-96604912D01*
X113940836Y-96667145D01*
X113725639Y-96759094D01*
X113543740Y-96878049D01*
X113516976Y-96899886D01*
X113444851Y-96957899D01*
X113398137Y-96987281D01*
X113371349Y-96983863D01*
X113359004Y-96943478D01*
X113355619Y-96861956D01*
X113355709Y-96735131D01*
X113355709Y-96451990D01*
X113498058Y-96400148D01*
X113636580Y-96354764D01*
X113949252Y-96288925D01*
X114265649Y-96272457D01*
X114585770Y-96305361D01*
G37*
G36*
X117575255Y-102672649D02*
G01*
X117621031Y-102713007D01*
X117679618Y-102771303D01*
X117727793Y-102817859D01*
X117824813Y-102899639D01*
X117919549Y-102967947D01*
X117976911Y-103006270D01*
X118027952Y-103050218D01*
X118054935Y-103095795D01*
X118069336Y-103157529D01*
X118072250Y-103179039D01*
X118073657Y-103247211D01*
X118061675Y-103286342D01*
X118043381Y-103291804D01*
X117988376Y-103279613D01*
X117910965Y-103246344D01*
X117821667Y-103197412D01*
X117731005Y-103138232D01*
X117649501Y-103074219D01*
X117541903Y-102979507D01*
X117443960Y-103041335D01*
X117413951Y-103059330D01*
X117276564Y-103127292D01*
X117104792Y-103195516D01*
X116910295Y-103260040D01*
X116704733Y-103316904D01*
X116499763Y-103362145D01*
X116464743Y-103365126D01*
X116385632Y-103367487D01*
X116274300Y-103368551D01*
X116140069Y-103368238D01*
X115992259Y-103366470D01*
X115851957Y-103363600D01*
X115713329Y-103358676D01*
X115606173Y-103351336D01*
X115520471Y-103340583D01*
X115446204Y-103325419D01*
X115373350Y-103304847D01*
X115332886Y-103292144D01*
X115145027Y-103231462D01*
X114996534Y-103179897D01*
X114880203Y-103134683D01*
X114788825Y-103093053D01*
X114715195Y-103052243D01*
X114593797Y-102977546D01*
X114522732Y-103047666D01*
X114481532Y-103083555D01*
X114395879Y-103145664D01*
X114297258Y-103207860D01*
X114202726Y-103259618D01*
X114129344Y-103290411D01*
X114104929Y-103296210D01*
X114083836Y-103289499D01*
X114075263Y-103254995D01*
X114073643Y-103181848D01*
X114074815Y-103119850D01*
X114085486Y-103070496D01*
X114116524Y-103037782D01*
X114178796Y-103003256D01*
X114185483Y-102999710D01*
X114257483Y-102951711D01*
X114343281Y-102882115D01*
X114425742Y-102804702D01*
X114447277Y-102782849D01*
X114511052Y-102720088D01*
X114558561Y-102676268D01*
X114580810Y-102659794D01*
X114581101Y-102659812D01*
X114608010Y-102673574D01*
X114663578Y-102708007D01*
X114736155Y-102755903D01*
X114786988Y-102789723D01*
X114902399Y-102860340D01*
X115015248Y-102917925D01*
X115142458Y-102970584D01*
X115300955Y-103026423D01*
X115304078Y-103027465D01*
X115610832Y-103106793D01*
X115926622Y-103145824D01*
X116244076Y-103145474D01*
X116555819Y-103106654D01*
X116854478Y-103030279D01*
X117132680Y-102917262D01*
X117383050Y-102768516D01*
X117396570Y-102758957D01*
X117470352Y-102708641D01*
X117526725Y-102673199D01*
X117554398Y-102659794D01*
X117575255Y-102672649D01*
G37*
G36*
X115344909Y-97306841D02*
G01*
X115555563Y-97353947D01*
X115652979Y-97394383D01*
X115774932Y-97458544D01*
X115891041Y-97531268D01*
X115980692Y-97600596D01*
X116043394Y-97657973D01*
X116166364Y-97569096D01*
X116180245Y-97559155D01*
X116392665Y-97429420D01*
X116601690Y-97343144D01*
X116802309Y-97302428D01*
X116966242Y-97298801D01*
X117188112Y-97319730D01*
X117415783Y-97365883D01*
X117630974Y-97434351D01*
X117770857Y-97498718D01*
X117933392Y-97591795D01*
X118095493Y-97700265D01*
X118241668Y-97813721D01*
X118356423Y-97921752D01*
X118455514Y-98029253D01*
X118455514Y-98314504D01*
X118454455Y-98406958D01*
X118449734Y-98509652D01*
X118441749Y-98576125D01*
X118431068Y-98599755D01*
X118422097Y-98596184D01*
X118388449Y-98563216D01*
X118347641Y-98506918D01*
X118316078Y-98459996D01*
X118207010Y-98321452D01*
X118072070Y-98174317D01*
X117921896Y-98028567D01*
X117767128Y-97894177D01*
X117618407Y-97781124D01*
X117486372Y-97699384D01*
X117346513Y-97633135D01*
X117099453Y-97550551D01*
X116860486Y-97515586D01*
X116630968Y-97528245D01*
X116412255Y-97588530D01*
X116205701Y-97696445D01*
X116141678Y-97736955D01*
X116083653Y-97770082D01*
X116053230Y-97782795D01*
X116033992Y-97775757D01*
X115982670Y-97747222D01*
X115915470Y-97704234D01*
X115868035Y-97673324D01*
X115691503Y-97580612D01*
X115517047Y-97528010D01*
X115331191Y-97511063D01*
X115319373Y-97511070D01*
X115219920Y-97514309D01*
X115135615Y-97522169D01*
X115083628Y-97533121D01*
X115080403Y-97534382D01*
X115025422Y-97553695D01*
X114941470Y-97581106D01*
X114845358Y-97611112D01*
X114743279Y-97648114D01*
X114620502Y-97703675D01*
X114517307Y-97761240D01*
X114450307Y-97810140D01*
X114351996Y-97892591D01*
X114240037Y-97994375D01*
X114123032Y-98106973D01*
X114009582Y-98221862D01*
X113908287Y-98330523D01*
X113827748Y-98424434D01*
X113776567Y-98495076D01*
X113735699Y-98558221D01*
X113701180Y-98594630D01*
X113677381Y-98591538D01*
X113662549Y-98546479D01*
X113654934Y-98456983D01*
X113652785Y-98320582D01*
X113652785Y-98041409D01*
X113819890Y-97878357D01*
X113848720Y-97850690D01*
X113940231Y-97767626D01*
X114028700Y-97693273D01*
X114098399Y-97641034D01*
X114134649Y-97617424D01*
X114371044Y-97487730D01*
X114618244Y-97390254D01*
X114868273Y-97326566D01*
X115113153Y-97298238D01*
X115344909Y-97306841D01*
G37*
G36*
X118133682Y-95053761D02*
G01*
X118133182Y-95154690D01*
X118128063Y-95241234D01*
X118112604Y-95293701D01*
X118081081Y-95320618D01*
X118027770Y-95330515D01*
X117946943Y-95331918D01*
X117904263Y-95334148D01*
X117798615Y-95348238D01*
X117669396Y-95372493D01*
X117531771Y-95403634D01*
X117400906Y-95438384D01*
X117291966Y-95473465D01*
X117187334Y-95515948D01*
X117057791Y-95577210D01*
X116927004Y-95646707D01*
X116802690Y-95719649D01*
X116692567Y-95791241D01*
X116604353Y-95856693D01*
X116545764Y-95911212D01*
X116524520Y-95950005D01*
X116521197Y-95962880D01*
X116490114Y-95990340D01*
X116475531Y-95999908D01*
X116430465Y-96044937D01*
X116369423Y-96117037D01*
X116299840Y-96206805D01*
X116229153Y-96304836D01*
X116164800Y-96401726D01*
X116132741Y-96449159D01*
X116091939Y-96499438D01*
X116065589Y-96519318D01*
X116063181Y-96518888D01*
X116034744Y-96494451D01*
X115989981Y-96439894D01*
X115937450Y-96365495D01*
X115866480Y-96263428D01*
X115722857Y-96081577D01*
X115573639Y-95920837D01*
X115430101Y-95793914D01*
X115290274Y-95697470D01*
X115053599Y-95571135D01*
X114790453Y-95466943D01*
X114513288Y-95389583D01*
X114234559Y-95343744D01*
X114140256Y-95333435D01*
X114058509Y-95318102D01*
X114009365Y-95291217D01*
X113984531Y-95243289D01*
X113975713Y-95164829D01*
X113974617Y-95046349D01*
X113975219Y-94946963D01*
X113978456Y-94874171D01*
X113986223Y-94833535D01*
X114000411Y-94815881D01*
X114022911Y-94812035D01*
X114056938Y-94814334D01*
X114138963Y-94826507D01*
X114234607Y-94845383D01*
X114322957Y-94866664D01*
X114383097Y-94886052D01*
X114392877Y-94890118D01*
X114455702Y-94912932D01*
X114531635Y-94937310D01*
X114609736Y-94964748D01*
X114765044Y-95035310D01*
X114938038Y-95129609D01*
X115117659Y-95240648D01*
X115292848Y-95361431D01*
X115452548Y-95484960D01*
X115585700Y-95604238D01*
X115590409Y-95608905D01*
X115743164Y-95778420D01*
X115873059Y-95964005D01*
X115991838Y-96182378D01*
X116062460Y-96327283D01*
X116130565Y-96177252D01*
X116148939Y-96138166D01*
X116290310Y-95899472D01*
X116476865Y-95672492D01*
X116709514Y-95456366D01*
X116989164Y-95250233D01*
X117316723Y-95053234D01*
X117355749Y-95032804D01*
X117510387Y-94964196D01*
X117684079Y-94901739D01*
X117856531Y-94852214D01*
X118007450Y-94822402D01*
X118133682Y-94805657D01*
X118133682Y-95053761D01*
G37*
G36*
X117502395Y-96828596D02*
G01*
X117613957Y-96842905D01*
X117816675Y-96884544D01*
X118027392Y-96944207D01*
X118231733Y-97017092D01*
X118415323Y-97098395D01*
X118563790Y-97183311D01*
X118622160Y-97225398D01*
X118720817Y-97304424D01*
X118808292Y-97382604D01*
X118925884Y-97496236D01*
X118925884Y-97837567D01*
X118925739Y-97878030D01*
X118923508Y-97996272D01*
X118918999Y-98091780D01*
X118912749Y-98155630D01*
X118905297Y-98178897D01*
X118886337Y-98163984D01*
X118848660Y-98116938D01*
X118802660Y-98048926D01*
X118716123Y-97928832D01*
X118586479Y-97779948D01*
X118435391Y-97629217D01*
X118274695Y-97487651D01*
X118116228Y-97366261D01*
X117971828Y-97276056D01*
X117836169Y-97211128D01*
X117630547Y-97141482D01*
X117409497Y-97102049D01*
X117159022Y-97089618D01*
X116923889Y-97099895D01*
X116721336Y-97133570D01*
X116540879Y-97194624D01*
X116370768Y-97287038D01*
X116199252Y-97414793D01*
X116165129Y-97442922D01*
X116103036Y-97488999D01*
X116061129Y-97505444D01*
X116027677Y-97494775D01*
X115990945Y-97459512D01*
X115969521Y-97438389D01*
X115887988Y-97375701D01*
X115779117Y-97306874D01*
X115656705Y-97239684D01*
X115534549Y-97181910D01*
X115426444Y-97141327D01*
X115349258Y-97120512D01*
X115245053Y-97102153D01*
X115123390Y-97092453D01*
X114968373Y-97089618D01*
X114940346Y-97089745D01*
X114690991Y-97104727D01*
X114469413Y-97147654D01*
X114263555Y-97222813D01*
X114061360Y-97334490D01*
X113850772Y-97486972D01*
X113840609Y-97495095D01*
X113632175Y-97676656D01*
X113461016Y-97858968D01*
X113316576Y-98053220D01*
X113281405Y-98105052D01*
X113242658Y-98153534D01*
X113215531Y-98169070D01*
X113197983Y-98148351D01*
X113187974Y-98088068D01*
X113183464Y-97984911D01*
X113182415Y-97835571D01*
X113182415Y-97488118D01*
X113361898Y-97336391D01*
X113469881Y-97253094D01*
X113692132Y-97116576D01*
X113946435Y-96997455D01*
X114222181Y-96901102D01*
X114305684Y-96877560D01*
X114406512Y-96854256D01*
X114502957Y-96840711D01*
X114612955Y-96834657D01*
X114754442Y-96833827D01*
X114849606Y-96835074D01*
X114966961Y-96840329D01*
X115061076Y-96851539D01*
X115147906Y-96870879D01*
X115243406Y-96900525D01*
X115328535Y-96930483D01*
X115562155Y-97028689D01*
X115754318Y-97137323D01*
X115910810Y-97259498D01*
X116054384Y-97392244D01*
X116152505Y-97303597D01*
X116267857Y-97208673D01*
X116493706Y-97063675D01*
X116740286Y-96949578D01*
X116997395Y-96869973D01*
X117254832Y-96828449D01*
X117502395Y-96828596D01*
G37*
G36*
X115516902Y-98046433D02*
G01*
X115540693Y-98066103D01*
X115590161Y-98117316D01*
X115653561Y-98188848D01*
X115723052Y-98271176D01*
X115790796Y-98354778D01*
X115848951Y-98430132D01*
X115889679Y-98487714D01*
X115905140Y-98518003D01*
X115900854Y-98527272D01*
X115859182Y-98544929D01*
X115779721Y-98555137D01*
X115653831Y-98562620D01*
X115767343Y-98731663D01*
X115783947Y-98756634D01*
X115833354Y-98834250D01*
X115867872Y-98893625D01*
X115880855Y-98923524D01*
X115878334Y-98928636D01*
X115843846Y-98941281D01*
X115781830Y-98946343D01*
X115759665Y-98946859D01*
X115704777Y-98953929D01*
X115682804Y-98966643D01*
X115697030Y-98989068D01*
X115739521Y-99034931D01*
X115800397Y-99092558D01*
X115917990Y-99198174D01*
X115931326Y-99969676D01*
X115944663Y-100741178D01*
X115832301Y-100914055D01*
X115823025Y-100928237D01*
X115759289Y-101021831D01*
X115697302Y-101107342D01*
X115649294Y-101167807D01*
X115642230Y-101175809D01*
X115591854Y-101222812D01*
X115538414Y-101243844D01*
X115458894Y-101248682D01*
X115419048Y-101247460D01*
X115356213Y-101239462D01*
X115325409Y-101226469D01*
X115323763Y-101219581D01*
X115335451Y-101184828D01*
X115372150Y-101123065D01*
X115436156Y-101030673D01*
X115529763Y-100904031D01*
X115587151Y-100827825D01*
X115501912Y-100827825D01*
X115422156Y-100823540D01*
X115338050Y-100812100D01*
X115317883Y-100807829D01*
X115278743Y-100792167D01*
X115265017Y-100759806D01*
X115266876Y-100694507D01*
X115274325Y-100592640D01*
X115466186Y-100585409D01*
X115658048Y-100578179D01*
X115657354Y-99954123D01*
X115656660Y-99330066D01*
X115471148Y-99136704D01*
X115409918Y-99070669D01*
X115349035Y-98999195D01*
X115310236Y-98946264D01*
X115300009Y-98920086D01*
X115307994Y-98913796D01*
X115354373Y-98901653D01*
X115423985Y-98896831D01*
X115533589Y-98896831D01*
X115410146Y-98718200D01*
X115386026Y-98682947D01*
X115335186Y-98605991D01*
X115299909Y-98548720D01*
X115286703Y-98521505D01*
X115291698Y-98515818D01*
X115331367Y-98504008D01*
X115397675Y-98495897D01*
X115508648Y-98488351D01*
X115423311Y-98380764D01*
X115337974Y-98273176D01*
X115215605Y-98400805D01*
X115145677Y-98483341D01*
X115067089Y-98593342D01*
X115002947Y-98700254D01*
X114992204Y-98720381D01*
X114947538Y-98797535D01*
X114910569Y-98851660D01*
X114888414Y-98872074D01*
X114882124Y-98864710D01*
X114873915Y-98816442D01*
X114870139Y-98728441D01*
X114871197Y-98606913D01*
X114878224Y-98341752D01*
X115002005Y-98248229D01*
X115005984Y-98245251D01*
X115091160Y-98190457D01*
X115191794Y-98138266D01*
X115296285Y-98093221D01*
X115393033Y-98059870D01*
X115470439Y-98042759D01*
X115516902Y-98046433D01*
G37*
G36*
X116685038Y-98032885D02*
G01*
X116755678Y-98054069D01*
X116849518Y-98091818D01*
X116953258Y-98140116D01*
X117053598Y-98192950D01*
X117137239Y-98244304D01*
X117267210Y-98333464D01*
X117267210Y-98590391D01*
X117266156Y-98670833D01*
X117261838Y-98762023D01*
X117254956Y-98824280D01*
X117246346Y-98847318D01*
X117235163Y-98840008D01*
X117204818Y-98799789D01*
X117168319Y-98736175D01*
X117147096Y-98698350D01*
X117093987Y-98617215D01*
X117029401Y-98529432D01*
X116961164Y-98444543D01*
X116897104Y-98372092D01*
X116845045Y-98321622D01*
X116812817Y-98302679D01*
X116796119Y-98309143D01*
X116752276Y-98344971D01*
X116700791Y-98401704D01*
X116621212Y-98500729D01*
X116733782Y-98500729D01*
X116763042Y-98501512D01*
X116823638Y-98510849D01*
X116846352Y-98528520D01*
X116842726Y-98538387D01*
X116813288Y-98580983D01*
X116760677Y-98644872D01*
X116692641Y-98720381D01*
X116538931Y-98884452D01*
X116643129Y-98892065D01*
X116702633Y-98900729D01*
X116739029Y-98922419D01*
X116740726Y-98962079D01*
X116707639Y-99025405D01*
X116639680Y-99118097D01*
X116628148Y-99132814D01*
X116579907Y-99194766D01*
X116542906Y-99247210D01*
X116515825Y-99297522D01*
X116497348Y-99353079D01*
X116486155Y-99421258D01*
X116480929Y-99509437D01*
X116480352Y-99624992D01*
X116483105Y-99775301D01*
X116487871Y-99967741D01*
X116502689Y-100567883D01*
X116693088Y-100580261D01*
X116883487Y-100592640D01*
X116891389Y-100689145D01*
X116891843Y-100695024D01*
X116888938Y-100765750D01*
X116862283Y-100805737D01*
X116804043Y-100820306D01*
X116706382Y-100814778D01*
X116658183Y-100810810D01*
X116595822Y-100811618D01*
X116566084Y-100820658D01*
X116565871Y-100826556D01*
X116584737Y-100864545D01*
X116627060Y-100926252D01*
X116686169Y-101001626D01*
X116706228Y-101026335D01*
X116763966Y-101103512D01*
X116804575Y-101167125D01*
X116820278Y-101205359D01*
X116818893Y-101219894D01*
X116801813Y-101237992D01*
X116756776Y-101246536D01*
X116673058Y-101248682D01*
X116605475Y-101246640D01*
X116546793Y-101239912D01*
X116524021Y-101230115D01*
X116514012Y-101210042D01*
X116480097Y-101156798D01*
X116427890Y-101080057D01*
X116363331Y-100988741D01*
X116203139Y-100765934D01*
X116202913Y-99997653D01*
X116202687Y-99229371D01*
X116290061Y-99094046D01*
X116377435Y-98958721D01*
X116277683Y-98951109D01*
X116254930Y-98948680D01*
X116199932Y-98935339D01*
X116177931Y-98917288D01*
X116181812Y-98907014D01*
X116211006Y-98863663D01*
X116262562Y-98798309D01*
X116329019Y-98720661D01*
X116480106Y-98550242D01*
X116367614Y-98550242D01*
X116334676Y-98549281D01*
X116272270Y-98541201D01*
X116241117Y-98527582D01*
X116240296Y-98525383D01*
X116250922Y-98492164D01*
X116283573Y-98438510D01*
X116328546Y-98378805D01*
X116376136Y-98327435D01*
X116377559Y-98326017D01*
X116403010Y-98297438D01*
X116449976Y-98242877D01*
X116509512Y-98172708D01*
X116518644Y-98161996D01*
X116580424Y-98095272D01*
X116632417Y-98048189D01*
X116664179Y-98030359D01*
X116685038Y-98032885D01*
G37*
G36*
X115008491Y-100221235D02*
G01*
X115008813Y-100271656D01*
X115009799Y-100483357D01*
X115010134Y-100678767D01*
X115009846Y-100852350D01*
X115008967Y-100998569D01*
X115007526Y-101111888D01*
X115005553Y-101186770D01*
X115003079Y-101217678D01*
X114998375Y-101224406D01*
X114954896Y-101242077D01*
X114879000Y-101248682D01*
X114766820Y-101248682D01*
X114766820Y-100368966D01*
X114766820Y-99489251D01*
X114513068Y-99496306D01*
X114259315Y-99503361D01*
X114246937Y-100369833D01*
X114234559Y-101236304D01*
X114135533Y-101236304D01*
X114036508Y-101236304D01*
X114029817Y-100722610D01*
X114023125Y-100208916D01*
X113924602Y-100208916D01*
X113826079Y-100208916D01*
X113826079Y-100730294D01*
X113826079Y-101251671D01*
X113733243Y-101243988D01*
X113640407Y-101236304D01*
X113633715Y-100722610D01*
X113627024Y-100208916D01*
X113529003Y-100208916D01*
X113430982Y-100208916D01*
X113424291Y-100722610D01*
X113417600Y-101236304D01*
X113330953Y-101236304D01*
X113244305Y-101236304D01*
X113237614Y-100722610D01*
X113230923Y-100208916D01*
X113120524Y-100208916D01*
X113010125Y-100208916D01*
X113003433Y-100722610D01*
X112996742Y-101236304D01*
X112927165Y-101244282D01*
X112885419Y-101247448D01*
X112850082Y-101242341D01*
X112824317Y-101222605D01*
X112806616Y-101182426D01*
X112795473Y-101115990D01*
X112789379Y-101017485D01*
X112786829Y-100881097D01*
X112786313Y-100701012D01*
X112786313Y-100208916D01*
X112700168Y-100208916D01*
X112614023Y-100208916D01*
X112607332Y-100722610D01*
X112600641Y-101236304D01*
X112501615Y-101236304D01*
X112402590Y-101236304D01*
X112395993Y-100588248D01*
X112394545Y-100441575D01*
X112393313Y-100278289D01*
X112393318Y-100154623D01*
X112394949Y-100064846D01*
X112398595Y-100003230D01*
X112404644Y-99964045D01*
X112413486Y-99941561D01*
X112425509Y-99930050D01*
X112441104Y-99923781D01*
X112468676Y-99917326D01*
X112538054Y-99919148D01*
X112591574Y-99943220D01*
X112613019Y-99983873D01*
X112613906Y-99994879D01*
X112636866Y-100025047D01*
X112698492Y-100040184D01*
X112726419Y-100043175D01*
X112766999Y-100040350D01*
X112784265Y-100013553D01*
X112791328Y-99950056D01*
X112794536Y-99912189D01*
X112806259Y-99868194D01*
X112837777Y-99849636D01*
X112903906Y-99842337D01*
X113009120Y-99834724D01*
X113009120Y-99932573D01*
X113009392Y-99964858D01*
X113016929Y-100011203D01*
X113045566Y-100031203D01*
X113109432Y-100039988D01*
X113131788Y-100041821D01*
X113191499Y-100043291D01*
X113220835Y-100038462D01*
X113226083Y-100014437D01*
X113230307Y-99953537D01*
X113231927Y-99870580D01*
X113231964Y-99838984D01*
X113234024Y-99767176D01*
X113242910Y-99729945D01*
X113263643Y-99715936D01*
X113301245Y-99713790D01*
X113347844Y-99718114D01*
X113397009Y-99745513D01*
X113422620Y-99804995D01*
X113429978Y-99904413D01*
X113429978Y-100035622D01*
X113528137Y-100035622D01*
X113626296Y-100035622D01*
X113633352Y-99781870D01*
X113640407Y-99528117D01*
X113727054Y-99528117D01*
X113813701Y-99528117D01*
X113820756Y-99781870D01*
X113827811Y-100035622D01*
X113925342Y-100035622D01*
X114022873Y-100035622D01*
X114029690Y-99645710D01*
X114036508Y-99255797D01*
X114519257Y-99255797D01*
X115002005Y-99255797D01*
X115008491Y-100221235D01*
G37*
G36*
X118128121Y-99645710D02*
G01*
X118134939Y-100035622D01*
X118220957Y-100035622D01*
X118306976Y-100035622D01*
X118306976Y-99788530D01*
X118307018Y-99730795D01*
X118308255Y-99638180D01*
X118313034Y-99580941D01*
X118323763Y-99549425D01*
X118342849Y-99533977D01*
X118372698Y-99524943D01*
X118386186Y-99521767D01*
X118442043Y-99516927D01*
X118480177Y-99535525D01*
X118504214Y-99584055D01*
X118517777Y-99669007D01*
X118524490Y-99796875D01*
X118531576Y-100035622D01*
X118628523Y-100035622D01*
X118725471Y-100035622D01*
X118732841Y-99880895D01*
X118740212Y-99726168D01*
X118826859Y-99726168D01*
X118913506Y-99726168D01*
X118920877Y-99880895D01*
X118928247Y-100035622D01*
X119024597Y-100035622D01*
X119048542Y-100035480D01*
X119098979Y-100029080D01*
X119120451Y-100002844D01*
X119128630Y-99942786D01*
X119129725Y-99930136D01*
X119140054Y-99875244D01*
X119167858Y-99851292D01*
X119229149Y-99842266D01*
X119258891Y-99839981D01*
X119303244Y-99843016D01*
X119319625Y-99868905D01*
X119321986Y-99930976D01*
X119322190Y-99949175D01*
X119326163Y-100009034D01*
X119333607Y-100038991D01*
X119344112Y-100044677D01*
X119390139Y-100046963D01*
X119448553Y-100036597D01*
X119498728Y-100018264D01*
X119520036Y-99996650D01*
X119523424Y-99980536D01*
X119558957Y-99943659D01*
X119618397Y-99921545D01*
X119683258Y-99922585D01*
X119742843Y-99937540D01*
X119742843Y-100576607D01*
X119742358Y-100730769D01*
X119740745Y-100889576D01*
X119738167Y-101025870D01*
X119734794Y-101132902D01*
X119730794Y-101203921D01*
X119726339Y-101232178D01*
X119686032Y-101248107D01*
X119625010Y-101248343D01*
X119567074Y-101234580D01*
X119535063Y-101209523D01*
X119534666Y-101208322D01*
X119530041Y-101168572D01*
X119526025Y-101088335D01*
X119522858Y-100975956D01*
X119520782Y-100839778D01*
X119520036Y-100688146D01*
X119520036Y-100205928D01*
X119427200Y-100213611D01*
X119334364Y-100221295D01*
X119343730Y-100680722D01*
X119345746Y-100821422D01*
X119345946Y-100957593D01*
X119344276Y-101071114D01*
X119340873Y-101153037D01*
X119335873Y-101194416D01*
X119323754Y-101220506D01*
X119288988Y-101242880D01*
X119221292Y-101248682D01*
X119123935Y-101248682D01*
X119123935Y-100727305D01*
X119123935Y-100205928D01*
X119031099Y-100213611D01*
X118938263Y-100221295D01*
X118931571Y-100734988D01*
X118924880Y-101248682D01*
X118826859Y-101248682D01*
X118728838Y-101248682D01*
X118722147Y-100734988D01*
X118715455Y-100221295D01*
X118622619Y-100213611D01*
X118529783Y-100205928D01*
X118529404Y-100696360D01*
X118529369Y-100717256D01*
X118527984Y-100867995D01*
X118524850Y-101001721D01*
X118520296Y-101110309D01*
X118514650Y-101185634D01*
X118508241Y-101219574D01*
X118471922Y-101240708D01*
X118403405Y-101244330D01*
X118319354Y-101236304D01*
X118312663Y-100722610D01*
X118305971Y-100208916D01*
X118220329Y-100208916D01*
X118134686Y-100208916D01*
X118127995Y-100722610D01*
X118121303Y-101236304D01*
X118009900Y-101236304D01*
X117898496Y-101236304D01*
X117891991Y-100363643D01*
X117885485Y-99490983D01*
X117638555Y-99490983D01*
X117391625Y-99490983D01*
X117385119Y-100363643D01*
X117378613Y-101236304D01*
X117267210Y-101236304D01*
X117155806Y-101236304D01*
X117155806Y-100246051D01*
X117155806Y-99255797D01*
X117638555Y-99255797D01*
X118121303Y-99255797D01*
X118128121Y-99645710D01*
G37*
G36*
X115515733Y-101663663D02*
G01*
X115724702Y-101732732D01*
X115953246Y-101761134D01*
X116208678Y-101751303D01*
X116440243Y-101712479D01*
X116675214Y-101634267D01*
X116816087Y-101554398D01*
X117415748Y-101554398D01*
X117426283Y-101578752D01*
X117458594Y-101636652D01*
X117506953Y-101718116D01*
X117565525Y-101813821D01*
X117628470Y-101914444D01*
X117689953Y-102010664D01*
X117744136Y-102093158D01*
X117785182Y-102152602D01*
X117807254Y-102179674D01*
X117848075Y-102199008D01*
X117922265Y-102224028D01*
X118012291Y-102248476D01*
X118015183Y-102249174D01*
X118098524Y-102268610D01*
X118160089Y-102281762D01*
X118186736Y-102285815D01*
X118210285Y-102277055D01*
X118260196Y-102257495D01*
X118324819Y-102231809D01*
X118175770Y-101969242D01*
X118116113Y-101865692D01*
X118060916Y-101772782D01*
X118017598Y-101702910D01*
X117992277Y-101666179D01*
X117957734Y-101644236D01*
X117875302Y-101618825D01*
X117754870Y-101597010D01*
X117732265Y-101593810D01*
X117628938Y-101579036D01*
X117540422Y-101566161D01*
X117483828Y-101557667D01*
X117436857Y-101552361D01*
X117415748Y-101554398D01*
X116816087Y-101554398D01*
X116876864Y-101519940D01*
X117045758Y-101369239D01*
X117133760Y-101271860D01*
X117367590Y-101297026D01*
X117421420Y-101303091D01*
X117567018Y-101321167D01*
X117724319Y-101342454D01*
X117867555Y-101363523D01*
X118133690Y-101404855D01*
X118226522Y-101566204D01*
X118296263Y-101687160D01*
X118376187Y-101824426D01*
X118437336Y-101926832D01*
X118482961Y-101999215D01*
X118516311Y-102046414D01*
X118540636Y-102073266D01*
X118559187Y-102084608D01*
X118575212Y-102085279D01*
X118575723Y-102085177D01*
X118618044Y-102055903D01*
X118666279Y-101992379D01*
X118713084Y-101907845D01*
X118751112Y-101815541D01*
X118773019Y-101728709D01*
X118773616Y-101724579D01*
X118785985Y-101658410D01*
X118802311Y-101617619D01*
X118825564Y-101604709D01*
X118858714Y-101622180D01*
X118904730Y-101672533D01*
X118966583Y-101758268D01*
X119047243Y-101881887D01*
X119149678Y-102045890D01*
X119176710Y-102089635D01*
X119259960Y-102224228D01*
X119334912Y-102345223D01*
X119397138Y-102445484D01*
X119434575Y-102505612D01*
X119442213Y-102517879D01*
X119465711Y-102555272D01*
X119482653Y-102586798D01*
X119482026Y-102616418D01*
X119455769Y-102653260D01*
X119398263Y-102710237D01*
X119299883Y-102791115D01*
X119115514Y-102896364D01*
X118906756Y-102967887D01*
X118882399Y-102973509D01*
X118666774Y-103000971D01*
X118448796Y-102992235D01*
X118239302Y-102949409D01*
X118049128Y-102874600D01*
X117889113Y-102769918D01*
X117880871Y-102762837D01*
X117840730Y-102723658D01*
X117797650Y-102672500D01*
X117748173Y-102604112D01*
X117688842Y-102513244D01*
X117676252Y-102492690D01*
X117982329Y-102492690D01*
X118038069Y-102552023D01*
X118070205Y-102580210D01*
X118142754Y-102629812D01*
X118226108Y-102676083D01*
X118377132Y-102727631D01*
X118553341Y-102749974D01*
X118735673Y-102742125D01*
X118908493Y-102704789D01*
X119056166Y-102638670D01*
X119083220Y-102620666D01*
X119136337Y-102565254D01*
X119142619Y-102505612D01*
X119103839Y-102434136D01*
X119082276Y-102403518D01*
X119036503Y-102331880D01*
X118988813Y-102251314D01*
X118958314Y-102197937D01*
X118926321Y-102143113D01*
X118910797Y-102118131D01*
X118893268Y-102127728D01*
X118850752Y-102164943D01*
X118793257Y-102221602D01*
X118782097Y-102231809D01*
X118692736Y-102313537D01*
X118550412Y-102403507D01*
X118390508Y-102457677D01*
X118200354Y-102481602D01*
X117982329Y-102492690D01*
X117676252Y-102492690D01*
X117616198Y-102394647D01*
X117526784Y-102243070D01*
X117417144Y-102053263D01*
X117347046Y-101931921D01*
X117280415Y-101818198D01*
X117225254Y-101725747D01*
X117185895Y-101661825D01*
X117166671Y-101633692D01*
X117160716Y-101629974D01*
X117122005Y-101640198D01*
X117063018Y-101686831D01*
X117041816Y-101705547D01*
X116946735Y-101772511D01*
X116827070Y-101839987D01*
X116700675Y-101898556D01*
X116585406Y-101938797D01*
X116537417Y-101948863D01*
X116443694Y-101963302D01*
X116327055Y-101977747D01*
X116202308Y-101990211D01*
X116107791Y-101997820D01*
X115993499Y-102003315D01*
X115898569Y-102000842D01*
X115805097Y-101989651D01*
X115695183Y-101968994D01*
X115480990Y-101912294D01*
X115264447Y-101820298D01*
X115089419Y-101701587D01*
X115045740Y-101667550D01*
X114994548Y-101637792D01*
X114966632Y-101635272D01*
X114965065Y-101637316D01*
X114943835Y-101671088D01*
X114903931Y-101737857D01*
X114850203Y-101829247D01*
X114787501Y-101936878D01*
X114720677Y-102052373D01*
X114654580Y-102167353D01*
X114594063Y-102273440D01*
X114543974Y-102362255D01*
X114509166Y-102425422D01*
X114490442Y-102457863D01*
X114446634Y-102522606D01*
X114428280Y-102549731D01*
X114353410Y-102646065D01*
X114278472Y-102731173D01*
X114216102Y-102789359D01*
X114191577Y-102807378D01*
X114007132Y-102909375D01*
X113801445Y-102973180D01*
X113583063Y-102999134D01*
X113360537Y-102987577D01*
X113142413Y-102938847D01*
X112937242Y-102853285D01*
X112753570Y-102731231D01*
X112733171Y-102713589D01*
X112676952Y-102644221D01*
X112666822Y-102576710D01*
X112680115Y-102548287D01*
X112984533Y-102548287D01*
X112997236Y-102574657D01*
X113047478Y-102616408D01*
X113124965Y-102659746D01*
X113217899Y-102698325D01*
X113314481Y-102725796D01*
X113441088Y-102746511D01*
X113641245Y-102750004D01*
X113821535Y-102711726D01*
X113987359Y-102630914D01*
X114024110Y-102607179D01*
X114095394Y-102556401D01*
X114123349Y-102522606D01*
X114106432Y-102501637D01*
X114043095Y-102489340D01*
X113931792Y-102481559D01*
X113797204Y-102468000D01*
X113627870Y-102423152D01*
X113480490Y-102343850D01*
X113360082Y-102239660D01*
X113841657Y-102239660D01*
X113884381Y-102261515D01*
X113965786Y-102270679D01*
X114066411Y-102262936D01*
X114172210Y-102240506D01*
X114269131Y-102205608D01*
X114343127Y-102160460D01*
X114354575Y-102147731D01*
X114390775Y-102097880D01*
X114441541Y-102021931D01*
X114500897Y-101929515D01*
X114562865Y-101830263D01*
X114621467Y-101733808D01*
X114670727Y-101649781D01*
X114704666Y-101587813D01*
X114717307Y-101557536D01*
X114717195Y-101556762D01*
X114704324Y-101552522D01*
X114665998Y-101553982D01*
X114596375Y-101561783D01*
X114489616Y-101576567D01*
X114339879Y-101598974D01*
X114315419Y-101602678D01*
X114253890Y-101613231D01*
X114206301Y-101627778D01*
X114166159Y-101652776D01*
X114126970Y-101694679D01*
X114082240Y-101759942D01*
X114025478Y-101855022D01*
X113950189Y-101986372D01*
X113919410Y-102041495D01*
X113869456Y-102139867D01*
X113842794Y-102207659D01*
X113841657Y-102239660D01*
X113360082Y-102239660D01*
X113342901Y-102224793D01*
X113236304Y-102115113D01*
X113110334Y-102319270D01*
X113077776Y-102372893D01*
X113029756Y-102455720D01*
X112996758Y-102517674D01*
X112984533Y-102548287D01*
X112680115Y-102548287D01*
X112701045Y-102503534D01*
X112721361Y-102473279D01*
X112765054Y-102405347D01*
X112821873Y-102315221D01*
X112884663Y-102214180D01*
X112921695Y-102154156D01*
X113001988Y-102024018D01*
X113081898Y-101894498D01*
X113148619Y-101786356D01*
X113166647Y-101757531D01*
X113231885Y-101663130D01*
X113281000Y-101613193D01*
X113316735Y-101606878D01*
X113341833Y-101643342D01*
X113359039Y-101721743D01*
X113367302Y-101765900D01*
X113398516Y-101865448D01*
X113442115Y-101956974D01*
X113491874Y-102030508D01*
X113541571Y-102076079D01*
X113584980Y-102083715D01*
X113594805Y-102075708D01*
X113629529Y-102031101D01*
X113680198Y-101954913D01*
X113741668Y-101855059D01*
X113808793Y-101739451D01*
X113995050Y-101409599D01*
X114275721Y-101366287D01*
X114355245Y-101354287D01*
X114506417Y-101332567D01*
X114654735Y-101312408D01*
X114777189Y-101296991D01*
X114997986Y-101271007D01*
X115123777Y-101390490D01*
X115127268Y-101393798D01*
X115319026Y-101551496D01*
X115329618Y-101557536D01*
X115515733Y-101663663D01*
G37*
%TO.C,ARTS Lab*%
G36*
X116161416Y-81606080D02*
G01*
X116222728Y-81652245D01*
X116256404Y-81680529D01*
X116312311Y-81690664D01*
X116346197Y-81686944D01*
X116419377Y-81719067D01*
X116481161Y-81785244D01*
X116507173Y-81863815D01*
X116507354Y-81869226D01*
X116537689Y-81951927D01*
X116605415Y-82033952D01*
X116619095Y-82046116D01*
X116714312Y-82136647D01*
X116808073Y-82233080D01*
X116912490Y-82346181D01*
X116813183Y-82431513D01*
X116759169Y-82471871D01*
X116649422Y-82530960D01*
X116534508Y-82572169D01*
X116431407Y-82591425D01*
X116357095Y-82584654D01*
X116328551Y-82547783D01*
X116330239Y-82538689D01*
X116378568Y-82501431D01*
X116486390Y-82474584D01*
X116585350Y-82455528D01*
X116673976Y-82417741D01*
X116698015Y-82361753D01*
X116659137Y-82280484D01*
X116559015Y-82166851D01*
X116558178Y-82166001D01*
X116462965Y-82077313D01*
X116380341Y-82014101D01*
X116328108Y-81990000D01*
X116289763Y-81983789D01*
X116216084Y-81930373D01*
X116185654Y-81844332D01*
X116177744Y-81806526D01*
X116132067Y-81739930D01*
X116103684Y-81708852D01*
X116078481Y-81646245D01*
X116078596Y-81642162D01*
X116105175Y-81602378D01*
X116161416Y-81606080D01*
G37*
G36*
X116565677Y-80717217D02*
G01*
X116698809Y-80757731D01*
X116786305Y-80795323D01*
X116853945Y-80811097D01*
X116867860Y-80815106D01*
X116930798Y-80856674D01*
X117022072Y-80933747D01*
X117127064Y-81034374D01*
X117285234Y-81216272D01*
X117394897Y-81404589D01*
X117454210Y-81609358D01*
X117471907Y-81851270D01*
X117466077Y-81955519D01*
X117438164Y-82124685D01*
X117392992Y-82287646D01*
X117337021Y-82422665D01*
X117276711Y-82508003D01*
X117240717Y-82545888D01*
X117182937Y-82621799D01*
X117134686Y-82698362D01*
X117114487Y-82748160D01*
X117127266Y-82764091D01*
X117184678Y-82775935D01*
X117241101Y-82797004D01*
X117302096Y-82859723D01*
X117328833Y-82933523D01*
X117302813Y-82964205D01*
X117239343Y-83011546D01*
X117220908Y-83022537D01*
X117131106Y-83041887D01*
X117067309Y-82999389D01*
X117043038Y-82902550D01*
X117034889Y-82831999D01*
X116999811Y-82794855D01*
X116938764Y-82823560D01*
X116862654Y-82871694D01*
X116714217Y-82929428D01*
X116533966Y-82971335D01*
X116487701Y-82980579D01*
X116419313Y-83011549D01*
X116400000Y-83063349D01*
X116412471Y-83109152D01*
X116474426Y-83133179D01*
X116517540Y-83141771D01*
X116534135Y-83177834D01*
X116520300Y-83193084D01*
X116448792Y-83218579D01*
X116334674Y-83233288D01*
X116324713Y-83233852D01*
X116217394Y-83235161D01*
X116164241Y-83221322D01*
X116149930Y-83188632D01*
X116162509Y-83156358D01*
X116221378Y-83133179D01*
X116265667Y-83122521D01*
X116292827Y-83065786D01*
X116281102Y-83025600D01*
X116229897Y-82995866D01*
X116123136Y-82974982D01*
X115883968Y-82910386D01*
X115650825Y-82782476D01*
X115449215Y-82602754D01*
X115293090Y-82381201D01*
X115272729Y-82341668D01*
X115239022Y-82257929D01*
X115218991Y-82164208D01*
X115209189Y-82040040D01*
X115207220Y-81925814D01*
X115419361Y-81925814D01*
X115470022Y-82157873D01*
X115577442Y-82370628D01*
X115740623Y-82550787D01*
X115874748Y-82645723D01*
X116101435Y-82742718D01*
X116336409Y-82776170D01*
X116568835Y-82747926D01*
X116787880Y-82659837D01*
X116982708Y-82513752D01*
X117142487Y-82311519D01*
X117154919Y-82290614D01*
X117199386Y-82203511D01*
X117224996Y-82116412D01*
X117236719Y-82005537D01*
X117239522Y-81847103D01*
X117239349Y-81794390D01*
X117234861Y-81654898D01*
X117220685Y-81557708D01*
X117192029Y-81480399D01*
X117144103Y-81400549D01*
X117062159Y-81284273D01*
X116952213Y-81157773D01*
X116836973Y-81067797D01*
X116697034Y-80996820D01*
X116502596Y-80938892D01*
X116262042Y-80925385D01*
X116027904Y-80969775D01*
X115815646Y-81068807D01*
X115640731Y-81219223D01*
X115617900Y-81246744D01*
X115492303Y-81456957D01*
X115426455Y-81687744D01*
X115419361Y-81925814D01*
X115207220Y-81925814D01*
X115206171Y-81864965D01*
X115206875Y-81713957D01*
X115213336Y-81589331D01*
X115229617Y-81496450D01*
X115259665Y-81414120D01*
X115307424Y-81321147D01*
X115435811Y-81130554D01*
X115642472Y-80933135D01*
X115892913Y-80791468D01*
X116005155Y-80753449D01*
X116195503Y-80716054D01*
X116390126Y-80703651D01*
X116565677Y-80717217D01*
G37*
G36*
X115500171Y-80081732D02*
G01*
X115619561Y-80168059D01*
X115726734Y-80275232D01*
X116328551Y-80275232D01*
X116930369Y-80275232D01*
X117037542Y-80168059D01*
X117086326Y-80124617D01*
X117204171Y-80067039D01*
X117320536Y-80080611D01*
X117438754Y-80165311D01*
X117520258Y-80274572D01*
X117537757Y-80385809D01*
X117487996Y-80504862D01*
X117477120Y-80522059D01*
X117457676Y-80568139D01*
X117461501Y-80620018D01*
X117492637Y-80696451D01*
X117555128Y-80816193D01*
X117569594Y-80843134D01*
X117650445Y-80995450D01*
X117742717Y-81171369D01*
X117829156Y-81338031D01*
X117871244Y-81417739D01*
X117945357Y-81542355D01*
X118002877Y-81611447D01*
X118049593Y-81632757D01*
X118094625Y-81638057D01*
X118197192Y-81674937D01*
X118289957Y-81732881D01*
X118342647Y-81795117D01*
X118356749Y-81842465D01*
X118357938Y-81973893D01*
X118310793Y-82089969D01*
X118225422Y-82172763D01*
X118111935Y-82204346D01*
X118088096Y-82205316D01*
X118050454Y-82214826D01*
X118012727Y-82240981D01*
X117969493Y-82291602D01*
X117915331Y-82374510D01*
X117844818Y-82497526D01*
X117752535Y-82668471D01*
X117633058Y-82895166D01*
X117575508Y-83005534D01*
X117511156Y-83134050D01*
X117474233Y-83220624D01*
X117460730Y-83277989D01*
X117466637Y-83318876D01*
X117487947Y-83356017D01*
X117527012Y-83430236D01*
X117534839Y-83554122D01*
X117471295Y-83679345D01*
X117464715Y-83687461D01*
X117351138Y-83774322D01*
X117217978Y-83797863D01*
X117082318Y-83754772D01*
X117077061Y-83751599D01*
X117000700Y-83689436D01*
X116959617Y-83627121D01*
X116953483Y-83610946D01*
X116933747Y-83591735D01*
X116892624Y-83578285D01*
X116820103Y-83569586D01*
X116706172Y-83564625D01*
X116540820Y-83562391D01*
X116314034Y-83561871D01*
X116159816Y-83562255D01*
X115966519Y-83564746D01*
X115830896Y-83570111D01*
X115744491Y-83578998D01*
X115698848Y-83592052D01*
X115685513Y-83609920D01*
X115684837Y-83619683D01*
X115644732Y-83691952D01*
X115557415Y-83756660D01*
X115443461Y-83797834D01*
X115374577Y-83804790D01*
X115304012Y-83781521D01*
X115222528Y-83711695D01*
X115218175Y-83707305D01*
X115135336Y-83593295D01*
X115119938Y-83480063D01*
X115169842Y-83353037D01*
X115191507Y-83312433D01*
X115202021Y-83265972D01*
X115190401Y-83208224D01*
X115152619Y-83122042D01*
X115084650Y-82990281D01*
X115068238Y-82959114D01*
X114944069Y-82723277D01*
X114848117Y-82542371D01*
X114775517Y-82409137D01*
X114721404Y-82316316D01*
X114680911Y-82256649D01*
X114649173Y-82222878D01*
X114621323Y-82207743D01*
X114592496Y-82203985D01*
X114557827Y-82204346D01*
X114502549Y-82198427D01*
X114456487Y-82176154D01*
X114785873Y-82176154D01*
X114804127Y-82238045D01*
X114844966Y-82331793D01*
X114912141Y-82467755D01*
X115009401Y-82656289D01*
X115053164Y-82740383D01*
X115149019Y-82923455D01*
X115219685Y-83054484D01*
X115270790Y-83141724D01*
X115307959Y-83193431D01*
X115336816Y-83217861D01*
X115362989Y-83223269D01*
X115392101Y-83217911D01*
X115412144Y-83215961D01*
X115493126Y-83236503D01*
X115582845Y-83284807D01*
X115655555Y-83344844D01*
X115685513Y-83400586D01*
X115685588Y-83402829D01*
X115696403Y-83422046D01*
X115732055Y-83435956D01*
X115801864Y-83445368D01*
X115915149Y-83451090D01*
X116081232Y-83453930D01*
X116309432Y-83454698D01*
X116489720Y-83454443D01*
X116667317Y-83452771D01*
X116792030Y-83448544D01*
X116874327Y-83440640D01*
X116924675Y-83427933D01*
X116953541Y-83409301D01*
X116971391Y-83383619D01*
X117023575Y-83322556D01*
X117111634Y-83261382D01*
X117204898Y-83221463D01*
X117275859Y-83217781D01*
X117287339Y-83221688D01*
X117313644Y-83222593D01*
X117341879Y-83203962D01*
X117378191Y-83156995D01*
X117428732Y-83072892D01*
X117499651Y-82942851D01*
X117597098Y-82758073D01*
X117598769Y-82754886D01*
X117682129Y-82598837D01*
X117757572Y-82462772D01*
X117816864Y-82361219D01*
X117851770Y-82308706D01*
X117879311Y-82269100D01*
X117896206Y-82176837D01*
X117846835Y-82097173D01*
X117810217Y-82035649D01*
X117795001Y-81931870D01*
X117807467Y-81822401D01*
X117847552Y-81739137D01*
X117852640Y-81733291D01*
X117870560Y-81700663D01*
X117870074Y-81656305D01*
X117847206Y-81587481D01*
X117797980Y-81481456D01*
X117718420Y-81325495D01*
X117651247Y-81196216D01*
X117552132Y-81007777D01*
X117476812Y-80870438D01*
X117419673Y-80776142D01*
X117375104Y-80716829D01*
X117337493Y-80684440D01*
X117301228Y-80670917D01*
X117260696Y-80668200D01*
X117232916Y-80666215D01*
X117117584Y-80625375D01*
X117014591Y-80547389D01*
X116953431Y-80452922D01*
X116945608Y-80433787D01*
X116925836Y-80413239D01*
X116886433Y-80399037D01*
X116817038Y-80390015D01*
X116707286Y-80385012D01*
X116546815Y-80382863D01*
X116325260Y-80382405D01*
X116313910Y-80382405D01*
X116095932Y-80382727D01*
X115938390Y-80384581D01*
X115830745Y-80389323D01*
X115762459Y-80398307D01*
X115722991Y-80412887D01*
X115701801Y-80434418D01*
X115688351Y-80464253D01*
X115657364Y-80526399D01*
X115560389Y-80616984D01*
X115410470Y-80665202D01*
X115393639Y-80668107D01*
X115338216Y-80683760D01*
X115291898Y-80715274D01*
X115244490Y-80774696D01*
X115185799Y-80874072D01*
X115105631Y-81025449D01*
X115056003Y-81120865D01*
X114972552Y-81281142D01*
X114898620Y-81422941D01*
X114845917Y-81523798D01*
X114824612Y-81565262D01*
X114789319Y-81648639D01*
X114786666Y-81703851D01*
X114813246Y-81755024D01*
X114821017Y-81766965D01*
X114858656Y-81880136D01*
X114854122Y-82002300D01*
X114807936Y-82099749D01*
X114802123Y-82106510D01*
X114786455Y-82135761D01*
X114785873Y-82176154D01*
X114456487Y-82176154D01*
X114390825Y-82144404D01*
X114313802Y-82049220D01*
X114283202Y-81931576D01*
X114310749Y-81810174D01*
X114340795Y-81760328D01*
X114446732Y-81664746D01*
X114584979Y-81632757D01*
X114603517Y-81632647D01*
X114634667Y-81628563D01*
X114663915Y-81612238D01*
X114697111Y-81575169D01*
X114740106Y-81508853D01*
X114798754Y-81404785D01*
X114878904Y-81254461D01*
X114986409Y-81049378D01*
X115003655Y-81016398D01*
X115091458Y-80846503D01*
X115149979Y-80726373D01*
X115183106Y-80644661D01*
X115194726Y-80590023D01*
X115188727Y-80551113D01*
X115168999Y-80516587D01*
X115120530Y-80407340D01*
X115133737Y-80285933D01*
X115218349Y-80165311D01*
X115266543Y-80122533D01*
X115383610Y-80066564D01*
X115500171Y-80081732D01*
G37*
G36*
X118483291Y-78207586D02*
G01*
X118487046Y-78209529D01*
X118650244Y-78328533D01*
X118759945Y-78481515D01*
X118810179Y-78656344D01*
X118794976Y-78840888D01*
X118779782Y-78885338D01*
X118720604Y-78995728D01*
X118641725Y-79098355D01*
X118559319Y-79174015D01*
X118489563Y-79203502D01*
X118458800Y-79219169D01*
X118441304Y-79279095D01*
X118436287Y-79396638D01*
X118436287Y-79589775D01*
X118791554Y-79602053D01*
X118838643Y-79603809D01*
X119007172Y-79614904D01*
X119123976Y-79636730D01*
X119205107Y-79676379D01*
X119266619Y-79740942D01*
X119324563Y-79837511D01*
X119328429Y-79848433D01*
X119337490Y-79910509D01*
X119345160Y-80023547D01*
X119351494Y-80190475D01*
X119356550Y-80414217D01*
X119360384Y-80697699D01*
X119363053Y-81043847D01*
X119364612Y-81455585D01*
X119365120Y-81935839D01*
X119365118Y-82243356D01*
X119364888Y-82644038D01*
X119363961Y-82982665D01*
X119361863Y-83264851D01*
X119358116Y-83496209D01*
X119352245Y-83682353D01*
X119343775Y-83828896D01*
X119332229Y-83941454D01*
X119317132Y-84025640D01*
X119298007Y-84087066D01*
X119274379Y-84131349D01*
X119245773Y-84164100D01*
X119211711Y-84190934D01*
X119171719Y-84217466D01*
X119148909Y-84230495D01*
X119065151Y-84257390D01*
X118940162Y-84271969D01*
X118759063Y-84276357D01*
X118436287Y-84276357D01*
X118436287Y-84467983D01*
X118438135Y-84560805D01*
X118453100Y-84639074D01*
X118494726Y-84695133D01*
X118576507Y-84756780D01*
X118688095Y-84856653D01*
X118782166Y-85013835D01*
X118814602Y-85187914D01*
X118783479Y-85365362D01*
X118686873Y-85532650D01*
X118646499Y-85576586D01*
X118495597Y-85679842D01*
X118325498Y-85724252D01*
X118151748Y-85710259D01*
X117989896Y-85638309D01*
X117855489Y-85508847D01*
X117820513Y-85459007D01*
X117777019Y-85375853D01*
X117761486Y-85287195D01*
X117764148Y-85203409D01*
X118043319Y-85203409D01*
X118043358Y-85210863D01*
X118062256Y-85328254D01*
X118124677Y-85399452D01*
X118243772Y-85439978D01*
X118340868Y-85439945D01*
X118445782Y-85384011D01*
X118449351Y-85381162D01*
X118528394Y-85279329D01*
X118544824Y-85165394D01*
X118500682Y-85056968D01*
X118398008Y-84971660D01*
X118360972Y-84952976D01*
X118281512Y-84924606D01*
X118218150Y-84937161D01*
X118137448Y-84993437D01*
X118116132Y-85011320D01*
X118058985Y-85091119D01*
X118043319Y-85203409D01*
X117764148Y-85203409D01*
X117765512Y-85160498D01*
X117782524Y-85025158D01*
X117817740Y-84930790D01*
X117882201Y-84848321D01*
X117901986Y-84828467D01*
X117983770Y-84759251D01*
X118049609Y-84720915D01*
X118064428Y-84714966D01*
X118095626Y-84681736D01*
X118110790Y-84611947D01*
X118114768Y-84488296D01*
X118114768Y-84276357D01*
X117632489Y-84276357D01*
X117150211Y-84276357D01*
X117150211Y-84484969D01*
X117151531Y-84573261D01*
X117161682Y-84656579D01*
X117188104Y-84703167D01*
X117238070Y-84733612D01*
X117265975Y-84750233D01*
X117345416Y-84822177D01*
X117421263Y-84917701D01*
X117474749Y-85009327D01*
X117502801Y-85108617D01*
X117500031Y-85234158D01*
X117498200Y-85250861D01*
X117444741Y-85434064D01*
X117341248Y-85579535D01*
X117199370Y-85678865D01*
X117030757Y-85723647D01*
X116847059Y-85705472D01*
X116833106Y-85701386D01*
X116665743Y-85618235D01*
X116544882Y-85494127D01*
X116472502Y-85342755D01*
X116451769Y-85186761D01*
X116721519Y-85186761D01*
X116726440Y-85236323D01*
X116776070Y-85341325D01*
X116864100Y-85412929D01*
X116971874Y-85444089D01*
X117080733Y-85427760D01*
X117172020Y-85356895D01*
X117190522Y-85326831D01*
X117218243Y-85216711D01*
X117206338Y-85101424D01*
X117156329Y-85014243D01*
X117054222Y-84959059D01*
X116938087Y-84954672D01*
X116830848Y-84996348D01*
X116752121Y-85076305D01*
X116721519Y-85186761D01*
X116451769Y-85186761D01*
X116450580Y-85177812D01*
X116481096Y-85012991D01*
X116566028Y-84861986D01*
X116707353Y-84738489D01*
X116762372Y-84701972D01*
X116806870Y-84653648D01*
X116825150Y-84584770D01*
X116828692Y-84469927D01*
X116828692Y-84276357D01*
X116328551Y-84276357D01*
X115828411Y-84276357D01*
X115828411Y-84474046D01*
X115830185Y-84569868D01*
X115843344Y-84646830D01*
X115878793Y-84696038D01*
X115947383Y-84741930D01*
X115986663Y-84767425D01*
X116110307Y-84892936D01*
X116179772Y-85044427D01*
X116197269Y-85208132D01*
X116165012Y-85370285D01*
X116085213Y-85517119D01*
X115960085Y-85634868D01*
X115791839Y-85709766D01*
X115762653Y-85717065D01*
X115662250Y-85732937D01*
X115574632Y-85720907D01*
X115462341Y-85677284D01*
X115417694Y-85655728D01*
X115268320Y-85542466D01*
X115179339Y-85391165D01*
X115149782Y-85200342D01*
X115152543Y-85177351D01*
X115435443Y-85177351D01*
X115443427Y-85264901D01*
X115494746Y-85375783D01*
X115592781Y-85433347D01*
X115637500Y-85441196D01*
X115756502Y-85425820D01*
X115847637Y-85364531D01*
X115903884Y-85273261D01*
X115918219Y-85167943D01*
X115883622Y-85064509D01*
X115793070Y-84978891D01*
X115786381Y-84974962D01*
X115715856Y-84936477D01*
X115680001Y-84922216D01*
X115559794Y-84971259D01*
X115468584Y-85061750D01*
X115435443Y-85177351D01*
X115152543Y-85177351D01*
X115171259Y-85021491D01*
X115244859Y-84874816D01*
X115378444Y-84754031D01*
X115438696Y-84710407D01*
X115484611Y-84658029D01*
X115503329Y-84587239D01*
X115506892Y-84471553D01*
X115506892Y-84276357D01*
X115006751Y-84276357D01*
X114506610Y-84276357D01*
X114506610Y-84471584D01*
X114507000Y-84517092D01*
X114515131Y-84616360D01*
X114539368Y-84672937D01*
X114586990Y-84708257D01*
X114656399Y-84749798D01*
X114789183Y-84877131D01*
X114868208Y-85029291D01*
X114894649Y-85193129D01*
X114869682Y-85355495D01*
X114794483Y-85503239D01*
X114670228Y-85623211D01*
X114498093Y-85702263D01*
X114433834Y-85717851D01*
X114322220Y-85724508D01*
X114202954Y-85694849D01*
X114068635Y-85621340D01*
X113945426Y-85498987D01*
X113859883Y-85352166D01*
X113837666Y-85247816D01*
X114114954Y-85247816D01*
X114169310Y-85365137D01*
X114177899Y-85375239D01*
X114263458Y-85423677D01*
X114376301Y-85438597D01*
X114486385Y-85419839D01*
X114563670Y-85367241D01*
X114585988Y-85328106D01*
X114611410Y-85216028D01*
X114599456Y-85102142D01*
X114551266Y-85018468D01*
X114475061Y-84968674D01*
X114360331Y-84945803D01*
X114254492Y-84973592D01*
X114170008Y-85040732D01*
X114119341Y-85135910D01*
X114114954Y-85247816D01*
X113837666Y-85247816D01*
X113827848Y-85201703D01*
X113837472Y-85116528D01*
X113895875Y-84959526D01*
X113993274Y-84819291D01*
X114113448Y-84723012D01*
X114160661Y-84696025D01*
X114200695Y-84654019D01*
X114217439Y-84587053D01*
X114220816Y-84471924D01*
X114220816Y-84276357D01*
X113898040Y-84276357D01*
X113825812Y-84275824D01*
X113666513Y-84268031D01*
X113557997Y-84249286D01*
X113485384Y-84217466D01*
X113457862Y-84199416D01*
X113421899Y-84173296D01*
X113391548Y-84143104D01*
X113366334Y-84103225D01*
X113345781Y-84048044D01*
X113329412Y-83971947D01*
X113316752Y-83869318D01*
X113315237Y-83847665D01*
X113720675Y-83847665D01*
X116328551Y-83847665D01*
X118936428Y-83847665D01*
X118936428Y-81936414D01*
X118936428Y-80025162D01*
X116328551Y-80025162D01*
X113720675Y-80025162D01*
X113720675Y-81936414D01*
X113720675Y-83847665D01*
X113315237Y-83847665D01*
X113307324Y-83734544D01*
X113300653Y-83562009D01*
X113296263Y-83346099D01*
X113293676Y-83081199D01*
X113292418Y-82761695D01*
X113292013Y-82381971D01*
X113291983Y-81936414D01*
X113291735Y-81539614D01*
X113291517Y-81132533D01*
X113292566Y-80787365D01*
X113296137Y-80498951D01*
X113303482Y-80262131D01*
X113315854Y-80071746D01*
X113334506Y-79922635D01*
X113360690Y-79809640D01*
X113395659Y-79727599D01*
X113440667Y-79671354D01*
X113496965Y-79635745D01*
X113565807Y-79615612D01*
X113648445Y-79605794D01*
X113746132Y-79601134D01*
X113860122Y-79596470D01*
X114202954Y-79578608D01*
X114213602Y-79395359D01*
X114216828Y-79325560D01*
X114212321Y-79248103D01*
X114188485Y-79209815D01*
X114137824Y-79190418D01*
X114135190Y-79189728D01*
X114041164Y-79134141D01*
X113949603Y-79031139D01*
X113876315Y-78902765D01*
X113837104Y-78771061D01*
X113835187Y-78747368D01*
X114120648Y-78747368D01*
X114163794Y-78850471D01*
X114253142Y-78924848D01*
X114380941Y-78953432D01*
X114383488Y-78953419D01*
X114497018Y-78922539D01*
X114575915Y-78845247D01*
X114613259Y-78740666D01*
X114602127Y-78627920D01*
X114535598Y-78526131D01*
X114532314Y-78523117D01*
X114419083Y-78462442D01*
X114298996Y-78466911D01*
X114191319Y-78535973D01*
X114131457Y-78632601D01*
X114120648Y-78747368D01*
X113835187Y-78747368D01*
X113832900Y-78719108D01*
X113860971Y-78538838D01*
X113950325Y-78378965D01*
X114093022Y-78255489D01*
X114110032Y-78245572D01*
X114284033Y-78179250D01*
X114455161Y-78182589D01*
X114632789Y-78255589D01*
X114675215Y-78282597D01*
X114809675Y-78414075D01*
X114880421Y-78576961D01*
X114885763Y-78767832D01*
X114856002Y-78885333D01*
X114786506Y-79023898D01*
X114694581Y-79131989D01*
X114594315Y-79189235D01*
X114559887Y-79200064D01*
X114524900Y-79229613D01*
X114509836Y-79290951D01*
X114506610Y-79403859D01*
X114506610Y-79596470D01*
X115006751Y-79596470D01*
X115506892Y-79596470D01*
X115506892Y-79402393D01*
X115506649Y-79365888D01*
X115499592Y-79264801D01*
X115478184Y-79211089D01*
X115436278Y-79185905D01*
X115412111Y-79174334D01*
X115337299Y-79116161D01*
X115257656Y-79032461D01*
X115205266Y-78961985D01*
X115161087Y-78859388D01*
X115149648Y-78729172D01*
X115153327Y-78699850D01*
X115435443Y-78699850D01*
X115435604Y-78711903D01*
X115465962Y-78843106D01*
X115545727Y-78925026D01*
X115670464Y-78952885D01*
X115765529Y-78943574D01*
X115843404Y-78898376D01*
X115896740Y-78800876D01*
X115913785Y-78687501D01*
X115879277Y-78572221D01*
X115796745Y-78491188D01*
X115777398Y-78481577D01*
X115650062Y-78454310D01*
X115540727Y-78487316D01*
X115464238Y-78572021D01*
X115435443Y-78699850D01*
X115153327Y-78699850D01*
X115173442Y-78539540D01*
X115251653Y-78384426D01*
X115390537Y-78257832D01*
X115473849Y-78211729D01*
X115641947Y-78171372D01*
X115808411Y-78189403D01*
X115960340Y-78258718D01*
X116084834Y-78372218D01*
X116168991Y-78522799D01*
X116199910Y-78703361D01*
X116198817Y-78735551D01*
X116159346Y-78904032D01*
X116072628Y-79051117D01*
X115951564Y-79153427D01*
X115895814Y-79185714D01*
X115850331Y-79230008D01*
X115831881Y-79295830D01*
X115828411Y-79408110D01*
X115828411Y-79596470D01*
X116328551Y-79596470D01*
X116828692Y-79596470D01*
X116828692Y-79399986D01*
X116825863Y-79307644D01*
X116810745Y-79228017D01*
X116780586Y-79203502D01*
X116732609Y-79189704D01*
X116648519Y-79126798D01*
X116563997Y-79030613D01*
X116495303Y-78920694D01*
X116458698Y-78816587D01*
X116450816Y-78755460D01*
X116725485Y-78755460D01*
X116770465Y-78853956D01*
X116858876Y-78925691D01*
X116983915Y-78953432D01*
X116997831Y-78953165D01*
X117119533Y-78919420D01*
X117195466Y-78832172D01*
X117221660Y-78695726D01*
X117221380Y-78677788D01*
X117199714Y-78578276D01*
X117133606Y-78510986D01*
X117044950Y-78466752D01*
X116932436Y-78463349D01*
X116815648Y-78527333D01*
X116793041Y-78547109D01*
X116730742Y-78647433D01*
X116725485Y-78755460D01*
X116450816Y-78755460D01*
X116448243Y-78735501D01*
X116450020Y-78656798D01*
X116470984Y-78568703D01*
X116515421Y-78442995D01*
X116521368Y-78429153D01*
X116595311Y-78336572D01*
X116711898Y-78252397D01*
X116846561Y-78191332D01*
X116974728Y-78168084D01*
X117043926Y-78175240D01*
X117199906Y-78231448D01*
X117342198Y-78329687D01*
X117443416Y-78453291D01*
X117474029Y-78526646D01*
X117495870Y-78682370D01*
X117475809Y-78845110D01*
X117419594Y-78995885D01*
X117332970Y-79115719D01*
X117221684Y-79185632D01*
X117207308Y-79190950D01*
X117171418Y-79221887D01*
X117154470Y-79286045D01*
X117150211Y-79402393D01*
X117150211Y-79596470D01*
X117632489Y-79596470D01*
X118114768Y-79596470D01*
X118114768Y-79402393D01*
X118114686Y-79381327D01*
X118108424Y-79272333D01*
X118088238Y-79213685D01*
X118048562Y-79187304D01*
X117984596Y-79156505D01*
X117879915Y-79055526D01*
X117802315Y-78913391D01*
X117764348Y-78749440D01*
X117763089Y-78733576D01*
X117762725Y-78702182D01*
X118043319Y-78702182D01*
X118043521Y-78715526D01*
X118074733Y-78845282D01*
X118156684Y-78925791D01*
X118285880Y-78953432D01*
X118312991Y-78952154D01*
X118427179Y-78913174D01*
X118504841Y-78833127D01*
X118539042Y-78730088D01*
X118522850Y-78622131D01*
X118449331Y-78527333D01*
X118371439Y-78480629D01*
X118251112Y-78458534D01*
X118145994Y-78492539D01*
X118071568Y-78575978D01*
X118043319Y-78702182D01*
X117762725Y-78702182D01*
X117761668Y-78611062D01*
X117785904Y-78517072D01*
X117844744Y-78414320D01*
X117875607Y-78372363D01*
X118007739Y-78254778D01*
X118165380Y-78184132D01*
X118330056Y-78166408D01*
X118483291Y-78207586D01*
G37*
%TD*%
M02*
